{
.appVersion = "948";
copyright = "Copyright 2012 The Press Start 2P Project Authors (cody@zone38.net), with Reserved Font Name \"Press Start 2P\".";
customParameters = (
{
name = vendorID;
value = CYRE;
},
{
name = license;
value = "This Font Software is licensed under the SIL Open Font License, Version 1.1. This license is available with a FAQ at: http://scripts.sil.org/OFL";
},
{
name = licenseURL;
value = "http://scripts.sil.org/OFL";
},
{
name = fsType;
value = (
);
},
{
name = "Use Typo Metrics";
value = 1;
},
{
name = "Disable Last Change";
value = 1;
},
{
name = "Use Line Breaks";
value = 1;
}
);
date = "2016-10-14 23:55:34 +0000";
designer = CodeMan38;
designerURL = "http://www.zone38.net/";
disablesAutomaticAlignment = 1;
familyName = "Press Start 2P";
featurePrefixes = (
{
automatic = 1;
code = "languagesystem DFLT dflt;
languagesystem latn dflt;
languagesystem latn CAT;
";
name = Languagesystems;
}
);
features = (
{
automatic = 1;
code = "feature ccmp;
feature locl;
feature sups;
feature frac;
feature ordn;
";
name = aalt;
},
{
automatic = 1;
code = "lookup ccmp_Other_1 {
	@CombiningTopAccents = [acutecomb gravecomb];
	@CombiningNonTopAccents = [strokeshortcomb];
	sub [i]' @CombiningTopAccents by [idotless];
	sub [i]' @CombiningNonTopAccents @CombiningTopAccents by [idotless];
} ccmp_Other_1;
";
name = ccmp;
},
{
automatic = 1;
code = "script latn;
language CAT;
sub  l' periodcentered' l by ldot;
sub  L' periodcentered' L by Ldot;
";
name = locl;
},
{
automatic = 1;
code = "sub one by onesuperior;
sub two by twosuperior;
sub three by threesuperior;
sub four by foursuperior;
";
name = sups;
},
{
automatic = 1;
code = "sub one slash four by onequarter;
sub one slash two by onehalf;
sub three slash four by threequarters;
";
name = frac;
},
{
automatic = 1;
code = "sub [zero one two three four five six seven eight nine] [A a]' by ordfeminine;
sub [zero one two three four five six seven eight nine] [O o]' by ordmasculine;
sub N o period by numero;
";

glyphs = (
{
glyphname = A;
layers = (
{
layerId = UUID0;
paths = (
{
closed = 1;
nodes = (
"125 125 LINE",
"250 125 LINE",
"250 250 LINE",
"250 375 LINE",
"438 375 LINE",
"625 375 LINE",
"625 250 LINE",
"625 125 LINE",
"750 125 LINE",
"875 125 LINE",
"875 438 LINE",
"875 750 LINE",
"813 750 LINE",
"750 750 LINE",
"750 813 LINE",
"750 875 LINE",
"688 875 LINE",
"625 875 LINE",
"625 938 LINE",
"625 1000 LINE",
"438 1000 LINE",
"250 1000 LINE",
"250 938 LINE",
"250 875 LINE",
"188 875 LINE",
"125 875 LINE",
"125 813 LINE",
"125 750 LINE",
"63 750 LINE",
"0 750 LINE",
"0 438 LINE",
"0 125 LINE"
);
},
{
closed = 1;
nodes = (
"250 625 LINE",
"250 750 LINE",
"313 750 LINE",
"375 750 LINE",
"375 813 LINE",
"375 875 LINE",
"438 875 LINE",
"500 875 LINE",
"500 813 LINE",
"500 750 LINE",
"563 750 LINE",
"625 750 LINE",
"625 625 LINE",
"625 500 LINE",
"438 500 LINE",
"250 500 LINE"
);
}
);
width = 1000;
}
);
unicode = 0041;
},
{
glyphname = Aacute;
layers = (
{
layerId = UUID0;
paths = (
{
closed = 1;
nodes = (
"125 125 LINE",
"250 125 LINE",
"250 188 LINE",
"250 250 LINE",
"438 250 LINE",
"625 250 LINE",
"625 188 LINE",
"625 125 LINE",
"750 125 LINE",
"875 125 LINE",
"875 313 LINE",
"875 500 LINE",
"813 500 LINE",
"750 500 LINE",
"750 563 LINE",
"750 625 LINE",
"688 625 LINE",
"625 625 LINE",
"625 688 LINE",
"625 750 LINE",
"563 750 LINE",
"500 750 LINE",
"500 813 LINE",
"500 875 LINE",
"563 875 LINE",
"625 875 LINE",
"625 938 LINE",
"625 1000 LINE",
"563 1000 LINE",
"500 1000 LINE",
"500 938 LINE",
"500 875 LINE",
"438 875 LINE",
"375 875 LINE",
"375 813 LINE",
"375 750 LINE",
"313 750 LINE",
"250 750 LINE",
"250 688 LINE",
"250 625 LINE",
"188 625 LINE",
"125 625 LINE",
"125 563 LINE",
"125 500 LINE",
"63 500 LINE",
"0 500 LINE",
"0 313 LINE",
"0 125 LINE"
);
},
{
closed = 1;
nodes = (
"250 438 LINE",
"250 500 LINE",
"313 500 LINE",
"375 500 LINE",
"375 563 LINE",
"375 625 LINE",
"438 625 LINE",
"500 625 LINE",
"500 563 LINE",
"500 500 LINE",
"563 500 LINE",
"625 500 LINE",
"625 438 LINE",
"625 375 LINE",
"438 375 LINE",
"250 375 LINE"
);
}
);
width = 1000;
}
);
unicode = 00C1;
},
{
color = 8;
glyphname = Abreve;
layers = (
{
layerId = UUID0;
paths = (
{
closed = 1;
nodes = (
"125 125 LINE",
"250 125 LINE",
"250 188 LINE",
"250 250 LINE",
"438 250 LINE",
"625 250 LINE",
"625 188 LINE",
"625 125 LINE",
"750 125 LINE",
"875 125 LINE",
"875 313 LINE",
"875 500 LINE",
"813 500 LINE",
"750 500 LINE",
"750 563 LINE",
"750 625 LINE",
"688 625 LINE",
"625 625 LINE",
"625 750 LINE",
"625 875 LINE",
"688 875 LINE",
"750 875 LINE",
"750 938 LINE",
"750 1000 LINE",
"688 1000 LINE",
"625 1000 LINE",
"625 938 LINE",
"625 875 LINE",
"438 875 LINE",
"250 875 LINE",
"250 938 LINE",
"250 1000 LINE",
"188 1000 LINE",
"125 1000 LINE",
"125 938 LINE",
"125 875 LINE",
"188 875 LINE",
"250 875 LINE",
"250 750 LINE",
"250 625 LINE",
"188 625 LINE",
"125 625 LINE",
"125 563 LINE",
"125 500 LINE",
"63 500 LINE",
"0 500 LINE",
"0 313 LINE",
"0 125 LINE"
);
},
{
closed = 1;
nodes = (
"250 438 LINE",
"250 500 LINE",
"313 500 LINE",
"375 500 LINE",
"375 563 LINE",
"375 625 LINE",
"438 625 LINE",
"500 625 LINE",
"500 563 LINE",
"500 500 LINE",
"563 500 LINE",
"625 500 LINE",
"625 438 LINE",
"625 375 LINE",
"438 375 LINE",
"250 375 LINE"
);
}
);
width = 1000;
}
);
unicode = 0102;
},
{
glyphname = Acircumflex;
layers = (
{
layerId = UUID0;
paths = (
{
closed = 1;
nodes = (
"125 125 LINE",
"250 125 LINE",
"250 188 LINE",
"250 250 LINE",
"438 250 LINE",
"625 250 LINE",
"625 188 LINE",
"625 125 LINE",
"750 125 LINE",
"875 125 LINE",
"875 313 LINE",
"875 500 LINE",
"813 500 LINE",
"750 500 LINE",
"750 563 LINE",
"750 625 LINE",
"688 625 LINE",
"625 625 LINE",
"625 688 LINE",
"625 750 LINE",
"688 750 LINE",
"750 750 LINE",
"750 813 LINE",
"750 875 LINE",
"688 875 LINE",
"625 875 LINE",
"625 938 LINE",
"625 1000 LINE",
"438 1000 LINE",
"250 1000 LINE",
"250 938 LINE",
"250 875 LINE",
"188 875 LINE",
"125 875 LINE",
"125 813 LINE",
"125 750 LINE",
"188 750 LINE",
"250 750 LINE",
"250 688 LINE",
"250 625 LINE",
"188 625 LINE",
"125 625 LINE",
"125 563 LINE",
"125 500 LINE",
"63 500 LINE",
"0 500 LINE",
"0 313 LINE",
"0 125 LINE"
);
},
{
closed = 1;
nodes = (
"250 438 LINE",
"250 500 LINE",
"313 500 LINE",
"375 500 LINE",
"375 563 LINE",
"375 625 LINE",
"438 625 LINE",
"500 625 LINE",
"500 563 LINE",
"500 500 LINE",
"563 500 LINE",
"625 500 LINE",
"625 438 LINE",
"625 375 LINE",
"438 375 LINE",
"250 375 LINE"
);
},
{
closed = 1;
nodes = (
"375 813 LINE",
"375 875 LINE",
"438 875 LINE",
"500 875 LINE",
"500 813 LINE",
"500 750 LINE",
"438 750 LINE",
"375 750 LINE"
);
}
);
width = 1000;
}
);
unicode = 00C2;
},
{
glyphname = Adieresis;
layers = (
{
layerId = UUID0;
paths = (
{
closed = 1;
nodes = (
"125 125 LINE",
"250 125 LINE",
"250 188 LINE",
"250 250 LINE",
"438 250 LINE",
"625 250 LINE",
"625 188 LINE",
"625 125 LINE",
"750 125 LINE",
"875 125 LINE",
"875 313 LINE",
"875 500 LINE",
"813 500 LINE",
"750 500 LINE",
"750 563 LINE",
"750 625 LINE",
"688 625 LINE",
"625 625 LINE",
"625 688 LINE",
"625 750 LINE",
"438 750 LINE",
"250 750 LINE",
"250 688 LINE",
"250 625 LINE",
"188 625 LINE",
"125 625 LINE",
"125 563 LINE",
"125 500 LINE",
"63 500 LINE",
"0 500 LINE",
"0 313 LINE",
"0 125 LINE"
);
},
{
closed = 1;
nodes = (
"250 438 LINE",
"250 500 LINE",
"313 500 LINE",
"375 500 LINE",
"375 563 LINE",
"375 625 LINE",
"438 625 LINE",
"500 625 LINE",
"500 563 LINE",
"500 500 LINE",
"563 500 LINE",
"625 500 LINE",
"625 438 LINE",
"625 375 LINE",
"438 375 LINE",
"250 375 LINE"
);
},
{
closed = 1;
nodes = (
"250 875 LINE",
"375 875 LINE",
"375 938 LINE",
"375 1000 LINE",
"250 1000 LINE",
"125 1000 LINE",
"125 938 LINE",
"125 875 LINE"
);
},
{
closed = 1;
nodes = (
"625 875 LINE",
"750 875 LINE",
"750 938 LINE",
"750 1000 LINE",
"625 1000 LINE",
"500 1000 LINE",
"500 938 LINE",
"500 875 LINE"
);
}
);
width = 1000;
}
);
unicode = 00C4;
},
{
glyphname = Agrave;
layers = (
{
layerId = UUID0;
paths = (
{
closed = 1;
nodes = (
"125 125 LINE",
"250 125 LINE",
"250 188 LINE",
"250 250 LINE",
"438 250 LINE",
"625 250 LINE",
"625 188 LINE",
"625 125 LINE",
"750 125 LINE",
"875 125 LINE",
"875 313 LINE",
"875 500 LINE",
"813 500 LINE",
"750 500 LINE",
"750 563 LINE",
"750 625 LINE",
"688 625 LINE",
"625 625 LINE",
"625 688 LINE",
"625 750 LINE",
"563 750 LINE",
"500 750 LINE",
"500 813 LINE",
"500 875 LINE",
"438 875 LINE",
"375 875 LINE",
"375 938 LINE",
"375 1000 LINE",
"313 1000 LINE",
"250 1000 LINE",
"250 938 LINE",
"250 875 LINE",
"313 875 LINE",
"375 875 LINE",
"375 813 LINE",
"375 750 LINE",
"313 750 LINE",
"250 750 LINE",
"250 688 LINE",
"250 625 LINE",
"188 625 LINE",
"125 625 LINE",
"125 563 LINE",
"125 500 LINE",
"63 500 LINE",
"0 500 LINE",
"0 313 LINE",
"0 125 LINE"
);
},
{
closed = 1;
nodes = (
"250 438 LINE",
"250 500 LINE",
"313 500 LINE",
"375 500 LINE",
"375 563 LINE",
"375 625 LINE",
"438 625 LINE",
"500 625 LINE",
"500 563 LINE",
"500 500 LINE",
"563 500 LINE",
"625 500 LINE",
"625 438 LINE",
"625 375 LINE",
"438 375 LINE",
"250 375 LINE"
);
}
);
width = 1000;
}
);
unicode = 00C0;
},
{
glyphname = Amacron;
layers = (
{
layerId = UUID0;
paths = (
{
closed = 1;
nodes = (
"125 125 LINE",
"250 125 LINE",
"250 188 LINE",
"250 250 LINE",
"438 250 LINE",
"625 250 LINE",
"625 188 LINE",
"625 125 LINE",
"750 125 LINE",
"875 125 LINE",
"875 313 LINE",
"875 500 LINE",
"813 500 LINE",
"750 500 LINE",
"750 563 LINE",
"750 625 LINE",
"688 625 LINE",
"625 625 LINE",
"625 688 LINE",
"625 750 LINE",
"438 750 LINE",
"250 750 LINE",
"250 688 LINE",
"250 625 LINE",
"188 625 LINE",
"125 625 LINE",
"125 563 LINE",
"125 500 LINE",
"63 500 LINE",
"0 500 LINE",
"0 313 LINE",
"0 125 LINE"
);
},
{
closed = 1;
nodes = (
"250 438 LINE",
"250 500 LINE",
"313 500 LINE",
"375 500 LINE",
"375 563 LINE",
"375 625 LINE",
"438 625 LINE",
"500 625 LINE",
"500 563 LINE",
"500 500 LINE",
"563 500 LINE",
"625 500 LINE",
"625 438 LINE",
"625 375 LINE",
"438 375 LINE",
"250 375 LINE"
);
},
{
closed = 1;
nodes = (
"438 875 LINE",
"750 875 LINE",
"750 938 LINE",
"750 1000 LINE",
"438 1000 LINE",
"125 1000 LINE",
"125 938 LINE",
"125 875 LINE"
);
}
);
width = 1000;
}
);
unicode = 0100;
},
{
glyphname = Aogonek;
layers = (
{
layerId = UUID0;
paths = (
{
closed = 1;
nodes = (
"750 0 LINE",
"875 0 LINE",
"875 63 LINE",
"875 125 LINE",
"750 125 LINE",
"625 125 LINE",
"625 188 LINE",
"625 250 LINE",
"688 250 LINE",
"750 250 LINE",
"750 313 LINE",
"750 375 LINE",
"813 375 LINE",
"875 375 LINE",
"875 563 LINE",
"875 750 LINE",
"813 750 LINE",
"750 750 LINE",
"750 813 LINE",
"750 875 LINE",
"688 875 LINE",
"625 875 LINE",
"625 938 LINE",
"625 1000 LINE",
"438 1000 LINE",
"250 1000 LINE",
"250 938 LINE",
"250 875 LINE",
"188 875 LINE",
"125 875 LINE",
"125 813 LINE",
"125 750 LINE",
"63 750 LINE",
"0 750 LINE",
"0 563 LINE",
"0 375 LINE",
"125 375 LINE",
"250 375 LINE",
"250 438 LINE",
"250 500 LINE",
"438 500 LINE",
"625 500 LINE",
"625 375 LINE",
"625 250 LINE",
"563 250 LINE",
"500 250 LINE",
"500 188 LINE",
"500 125 LINE",
"563 125 LINE",
"625 125 LINE",
"625 63 LINE",
"625 0 LINE"
);
},
{
closed = 1;
nodes = (
"250 688 LINE",
"250 750 LINE",
"313 750 LINE",
"375 750 LINE",
"375 813 LINE",
"375 875 LINE",
"438 875 LINE",
"500 875 LINE",
"500 813 LINE",
"500 750 LINE",
"563 750 LINE",
"625 750 LINE",
"625 688 LINE",
"625 625 LINE",
"438 625 LINE",
"250 625 LINE"
);
}
);
width = 1000;
}
);
unicode = 0104;
},
{
glyphname = Aring;
layers = (
{
layerId = UUID0;
paths = (
{
closed = 1;
nodes = (
"125 125 LINE",
"250 125 LINE",
"250 188 LINE",
"250 250 LINE",
"438 250 LINE",
"625 250 LINE",
"625 188 LINE",
"625 125 LINE",
"750 125 LINE",
"875 125 LINE",
"875 313 LINE",
"875 500 LINE",
"813 500 LINE",
"750 500 LINE",
"750 563 LINE",
"750 625 LINE",
"688 625 LINE",
"625 625 LINE",
"625 750 LINE",
"625 875 LINE",
"563 875 LINE",
"500 875 LINE",
"500 938 LINE",
"500 1000 LINE",
"438 1000 LINE",
"375 1000 LINE",
"375 938 LINE",
"375 875 LINE",
"313 875 LINE",
"250 875 LINE",
"250 750 LINE",
"250 625 LINE",
"188 625 LINE",
"125 625 LINE",
"125 563 LINE",
"125 500 LINE",
"63 500 LINE",
"0 500 LINE",
"0 313 LINE",
"0 125 LINE"
);
},
{
closed = 1;
nodes = (
"250 438 LINE",
"250 500 LINE",
"313 500 LINE",
"375 500 LINE",
"375 563 LINE",
"375 625 LINE",
"438 625 LINE",
"500 625 LINE",
"500 563 LINE",
"500 500 LINE",
"563 500 LINE",
"625 500 LINE",
"625 438 LINE",
"625 375 LINE",
"438 375 LINE",
"250 375 LINE"
);
},
{
closed = 1;
nodes = (
"375 813 LINE",
"375 875 LINE",
"438 875 LINE",
"500 875 LINE",
"500 813 LINE",
"500 750 LINE",
"438 750 LINE",
"375 750 LINE"
);
}
);
width = 1000;
}
);
unicode = 00C5;
},
{
color = 8;
glyphname = Atilde;
layers = (
{
layerId = UUID0;
paths = (
{
closed = 1;
nodes = (
"125 125 LINE",
"250 125 LINE",
"250 188 LINE",
"250 250 LINE",
"438 250 LINE",
"625 250 LINE",
"625 188 LINE",
"625 125 LINE",
"750 125 LINE",
"875 125 LINE",
"875 313 LINE",
"875 500 LINE",
"813 500 LINE",
"750 500 LINE",
"750 563 LINE",
"750 625 LINE",
"688 625 LINE",
"625 625 LINE",
"625 750 LINE",
"625 875 LINE",
"688 875 LINE",
"750 875 LINE",
"750 938 LINE",
"750 1000 LINE",
"688 1000 LINE",
"625 1000 LINE",
"625 938 LINE",
"625 875 LINE",
"563 875 LINE",
"500 875 LINE",
"500 938 LINE",
"500 1000 LINE",
"375 1000 LINE",
"250 1000 LINE",
"250 938 LINE",
"250 875 LINE",
"188 875 LINE",
"125 875 LINE",
"125 813 LINE",
"125 750 LINE",
"188 750 LINE",
"250 750 LINE",
"250 688 LINE",
"250 625 LINE",
"188 625 LINE",
"125 625 LINE",
"125 563 LINE",
"125 500 LINE",
"63 500 LINE",
"0 500 LINE",
"0 313 LINE",
"0 125 LINE"
);
},
{
closed = 1;
nodes = (
"250 438 LINE",
"250 500 LINE",
"313 500 LINE",
"375 500 LINE",
"375 563 LINE",
"375 625 LINE",
"438 625 LINE",
"500 625 LINE",
"500 563 LINE",
"500 500 LINE",
"563 500 LINE",
"625 500 LINE",
"625 438 LINE",
"625 375 LINE",
"438 375 LINE",
"250 375 LINE"
);
},
{
closed = 1;
nodes = (
"250 813 LINE",
"250 875 LINE",
"313 875 LINE",
"375 875 LINE",
"375 813 LINE",
"375 750 LINE",
"313 750 LINE",
"250 750 LINE"
);
}
);
width = 1000;
}
);
unicode = 00C3;
},
{
glyphname = AE;
layers = (
{
layerId = UUID0;
paths = (
{
closed = 1;
nodes = (
"125 125 LINE",
"250 125 LINE",
"250 250 LINE",
"250 375 LINE",
"313 375 LINE",
"375 375 LINE",
"375 250 LINE",
"375 125 LINE",
"625 125 LINE",
"875 125 LINE",
"875 188 LINE",
"875 250 LINE",
"750 250 LINE",
"625 250 LINE",
"625 375 LINE",
"625 500 LINE",
"750 500 LINE",
"875 500 LINE",
"875 563 LINE",
"875 625 LINE",
"750 625 LINE",
"625 625 LINE",
"625 750 LINE",
"625 875 LINE",
"750 875 LINE",
"875 875 LINE",
"875 938 LINE",
"875 1000 LINE",
"563 1000 LINE",
"250 1000 LINE",
"250 938 LINE",
"250 875 LINE",
"188 875 LINE",
"125 875 LINE",
"125 813 LINE",
"125 750 LINE",
"63 750 LINE",
"0 750 LINE",
"0 438 LINE",
"0 125 LINE"
);
},
{
closed = 1;
nodes = (
"250 625 LINE",
"250 750 LINE",
"313 750 LINE",
"375 750 LINE",
"375 625 LINE",
"375 500 LINE",
"313 500 LINE",
"250 500 LINE"
);
}
);
width = 1000;
}
);
unicode = 00C6;
},
{
glyphname = B;
layers = (
{
layerId = UUID0;
paths = (
{
closed = 1;
nodes = (
"375 125 LINE",
"750 125 LINE",
"750 188 LINE",
"750 250 LINE",
"813 250 LINE",
"875 250 LINE",
"875 375 LINE",
"875 500 LINE",
"813 500 LINE",
"750 500 LINE",
"750 563 LINE",
"750 625 LINE",
"813 625 LINE",
"875 625 LINE",
"875 750 LINE",
"875 875 LINE",
"813 875 LINE",
"750 875 LINE",
"750 938 LINE",
"750 1000 LINE",
"375 1000 LINE",
"0 1000 LINE",
"0 563 LINE",
"0 125 LINE"
);
},
{
closed = 1;
nodes = (
"250 375 LINE",
"250 500 LINE",
"438 500 LINE",
"625 500 LINE",
"625 375 LINE",
"625 250 LINE",
"438 250 LINE",
"250 250 LINE"
);
},
{
closed = 1;
nodes = (
"250 750 LINE",
"250 875 LINE",
"438 875 LINE",
"625 875 LINE",
"625 750 LINE",
"625 625 LINE",
"438 625 LINE",
"250 625 LINE"
);
}
);
width = 1000;
}
);
unicode = 0042;
},
{
glyphname = C;
layers = (
{
layerId = UUID0;
paths = (
{
closed = 1;
nodes = (
"500 125 LINE",
"750 125 LINE",
"750 188 LINE",
"750 250 LINE",
"813 250 LINE",
"875 250 LINE",
"875 313 LINE",
"875 375 LINE",
"750 375 LINE",
"625 375 LINE",
"625 313 LINE",
"625 250 LINE",
"500 250 LINE",
"375 250 LINE",
"375 313 LINE",
"375 375 LINE",
"313 375 LINE",
"250 375 LINE",
"250 563 LINE",
"250 750 LINE",
"313 750 LINE",
"375 750 LINE",
"375 813 LINE",
"375 875 LINE",
"500 875 LINE",
"625 875 LINE",
"625 813 LINE",
"625 750 LINE",
"750 750 LINE",
"875 750 LINE",
"875 813 LINE",
"875 875 LINE",
"813 875 LINE",
"750 875 LINE",
"750 938 LINE",
"750 1000 LINE",
"500 1000 LINE",
"250 1000 LINE",
"250 938 LINE",
"250 875 LINE",
"188 875 LINE",
"125 875 LINE",
"125 813 LINE",
"125 750 LINE",
"63 750 LINE",
"0 750 LINE",
"0 563 LINE",
"0 375 LINE",
"63 375 LINE",
"125 375 LINE",
"125 313 LINE",
"125 250 LINE",
"188 250 LINE",
"250 250 LINE",
"250 188 LINE",
"250 125 LINE"
);
}
);
width = 1000;
}
);
unicode = 0043;
},
{
glyphname = Cacute;
layers = (
{
layerId = UUID0;
paths = (
{
closed = 1;
nodes = (
"500 125 LINE",
"750 125 LINE",
"750 188 LINE",
"750 250 LINE",
"813 250 LINE",
"875 250 LINE",
"875 313 LINE",
"875 375 LINE",
"750 375 LINE",
"625 375 LINE",
"625 313 LINE",
"625 250 LINE",
"500 250 LINE",
"375 250 LINE",
"375 313 LINE",
"375 375 LINE",
"313 375 LINE",
"250 375 LINE",
"250 438 LINE",
"250 500 LINE",
"313 500 LINE",
"375 500 LINE",
"375 563 LINE",
"375 625 LINE",
"500 625 LINE",
"625 625 LINE",
"625 563 LINE",
"625 500 LINE",
"750 500 LINE",
"875 500 LINE",
"875 563 LINE",
"875 625 LINE",
"813 625 LINE",
"750 625 LINE",
"750 688 LINE",
"750 750 LINE",
"625 750 LINE",
"500 750 LINE",
"500 813 LINE",
"500 875 LINE",
"563 875 LINE",
"625 875 LINE",
"625 938 LINE",
"625 1000 LINE",
"563 1000 LINE",
"500 1000 LINE",
"500 938 LINE",
"500 875 LINE",
"438 875 LINE",
"375 875 LINE",
"375 813 LINE",
"375 750 LINE",
"313 750 LINE",
"250 750 LINE",
"250 688 LINE",
"250 625 LINE",
"188 625 LINE",
"125 625 LINE",
"125 563 LINE",
"125 500 LINE",
"63 500 LINE",
"0 500 LINE",
"0 438 LINE",
"0 375 LINE",
"63 375 LINE",
"125 375 LINE",
"125 313 LINE",
"125 250 LINE",
"188 250 LINE",
"250 250 LINE",
"250 188 LINE",
"250 125 LINE"
);
}
);
width = 1000;
}
);
unicode = 0106;
},
{
color = 8;
glyphname = Ccaron;
layers = (
{
layerId = UUID0;
paths = (
{
closed = 1;
nodes = (
"500 125 LINE",
"750 125 LINE",
"750 188 LINE",
"750 250 LINE",
"813 250 LINE",
"875 250 LINE",
"875 313 LINE",
"875 375 LINE",
"750 375 LINE",
"625 375 LINE",
"625 313 LINE",
"625 250 LINE",
"500 250 LINE",
"375 250 LINE",
"375 313 LINE",
"375 375 LINE",
"313 375 LINE",
"250 375 LINE",
"250 438 LINE",
"250 500 LINE",
"313 500 LINE",
"375 500 LINE",
"375 563 LINE",
"375 625 LINE",
"500 625 LINE",
"625 625 LINE",
"625 563 LINE",
"625 500 LINE",
"750 500 LINE",
"875 500 LINE",
"875 563 LINE",
"875 625 LINE",
"813 625 LINE",
"750 625 LINE",
"750 750 LINE",
"750 875 LINE",
"813 875 LINE",
"875 875 LINE",
"875 938 LINE",
"875 1000 LINE",
"750 1000 LINE",
"625 1000 LINE",
"625 938 LINE",
"625 875 LINE",
"500 875 LINE",
"375 875 LINE",
"375 938 LINE",
"375 1000 LINE",
"250 1000 LINE",
"125 1000 LINE",
"125 938 LINE",
"125 875 LINE",
"188 875 LINE",
"250 875 LINE",
"250 750 LINE",
"250 625 LINE",
"188 625 LINE",
"125 625 LINE",
"125 563 LINE",
"125 500 LINE",
"63 500 LINE",
"0 500 LINE",
"0 438 LINE",
"0 375 LINE",
"63 375 LINE",
"125 375 LINE",
"125 313 LINE",
"125 250 LINE",
"188 250 LINE",
"250 250 LINE",
"250 188 LINE",
"250 125 LINE"
);
}
);
width = 1000;
}
);
unicode = 010C;
},
{
glyphname = Ccedilla;
layers = (
{
layerId = UUID0;
paths = (
{
closed = 1;
nodes = (
"375 0 LINE",
"500 0 LINE",
"500 63 LINE",
"500 125 LINE",
"563 125 LINE",
"625 125 LINE",
"625 188 LINE",
"625 250 LINE",
"688 250 LINE",
"750 250 LINE",
"750 313 LINE",
"750 375 LINE",
"813 375 LINE",
"875 375 LINE",
"875 438 LINE",
"875 500 LINE",
"750 500 LINE",
"625 500 LINE",
"625 438 LINE",
"625 375 LINE",
"500 375 LINE",
"375 375 LINE",
"375 438 LINE",
"375 500 LINE",
"313 500 LINE",
"250 500 LINE",
"250 625 LINE",
"250 750 LINE",
"313 750 LINE",
"375 750 LINE",
"375 813 LINE",
"375 875 LINE",
"500 875 LINE",
"625 875 LINE",
"625 813 LINE",
"625 750 LINE",
"750 750 LINE",
"875 750 LINE",
"875 813 LINE",
"875 875 LINE",
"813 875 LINE",
"750 875 LINE",
"750 938 LINE",
"750 1000 LINE",
"500 1000 LINE",
"250 1000 LINE",
"250 938 LINE",
"250 875 LINE",
"188 875 LINE",
"125 875 LINE",
"125 813 LINE",
"125 750 LINE",
"63 750 LINE",
"0 750 LINE",
"0 625 LINE",
"0 500 LINE",
"63 500 LINE",
"125 500 LINE",
"125 438 LINE",
"125 375 LINE",
"188 375 LINE",
"250 375 LINE",
"250 313 LINE",
"250 250 LINE",
"375 250 LINE",
"500 250 LINE",
"500 188 LINE",
"500 125 LINE",
"375 125 LINE",
"250 125 LINE",
"250 63 LINE",
"250 0 LINE"
);
}
);
width = 1000;
}
);
unicode = 00C7;
},
{
color = 8;
glyphname = Ccircumflex;
layers = (
{
layerId = UUID0;
paths = (
{
closed = 1;
nodes = (
"500 125 LINE",
"750 125 LINE",
"750 188 LINE",
"750 250 LINE",
"813 250 LINE",
"875 250 LINE",
"875 313 LINE",
"875 375 LINE",
"750 375 LINE",
"625 375 LINE",
"625 313 LINE",
"625 250 LINE",
"500 250 LINE",
"375 250 LINE",
"375 313 LINE",
"375 375 LINE",
"313 375 LINE",
"250 375 LINE",
"250 438 LINE",
"250 500 LINE",
"313 500 LINE",
"375 500 LINE",
"375 563 LINE",
"375 625 LINE",
"500 625 LINE",
"625 625 LINE",
"625 563 LINE",
"625 500 LINE",
"750 500 LINE",
"875 500 LINE",
"875 563 LINE",
"875 625 LINE",
"813 625 LINE",
"750 625 LINE",
"750 750 LINE",
"750 875 LINE",
"688 875 LINE",
"625 875 LINE",
"625 938 LINE",
"625 1000 LINE",
"438 1000 LINE",
"250 1000 LINE",
"250 938 LINE",
"250 875 LINE",
"188 875 LINE",
"125 875 LINE",
"125 813 LINE",
"125 750 LINE",
"188 750 LINE",
"250 750 LINE",
"250 688 LINE",
"250 625 LINE",
"188 625 LINE",
"125 625 LINE",
"125 563 LINE",
"125 500 LINE",
"63 500 LINE",
"0 500 LINE",
"0 438 LINE",
"0 375 LINE",
"63 375 LINE",
"125 375 LINE",
"125 313 LINE",
"125 250 LINE",
"188 250 LINE",
"250 250 LINE",
"250 188 LINE",
"250 125 LINE"
);
},
{
closed = 1;
nodes = (
"375 813 LINE",
"375 875 LINE",
"438 875 LINE",
"500 875 LINE",
"500 813 LINE",
"500 750 LINE",
"438 750 LINE",
"375 750 LINE"
);
}
);
width = 1000;
}
);
unicode = 0108;
},
{
glyphname = Cdotaccent;
layers = (
{
layerId = UUID0;
paths = (
{
closed = 1;
nodes = (
"500 125 LINE",
"750 125 LINE",
"750 188 LINE",
"750 250 LINE",
"813 250 LINE",
"875 250 LINE",
"875 313 LINE",
"875 375 LINE",
"750 375 LINE",
"625 375 LINE",
"625 313 LINE",
"625 250 LINE",
"500 250 LINE",
"375 250 LINE",
"375 313 LINE",
"375 375 LINE",
"313 375 LINE",
"250 375 LINE",
"250 438 LINE",
"250 500 LINE",
"313 500 LINE",
"375 500 LINE",
"375 563 LINE",
"375 625 LINE",
"500 625 LINE",
"625 625 LINE",
"625 563 LINE",
"625 500 LINE",
"750 500 LINE",
"875 500 LINE",
"875 563 LINE",
"875 625 LINE",
"813 625 LINE",
"750 625 LINE",
"750 688 LINE",
"750 750 LINE",
"500 750 LINE",
"250 750 LINE",
"250 688 LINE",
"250 625 LINE",
"188 625 LINE",
"125 625 LINE",
"125 563 LINE",
"125 500 LINE",
"63 500 LINE",
"0 500 LINE",
"0 438 LINE",
"0 375 LINE",
"63 375 LINE",
"125 375 LINE",
"125 313 LINE",
"125 250 LINE",
"188 250 LINE",
"250 250 LINE",
"250 188 LINE",
"250 125 LINE"
);
},
{
closed = 1;
nodes = (
"500 875 LINE",
"625 875 LINE",
"625 938 LINE",
"625 1000 LINE",
"500 1000 LINE",
"375 1000 LINE",
"375 938 LINE",
"375 875 LINE"
);
}
);
width = 1000;
}
);
unicode = 010A;
},
{
glyphname = D;
layers = (
{
layerId = UUID0;
paths = (
{
closed = 1;
nodes = (
"313 125 LINE",
"625 125 LINE",
"625 188 LINE",
"625 250 LINE",
"688 250 LINE",
"750 250 LINE",
"750 313 LINE",
"750 375 LINE",
"813 375 LINE",
"875 375 LINE",
"875 563 LINE",
"875 750 LINE",
"813 750 LINE",
"750 750 LINE",
"750 813 LINE",
"750 875 LINE",
"688 875 LINE",
"625 875 LINE",
"625 938 LINE",
"625 1000 LINE",
"313 1000 LINE",
"0 1000 LINE",
"0 563 LINE",
"0 125 LINE"
);
},
{
closed = 1;
nodes = (
"250 563 LINE",
"250 875 LINE",
"375 875 LINE",
"500 875 LINE",
"500 813 LINE",
"500 750 LINE",
"563 750 LINE",
"625 750 LINE",
"625 563 LINE",
"625 375 LINE",
"563 375 LINE",
"500 375 LINE",
"500 313 LINE",
"500 250 LINE",
"375 250 LINE",
"250 250 LINE"
);
}
);
width = 1000;
}
);
unicode = 0044;
},
{
glyphname = Eth;
layers = (
{
layerId = UUID0;
paths = (
{
closed = 1;
nodes = (
"375 125 LINE",
"625 125 LINE",
"625 188 LINE",
"625 250 LINE",
"688 250 LINE",
"750 250 LINE",
"750 313 LINE",
"750 375 LINE",
"813 375 LINE",
"875 375 LINE",
"875 563 LINE",
"875 750 LINE",
"813 750 LINE",
"750 750 LINE",
"750 813 LINE",
"750 875 LINE",
"688 875 LINE",
"625 875 LINE",
"625 938 LINE",
"625 1000 LINE",
"375 1000 LINE",
"125 1000 LINE",
"125 813 LINE",
"125 625 LINE",
"63 625 LINE",
"0 625 LINE",
"0 563 LINE",
"0 500 LINE",
"63 500 LINE",
"125 500 LINE",
"125 313 LINE",
"125 125 LINE"
);
},
{
closed = 1;
nodes = (
"375 375 LINE",
"375 500 LINE",
"438 500 LINE",
"500 500 LINE",
"500 563 LINE",
"500 625 LINE",
"438 625 LINE",
"375 625 LINE",
"375 750 LINE",
"375 875 LINE",
"438 875 LINE",
"500 875 LINE",
"500 813 LINE",
"500 750 LINE",
"563 750 LINE",
"625 750 LINE",
"625 563 LINE",
"625 375 LINE",
"563 375 LINE",
"500 375 LINE",
"500 313 LINE",
"500 250 LINE",
"438 250 LINE",
"375 250 LINE"
);
}
);
width = 1000;
}
);
unicode = 00D0;
},
{
color = 8;
glyphname = Dcaron;
layers = (
{
layerId = UUID0;
paths = (
{
closed = 1;
nodes = (
"313 125 LINE",
"625 125 LINE",
"625 188 LINE",
"625 250 LINE",
"688 250 LINE",
"750 250 LINE",
"750 313 LINE",
"750 375 LINE",
"813 375 LINE",
"875 375 LINE",
"875 438 LINE",
"875 500 LINE",
"813 500 LINE",
"750 500 LINE",
"750 563 LINE",
"750 625 LINE",
"688 625 LINE",
"625 625 LINE",
"625 750 LINE",
"625 875 LINE",
"688 875 LINE",
"750 875 LINE",
"750 938 LINE",
"750 1000 LINE",
"625 1000 LINE",
"500 1000 LINE",
"500 938 LINE",
"500 875 LINE",
"438 875 LINE",
"375 875 LINE",
"375 938 LINE",
"375 1000 LINE",
"250 1000 LINE",
"125 1000 LINE",
"125 938 LINE",
"125 875 LINE",
"188 875 LINE",
"250 875 LINE",
"250 813 LINE",
"250 750 LINE",
"125 750 LINE",
"0 750 LINE",
"0 438 LINE",
"0 125 LINE"
);
},
{
closed = 1;
nodes = (
"250 438 LINE",
"250 625 LINE",
"375 625 LINE",
"500 625 LINE",
"500 563 LINE",
"500 500 LINE",
"563 500 LINE",
"625 500 LINE",
"625 438 LINE",
"625 375 LINE",
"563 375 LINE",
"500 375 LINE",
"500 313 LINE",
"500 250 LINE",
"375 250 LINE",
"250 250 LINE"
);
}
);
width = 1000;
}
);
unicode = 010E;
},
{
glyphname = Dcroat;
layers = (
{
layerId = UUID0;
paths = (
{
closed = 1;
nodes = (
"375 125 LINE",
"625 125 LINE",
"625 188 LINE",
"625 250 LINE",
"688 250 LINE",
"750 250 LINE",
"750 313 LINE",
"750 375 LINE",
"813 375 LINE",
"875 375 LINE",
"875 563 LINE",
"875 750 LINE",
"813 750 LINE",
"750 750 LINE",
"750 813 LINE",
"750 875 LINE",
"688 875 LINE",
"625 875 LINE",
"625 938 LINE",
"625 1000 LINE",
"375 1000 LINE",
"125 1000 LINE",
"125 813 LINE",
"125 625 LINE",
"63 625 LINE",
"0 625 LINE",
"0 563 LINE",
"0 500 LINE",
"63 500 LINE",
"125 500 LINE",
"125 313 LINE",
"125 125 LINE"
);
},
{
closed = 1;
nodes = (
"375 375 LINE",
"375 500 LINE",
"438 500 LINE",
"500 500 LINE",
"500 563 LINE",
"500 625 LINE",
"438 625 LINE",
"375 625 LINE",
"375 750 LINE",
"375 875 LINE",
"438 875 LINE",
"500 875 LINE",
"500 813 LINE",
"500 750 LINE",
"563 750 LINE",
"625 750 LINE",
"625 563 LINE",
"625 375 LINE",
"563 375 LINE",
"500 375 LINE",
"500 313 LINE",
"500 250 LINE",
"438 250 LINE",
"375 250 LINE"
);
}
);
width = 1000;
}
);
unicode = 0110;
},
{
glyphname = E;
layers = (
{
layerId = UUID0;
paths = (
{
closed = 1;
nodes = (
"438 125 LINE",
"875 125 LINE",
"875 188 LINE",
"875 250 LINE",
"563 250 LINE",
"250 250 LINE",
"250 375 LINE",
"250 500 LINE",
"500 500 LINE",
"750 500 LINE",
"750 563 LINE",
"750 625 LINE",
"500 625 LINE",
"250 625 LINE",
"250 750 LINE",
"250 875 LINE",
"563 875 LINE",
"875 875 LINE",
"875 938 LINE",
"875 1000 LINE",
"438 1000 LINE",
"0 1000 LINE",
"0 563 LINE",
"0 125 LINE"
);
}
);
width = 1000;
}
);
unicode = 0045;
},
{
glyphname = Eacute;
layers = (
{
layerId = UUID0;
paths = (
{
closed = 1;
nodes = (
"438 125 LINE",
"875 125 LINE",
"875 188 LINE",
"875 250 LINE",
"563 250 LINE",
"250 250 LINE",
"250 313 LINE",
"250 375 LINE",
"500 375 LINE",
"750 375 LINE",
"750 438 LINE",
"750 500 LINE",
"500 500 LINE",
"250 500 LINE",
"250 563 LINE",
"250 625 LINE",
"563 625 LINE",
"875 625 LINE",
"875 688 LINE",
"875 750 LINE",
"688 750 LINE",
"500 750 LINE",
"500 813 LINE",
"500 875 LINE",
"563 875 LINE",
"625 875 LINE",
"625 938 LINE",
"625 1000 LINE",
"563 1000 LINE",
"500 1000 LINE",
"500 938 LINE",
"500 875 LINE",
"438 875 LINE",
"375 875 LINE",
"375 813 LINE",
"375 750 LINE",
"188 750 LINE",
"0 750 LINE",
"0 438 LINE",
"0 125 LINE"
);
}
);
width = 1000;
}
);
unicode = 00C9;
},
{
color = 8;
glyphname = Ebreve;
layers = (
{
layerId = UUID0;
paths = (
{
closed = 1;
nodes = (
"438 125 LINE",
"875 125 LINE",
"875 188 LINE",
"875 250 LINE",
"563 250 LINE",
"250 250 LINE",
"250 313 LINE",
"250 375 LINE",
"500 375 LINE",
"750 375 LINE",
"750 438 LINE",
"750 500 LINE",
"500 500 LINE",
"250 500 LINE",
"250 563 LINE",
"250 625 LINE",
"563 625 LINE",
"875 625 LINE",
"875 688 LINE",
"875 750 LINE",
"750 750 LINE",
"625 750 LINE",
"625 813 LINE",
"625 875 LINE",
"688 875 LINE",
"750 875 LINE",
"750 938 LINE",
"750 1000 LINE",
"688 1000 LINE",
"625 1000 LINE",
"625 938 LINE",
"625 875 LINE",
"438 875 LINE",
"250 875 LINE",
"250 938 LINE",
"250 1000 LINE",
"188 1000 LINE",
"125 1000 LINE",
"125 938 LINE",
"125 875 LINE",
"188 875 LINE",
"250 875 LINE",
"250 813 LINE",
"250 750 LINE",
"125 750 LINE",
"0 750 LINE",
"0 438 LINE",
"0 125 LINE"
);
}
);
width = 1000;
}
);
unicode = 0114;
},
{
color = 8;
glyphname = Ecaron;
layers = (
{
layerId = UUID0;
paths = (
{
closed = 1;
nodes = (
"438 125 LINE",
"875 125 LINE",
"875 188 LINE",
"875 250 LINE",
"563 250 LINE",
"250 250 LINE",
"250 313 LINE",
"250 375 LINE",
"500 375 LINE",
"750 375 LINE",
"750 438 LINE",
"750 500 LINE",
"500 500 LINE",
"250 500 LINE",
"250 563 LINE",
"250 625 LINE",
"563 625 LINE",
"875 625 LINE",
"875 688 LINE",
"875 750 LINE",
"750 750 LINE",
"625 750 LINE",
"625 813 LINE",
"625 875 LINE",
"688 875 LINE",
"750 875 LINE",
"750 938 LINE",
"750 1000 LINE",
"625 1000 LINE",
"500 1000 LINE",
"500 938 LINE",
"500 875 LINE",
"438 875 LINE",
"375 875 LINE",
"375 938 LINE",
"375 1000 LINE",
"250 1000 LINE",
"125 1000 LINE",
"125 938 LINE",
"125 875 LINE",
"188 875 LINE",
"250 875 LINE",
"250 813 LINE",
"250 750 LINE",
"125 750 LINE",
"0 750 LINE",
"0 438 LINE",
"0 125 LINE"
);
}
);
width = 1000;
}
);
unicode = 011A;
},
{
color = 8;
glyphname = Ecircumflex;
layers = (
{
layerId = UUID0;
paths = (
{
closed = 1;
nodes = (
"438 125 LINE",
"875 125 LINE",
"875 188 LINE",
"875 250 LINE",
"563 250 LINE",
"250 250 LINE",
"250 313 LINE",
"250 375 LINE",
"500 375 LINE",
"750 375 LINE",
"750 438 LINE",
"750 500 LINE",
"500 500 LINE",
"250 500 LINE",
"250 563 LINE",
"250 625 LINE",
"563 625 LINE",
"875 625 LINE",
"875 688 LINE",
"875 750 LINE",
"813 750 LINE",
"750 750 LINE",
"750 813 LINE",
"750 875 LINE",
"688 875 LINE",
"625 875 LINE",
"625 938 LINE",
"625 1000 LINE",
"438 1000 LINE",
"250 1000 LINE",
"250 938 LINE",
"250 875 LINE",
"188 875 LINE",
"125 875 LINE",
"125 813 LINE",
"125 750 LINE",
"63 750 LINE",
"0 750 LINE",
"0 438 LINE",
"0 125 LINE"
);
},
{
closed = 1;
nodes = (
"375 813 LINE",
"375 875 LINE",
"438 875 LINE",
"500 875 LINE",
"500 813 LINE",
"500 750 LINE",
"438 750 LINE",
"375 750 LINE"
);
}
);
width = 1000;
}
);
unicode = 00CA;
},
{
glyphname = Edieresis;
layers = (
{
layerId = UUID0;
paths = (
{
closed = 1;
nodes = (
"438 125 LINE",
"875 125 LINE",
"875 188 LINE",
"875 250 LINE",
"563 250 LINE",
"250 250 LINE",
"250 313 LINE",
"250 375 LINE",
"500 375 LINE",
"750 375 LINE",
"750 438 LINE",
"750 500 LINE",
"500 500 LINE",
"250 500 LINE",
"250 563 LINE",
"250 625 LINE",
"563 625 LINE",
"875 625 LINE",
"875 688 LINE",
"875 750 LINE",
"438 750 LINE",
"0 750 LINE",
"0 438 LINE",
"0 125 LINE"
);
},
{
closed = 1;
nodes = (
"250 875 LINE",
"375 875 LINE",
"375 938 LINE",
"375 1000 LINE",
"250 1000 LINE",
"125 1000 LINE",
"125 938 LINE",
"125 875 LINE"
);
},
{
closed = 1;
nodes = (
"625 875 LINE",
"750 875 LINE",
"750 938 LINE",
"750 1000 LINE",
"625 1000 LINE",
"500 1000 LINE",
"500 938 LINE",
"500 875 LINE"
);
}
);
width = 1000;
}
);
unicode = 00CB;
},
{
glyphname = Edotaccent;
layers = (
{
layerId = UUID0;
paths = (
{
closed = 1;
nodes = (
"438 125 LINE",
"875 125 LINE",
"875 188 LINE",
"875 250 LINE",
"563 250 LINE",
"250 250 LINE",
"250 313 LINE",
"250 375 LINE",
"500 375 LINE",
"750 375 LINE",
"750 438 LINE",
"750 500 LINE",
"500 500 LINE",
"250 500 LINE",
"250 563 LINE",
"250 625 LINE",
"563 625 LINE",
"875 625 LINE",
"875 688 LINE",
"875 750 LINE",
"438 750 LINE",
"0 750 LINE",
"0 438 LINE",
"0 125 LINE"
);
},
{
closed = 1;
nodes = (
"500 875 LINE",
"625 875 LINE",
"625 938 LINE",
"625 1000 LINE",
"500 1000 LINE",
"375 1000 LINE",
"375 938 LINE",
"375 875 LINE"
);
}
);
width = 1000;
}
);
unicode = 0116;
},
{
glyphname = Egrave;
layers = (
{
layerId = UUID0;
paths = (
{
closed = 1;
nodes = (
"438 125 LINE",
"875 125 LINE",
"875 188 LINE",
"875 250 LINE",
"563 250 LINE",
"250 250 LINE",
"250 313 LINE",
"250 375 LINE",
"500 375 LINE",
"750 375 LINE",
"750 438 LINE",
"750 500 LINE",
"500 500 LINE",
"250 500 LINE",
"250 563 LINE",
"250 625 LINE",
"563 625 LINE",
"875 625 LINE",
"875 688 LINE",
"875 750 LINE",
"688 750 LINE",
"500 750 LINE",
"500 813 LINE",
"500 875 LINE",
"438 875 LINE",
"375 875 LINE",
"375 938 LINE",
"375 1000 LINE",
"313 1000 LINE",
"250 1000 LINE",
"250 938 LINE",
"250 875 LINE",
"313 875 LINE",
"375 875 LINE",
"375 813 LINE",
"375 750 LINE",
"188 750 LINE",
"0 750 LINE",
"0 438 LINE",
"0 125 LINE"
);
}
);
width = 1000;
}
);
unicode = 00C8;
},
{
glyphname = Emacron;
layers = (
{
layerId = UUID0;
paths = (
{
closed = 1;
nodes = (
"438 125 LINE",
"875 125 LINE",
"875 188 LINE",
"875 250 LINE",
"563 250 LINE",
"250 250 LINE",
"250 313 LINE",
"250 375 LINE",
"500 375 LINE",
"750 375 LINE",
"750 438 LINE",
"750 500 LINE",
"500 500 LINE",
"250 500 LINE",
"250 563 LINE",
"250 625 LINE",
"563 625 LINE",
"875 625 LINE",
"875 688 LINE",
"875 750 LINE",
"438 750 LINE",
"0 750 LINE",
"0 438 LINE",
"0 125 LINE"
);
},
{
closed = 1;
nodes = (
"438 875 LINE",
"750 875 LINE",
"750 938 LINE",
"750 1000 LINE",
"438 1000 LINE",
"125 1000 LINE",
"125 938 LINE",
"125 875 LINE"
);
}
);
width = 1000;
}
);
unicode = 0112;
},
{
glyphname = Eogonek;
layers = (
{
layerId = UUID0;
paths = (
{
closed = 1;
nodes = (
"500 0 LINE",
"625 0 LINE",
"625 63 LINE",
"625 125 LINE",
"500 125 LINE",
"375 125 LINE",
"375 188 LINE",
"375 250 LINE",
"438 250 LINE",
"500 250 LINE",
"500 313 LINE",
"500 375 LINE",
"688 375 LINE",
"875 375 LINE",
"875 438 LINE",
"875 500 LINE",
"563 500 LINE",
"250 500 LINE",
"250 563 LINE",
"250 625 LINE",
"500 625 LINE",
"750 625 LINE",
"750 688 LINE",
"750 750 LINE",
"500 750 LINE",
"250 750 LINE",
"250 813 LINE",
"250 875 LINE",
"563 875 LINE",
"875 875 LINE",
"875 938 LINE",
"875 1000 LINE",
"438 1000 LINE",
"0 1000 LINE",
"0 688 LINE",
"0 375 LINE",
"188 375 LINE",
"375 375 LINE",
"375 313 LINE",
"375 250 LINE",
"313 250 LINE",
"250 250 LINE",
"250 188 LINE",
"250 125 LINE",
"313 125 LINE",
"375 125 LINE",
"375 63 LINE",
"375 0 LINE"
);
}
);
width = 1000;
}
);
unicode = 0118;
},
{
glyphname = F;
layers = (
{
layerId = UUID0;
paths = (
{
closed = 1;
nodes = (
"125 125 LINE",
"250 125 LINE",
"250 313 LINE",
"250 500 LINE",
"500 500 LINE",
"750 500 LINE",
"750 563 LINE",
"750 625 LINE",
"500 625 LINE",
"250 625 LINE",
"250 750 LINE",
"250 875 LINE",
"563 875 LINE",
"875 875 LINE",
"875 938 LINE",
"875 1000 LINE",
"438 1000 LINE",
"0 1000 LINE",
"0 563 LINE",
"0 125 LINE"
);
}
);
width = 1000;
}
);
unicode = 0046;
},
{
glyphname = G;
layers = (
{
layerId = UUID0;
paths = (
{
closed = 1;
nodes = (
"563 125 LINE",
"875 125 LINE",
"875 375 LINE",
"875 625 LINE",
"688 625 LINE",
"500 625 LINE",
"500 563 LINE",
"500 500 LINE",
"563 500 LINE",
"625 500 LINE",
"625 375 LINE",
"625 250 LINE",
"500 250 LINE",
"375 250 LINE",
"375 313 LINE",
"375 375 LINE",
"313 375 LINE",
"250 375 LINE",
"250 563 LINE",
"250 750 LINE",
"313 750 LINE",
"375 750 LINE",
"375 813 LINE",
"375 875 LINE",
"625 875 LINE",
"875 875 LINE",
"875 938 LINE",
"875 1000 LINE",
"563 1000 LINE",
"250 1000 LINE",
"250 938 LINE",
"250 875 LINE",
"188 875 LINE",
"125 875 LINE",
"125 813 LINE",
"125 750 LINE",
"63 750 LINE",
"0 750 LINE",
"0 563 LINE",
"0 375 LINE",
"63 375 LINE",
"125 375 LINE",
"125 313 LINE",
"125 250 LINE",
"188 250 LINE",
"250 250 LINE",
"250 188 LINE",
"250 125 LINE"
);
}
);
width = 1000;
}
);
unicode = 0047;
},
{
color = 8;
glyphname = Gbreve;
layers = (
{
layerId = UUID0;
paths = (
{
closed = 1;
nodes = (
"500 125 LINE",
"875 125 LINE",
"875 313 LINE",
"875 500 LINE",
"688 500 LINE",
"500 500 LINE",
"500 438 LINE",
"500 375 LINE",
"563 375 LINE",
"625 375 LINE",
"625 313 LINE",
"625 250 LINE",
"438 250 LINE",
"250 250 LINE",
"250 438 LINE",
"250 625 LINE",
"563 625 LINE",
"875 625 LINE",
"875 688 LINE",
"875 750 LINE",
"750 750 LINE",
"625 750 LINE",
"625 813 LINE",
"625 875 LINE",
"688 875 LINE",
"750 875 LINE",
"750 938 LINE",
"750 1000 LINE",
"688 1000 LINE",
"625 1000 LINE",
"625 938 LINE",
"625 875 LINE",
"438 875 LINE",
"250 875 LINE",
"250 938 LINE",
"250 1000 LINE",
"188 1000 LINE",
"125 1000 LINE",
"125 938 LINE",
"125 875 LINE",
"188 875 LINE",
"250 875 LINE",
"250 813 LINE",
"250 750 LINE",
"188 750 LINE",
"125 750 LINE",
"125 688 LINE",
"125 625 LINE",
"63 625 LINE",
"0 625 LINE",
"0 438 LINE",
"0 250 LINE",
"63 250 LINE",
"125 250 LINE",
"125 188 LINE",
"125 125 LINE"
);
}
);
width = 1000;
}
);
unicode = 011E;
},
{
color = 8;
glyphname = Gcircumflex;
layers = (
{
layerId = UUID0;
paths = (
{
closed = 1;
nodes = (
"500 125 LINE",
"875 125 LINE",
"875 313 LINE",
"875 500 LINE",
"688 500 LINE",
"500 500 LINE",
"500 438 LINE",
"500 375 LINE",
"563 375 LINE",
"625 375 LINE",
"625 313 LINE",
"625 250 LINE",
"438 250 LINE",
"250 250 LINE",
"250 438 LINE",
"250 625 LINE",
"563 625 LINE",
"875 625 LINE",
"875 688 LINE",
"875 750 LINE",
"813 750 LINE",
"750 750 LINE",
"750 813 LINE",
"750 875 LINE",
"688 875 LINE",
"625 875 LINE",
"625 938 LINE",
"625 1000 LINE",
"438 1000 LINE",
"250 1000 LINE",
"250 938 LINE",
"250 875 LINE",
"188 875 LINE",
"125 875 LINE",
"125 750 LINE",
"125 625 LINE",
"63 625 LINE",
"0 625 LINE",
"0 438 LINE",
"0 250 LINE",
"63 250 LINE",
"125 250 LINE",
"125 188 LINE",
"125 125 LINE"
);
},
{
closed = 1;
nodes = (
"375 813 LINE",
"375 875 LINE",
"438 875 LINE",
"500 875 LINE",
"500 813 LINE",
"500 750 LINE",
"438 750 LINE",
"375 750 LINE"
);
}
);
width = 1000;
}
);
unicode = 011C;
},
{
glyphname = Gcommaaccent;
layers = (
{
layerId = UUID0;
paths = (
{
closed = 1;
nodes = (
"375 0 LINE",
"500 0 LINE",
"500 63 LINE",
"500 125 LINE",
"563 125 LINE",
"625 125 LINE",
"625 188 LINE",
"625 250 LINE",
"750 250 LINE",
"875 250 LINE",
"875 438 LINE",
"875 625 LINE",
"688 625 LINE",
"500 625 LINE",
"500 563 LINE",
"500 500 LINE",
"563 500 LINE",
"625 500 LINE",
"625 438 LINE",
"625 375 LINE",
"500 375 LINE",
"375 375 LINE",
"375 438 LINE",
"375 500 LINE",
"313 500 LINE",
"250 500 LINE",
"250 625 LINE",
"250 750 LINE",
"313 750 LINE",
"375 750 LINE",
"375 813 LINE",
"375 875 LINE",
"625 875 LINE",
"875 875 LINE",
"875 938 LINE",
"875 1000 LINE",
"563 1000 LINE",
"250 1000 LINE",
"250 938 LINE",
"250 875 LINE",
"188 875 LINE",
"125 875 LINE",
"125 813 LINE",
"125 750 LINE",
"63 750 LINE",
"0 750 LINE",
"0 625 LINE",
"0 500 LINE",
"63 500 LINE",
"125 500 LINE",
"125 438 LINE",
"125 375 LINE",
"188 375 LINE",
"250 375 LINE",
"250 313 LINE",
"250 250 LINE",
"313 250 LINE",
"375 250 LINE",
"375 188 LINE",
"375 125 LINE",
"313 125 LINE",
"250 125 LINE",
"250 63 LINE",
"250 0 LINE"
);
}
);
width = 1000;
}
);
unicode = 0122;
},
{
glyphname = Gdotaccent;
layers = (
{
layerId = UUID0;
paths = (
{
closed = 1;
nodes = (
"500 125 LINE",
"875 125 LINE",
"875 313 LINE",
"875 500 LINE",
"688 500 LINE",
"500 500 LINE",
"500 438 LINE",
"500 375 LINE",
"563 375 LINE",
"625 375 LINE",
"625 313 LINE",
"625 250 LINE",
"438 250 LINE",
"250 250 LINE",
"250 438 LINE",
"250 625 LINE",
"563 625 LINE",
"875 625 LINE",
"875 688 LINE",
"875 750 LINE",
"500 750 LINE",
"125 750 LINE",
"125 688 LINE",
"125 625 LINE",
"63 625 LINE",
"0 625 LINE",
"0 438 LINE",
"0 250 LINE",
"63 250 LINE",
"125 250 LINE",
"125 188 LINE",
"125 125 LINE"
);
},
{
closed = 1;
nodes = (
"500 875 LINE",
"625 875 LINE",
"625 938 LINE",
"625 1000 LINE",
"500 1000 LINE",
"375 1000 LINE",
"375 938 LINE",
"375 875 LINE"
);
}
);
width = 1000;
}
);
unicode = 0120;
},
{
glyphname = H;
layers = (
{
layerId = UUID0;
paths = (
{
closed = 1;
nodes = (
"125 125 LINE",
"250 125 LINE",
"250 313 LINE",
"250 500 LINE",
"438 500 LINE",
"625 500 LINE",
"625 313 LINE",
"625 125 LINE",
"750 125 LINE",
"875 125 LINE",
"875 563 LINE",
"875 1000 LINE",
"750 1000 LINE",
"625 1000 LINE",
"625 813 LINE",
"625 625 LINE",
"438 625 LINE",
"250 625 LINE",
"250 813 LINE",
"250 1000 LINE",
"125 1000 LINE",
"0 1000 LINE",
"0 563 LINE",
"0 125 LINE"
);
}
);
width = 1000;
}
);
unicode = 0048;
},
{
glyphname = Hbar;
layers = (
{
layerId = UUID0;
paths = (
{
closed = 1;
nodes = (
"125 125 LINE",
"250 125 LINE",
"250 313 LINE",
"250 500 LINE",
"438 500 LINE",
"625 500 LINE",
"625 313 LINE",
"625 125 LINE",
"750 125 LINE",
"875 125 LINE",
"875 563 LINE",
"875 1000 LINE",
"750 1000 LINE",
"625 1000 LINE",
"625 938 LINE",
"625 875 LINE",
"438 875 LINE",
"250 875 LINE",
"250 938 LINE",
"250 1000 LINE",
"125 1000 LINE",
"0 1000 LINE",
"0 563 LINE",
"0 125 LINE"
);
},
{
closed = 1;
nodes = (
"250 688 LINE",
"250 750 LINE",
"438 750 LINE",
"625 750 LINE",
"625 688 LINE",
"625 625 LINE",
"438 625 LINE",
"250 625 LINE"
);
}
);
width = 1000;
}
);
unicode = 0126;
},
{
color = 8;
glyphname = Hcircumflex;
layers = (
{
layerId = UUID0;
paths = (
{
closed = 1;
nodes = (
"125 125 LINE",
"250 125 LINE",
"250 250 LINE",
"250 375 LINE",
"438 375 LINE",
"625 375 LINE",
"625 250 LINE",
"625 125 LINE",
"750 125 LINE",
"875 125 LINE",
"875 500 LINE",
"875 875 LINE",
"750 875 LINE",
"625 875 LINE",
"625 938 LINE",
"625 1000 LINE",
"438 1000 LINE",
"250 1000 LINE",
"250 938 LINE",
"250 875 LINE",
"125 875 LINE",
"0 875 LINE",
"0 500 LINE",
"0 125 LINE"
);
},
{
closed = 1;
nodes = (
"250 625 LINE",
"250 750 LINE",
"313 750 LINE",
"375 750 LINE",
"375 813 LINE",
"375 875 LINE",
"438 875 LINE",
"500 875 LINE",
"500 813 LINE",
"500 750 LINE",
"563 750 LINE",
"625 750 LINE",
"625 625 LINE",
"625 500 LINE",
"438 500 LINE",
"250 500 LINE"
);
}
);
width = 1000;
}
);
unicode = 0124;
},
{
glyphname = I;
layers = (
{
layerId = UUID0;
paths = (
{
closed = 1;
nodes = (
"500 125 LINE",
"875 125 LINE",
"875 188 LINE",
"875 250 LINE",
"750 250 LINE",
"625 250 LINE",
"625 563 LINE",
"625 875 LINE",
"750 875 LINE",
"875 875 LINE",
"875 938 LINE",
"875 1000 LINE",
"500 1000 LINE",
"125 1000 LINE",
"125 938 LINE",
"125 875 LINE",
"250 875 LINE",
"375 875 LINE",
"375 563 LINE",
"375 250 LINE",
"250 250 LINE",
"125 250 LINE",
"125 188 LINE",
"125 125 LINE"
);
}
);
width = 1000;
}
);
unicode = 0049;
},
{
glyphname = IJ;
layers = (
{
layerId = UUID0;
paths = (
{
closed = 1;
nodes = (
"438 125 LINE",
"750 125 LINE",
"750 188 LINE",
"750 250 LINE",
"813 250 LINE",
"875 250 LINE",
"875 625 LINE",
"875 1000 LINE",
"750 1000 LINE",
"625 1000 LINE",
"625 625 LINE",
"625 250 LINE",
"375 250 LINE",
"125 250 LINE",
"125 188 LINE",
"125 125 LINE"
);
},
{
closed = 1;
nodes = (
"250 375 LINE",
"500 375 LINE",
"500 438 LINE",
"500 500 LINE",
"438 500 LINE",
"375 500 LINE",
"375 688 LINE",
"375 875 LINE",
"438 875 LINE",
"500 875 LINE",
"500 938 LINE",
"500 1000 LINE",
"250 1000 LINE",
"0 1000 LINE",
"0 938 LINE",
"0 875 LINE",
"63 875 LINE",
"125 875 LINE",
"125 688 LINE",
"125 500 LINE",
"63 500 LINE",
"0 500 LINE",
"0 438 LINE",
"0 375 LINE"
);
}
);
width = 1000;
}
);
unicode = 0132;
},
{
color = 8;
glyphname = Iacute;
layers = (
{
layerId = UUID0;
paths = (
{
closed = 1;
nodes = (
"500 125 LINE",
"875 125 LINE",
"875 188 LINE",
"875 250 LINE",
"750 250 LINE",
"625 250 LINE",
"625 438 LINE",
"625 625 LINE",
"750 625 LINE",
"875 625 LINE",
"875 688 LINE",
"875 750 LINE",
"688 750 LINE",
"500 750 LINE",
"500 813 LINE",
"500 875 LINE",
"563 875 LINE",
"625 875 LINE",
"625 938 LINE",
"625 1000 LINE",
"563 1000 LINE",
"500 1000 LINE",
"500 938 LINE",
"500 875 LINE",
"438 875 LINE",
"375 875 LINE",
"375 813 LINE",
"375 750 LINE",
"250 750 LINE",
"125 750 LINE",
"125 688 LINE",
"125 625 LINE",
"250 625 LINE",
"375 625 LINE",
"375 438 LINE",
"375 250 LINE",
"250 250 LINE",
"125 250 LINE",
"125 188 LINE",
"125 125 LINE"
);
}
);
width = 1000;
}
);
unicode = 00CD;
},
{
color = 8;
glyphname = Ibreve;
layers = (
{
layerId = UUID0;
paths = (
{
closed = 1;
nodes = (
"500 125 LINE",
"875 125 LINE",
"875 188 LINE",
"875 250 LINE",
"750 250 LINE",
"625 250 LINE",
"625 438 LINE",
"625 625 LINE",
"750 625 LINE",
"875 625 LINE",
"875 688 LINE",
"875 750 LINE",
"750 750 LINE",
"625 750 LINE",
"625 813 LINE",
"625 875 LINE",
"688 875 LINE",
"750 875 LINE",
"750 938 LINE",
"750 1000 LINE",
"688 1000 LINE",
"625 1000 LINE",
"625 938 LINE",
"625 875 LINE",
"500 875 LINE",
"375 875 LINE",
"375 938 LINE",
"375 1000 LINE",
"313 1000 LINE",
"250 1000 LINE",
"250 938 LINE",
"250 875 LINE",
"313 875 LINE",
"375 875 LINE",
"375 813 LINE",
"375 750 LINE",
"250 750 LINE",
"125 750 LINE",
"125 688 LINE",
"125 625 LINE",
"250 625 LINE",
"375 625 LINE",
"375 438 LINE",
"375 250 LINE",
"250 250 LINE",
"125 250 LINE",
"125 188 LINE",
"125 125 LINE"
);
}
);
width = 1000;
}
);
unicode = 012C;
},
{
color = 8;
glyphname = Icircumflex;
layers = (
{
layerId = UUID0;
paths = (
{
closed = 1;
nodes = (
"500 125 LINE",
"875 125 LINE",
"875 188 LINE",
"875 250 LINE",
"750 250 LINE",
"625 250 LINE",
"625 438 LINE",
"625 625 LINE",
"750 625 LINE",
"875 625 LINE",
"875 688 LINE",
"875 750 LINE",
"813 750 LINE",
"750 750 LINE",
"750 813 LINE",
"750 875 LINE",
"688 875 LINE",
"625 875 LINE",
"625 938 LINE",
"625 1000 LINE",
"500 1000 LINE",
"375 1000 LINE",
"375 938 LINE",
"375 875 LINE",
"313 875 LINE",
"250 875 LINE",
"250 813 LINE",
"250 750 LINE",
"188 750 LINE",
"125 750 LINE",
"125 688 LINE",
"125 625 LINE",
"250 625 LINE",
"375 625 LINE",
"375 438 LINE",
"375 250 LINE",
"250 250 LINE",
"125 250 LINE",
"125 188 LINE",
"125 125 LINE"
);
}
);
width = 1000;
}
);
unicode = 00CE;
},
{
glyphname = Idieresis;
layers = (
{
layerId = UUID0;
paths = (
{
closed = 1;
nodes = (
"500 125 LINE",
"875 125 LINE",
"875 188 LINE",
"875 250 LINE",
"750 250 LINE",
"625 250 LINE",
"625 438 LINE",
"625 625 LINE",
"750 625 LINE",
"875 625 LINE",
"875 688 LINE",
"875 750 LINE",
"500 750 LINE",
"125 750 LINE",
"125 688 LINE",
"125 625 LINE",
"250 625 LINE",
"375 625 LINE",
"375 438 LINE",
"375 250 LINE",
"250 250 LINE",
"125 250 LINE",
"125 188 LINE",
"125 125 LINE"
);
},
{
closed = 1;
nodes = (
"250 875 LINE",
"375 875 LINE",
"375 938 LINE",
"375 1000 LINE",
"250 1000 LINE",
"125 1000 LINE",
"125 938 LINE",
"125 875 LINE"
);
},
{
closed = 1;
nodes = (
"750 875 LINE",
"875 875 LINE",
"875 938 LINE",
"875 1000 LINE",
"750 1000 LINE",
"625 1000 LINE",
"625 938 LINE",
"625 875 LINE"
);
}
);
width = 1000;
}
);
unicode = 00CF;
},
{
glyphname = Idotaccent;
layers = (
{
layerId = UUID0;
paths = (
{
closed = 1;
nodes = (
"500 125 LINE",
"875 125 LINE",
"875 188 LINE",
"875 250 LINE",
"750 250 LINE",
"625 250 LINE",
"625 438 LINE",
"625 625 LINE",
"750 625 LINE",
"875 625 LINE",
"875 688 LINE",
"875 750 LINE",
"500 750 LINE",
"125 750 LINE",
"125 688 LINE",
"125 625 LINE",
"250 625 LINE",
"375 625 LINE",
"375 438 LINE",
"375 250 LINE",
"250 250 LINE",
"125 250 LINE",
"125 188 LINE",
"125 125 LINE"
);
},
{
closed = 1;
nodes = (
"500 875 LINE",
"625 875 LINE",
"625 938 LINE",
"625 1000 LINE",
"500 1000 LINE",
"375 1000 LINE",
"375 938 LINE",
"375 875 LINE"
);
}
);
width = 1000;
}
);
unicode = 0130;
},
{
glyphname = Igrave;
layers = (
{
layerId = UUID0;
paths = (
{
closed = 1;
nodes = (
"500 125 LINE",
"875 125 LINE",
"875 188 LINE",
"875 250 LINE",
"750 250 LINE",
"625 250 LINE",
"625 438 LINE",
"625 625 LINE",
"750 625 LINE",
"875 625 LINE",
"875 688 LINE",
"875 750 LINE",
"750 750 LINE",
"625 750 LINE",
"625 813 LINE",
"625 875 LINE",
"563 875 LINE",
"500 875 LINE",
"500 938 LINE",
"500 1000 LINE",
"438 1000 LINE",
"375 1000 LINE",
"375 938 LINE",
"375 875 LINE",
"438 875 LINE",
"500 875 LINE",
"500 813 LINE",
"500 750 LINE",
"313 750 LINE",
"125 750 LINE",
"125 688 LINE",
"125 625 LINE",
"250 625 LINE",
"375 625 LINE",
"375 438 LINE",
"375 250 LINE",
"250 250 LINE",
"125 250 LINE",
"125 188 LINE",
"125 125 LINE"
);
}
);
width = 1000;
}
);
unicode = 00CC;
},
{
glyphname = Imacron;
layers = (
{
layerId = UUID0;
paths = (
{
closed = 1;
nodes = (
"500 125 LINE",
"875 125 LINE",
"875 188 LINE",
"875 250 LINE",
"750 250 LINE",
"625 250 LINE",
"625 438 LINE",
"625 625 LINE",
"750 625 LINE",
"875 625 LINE",
"875 688 LINE",
"875 750 LINE",
"500 750 LINE",
"125 750 LINE",
"125 688 LINE",
"125 625 LINE",
"250 625 LINE",
"375 625 LINE",
"375 438 LINE",
"375 250 LINE",
"250 250 LINE",
"125 250 LINE",
"125 188 LINE",
"125 125 LINE"
);
},
{
closed = 1;
nodes = (
"500 875 LINE",
"875 875 LINE",
"875 938 LINE",
"875 1000 LINE",
"500 1000 LINE",
"125 1000 LINE",
"125 938 LINE",
"125 875 LINE"
);
}
);
width = 1000;
}
);
unicode = 012A;
},
{
glyphname = Iogonek;
layers = (
{
layerId = UUID0;
paths = (
{
closed = 1;
nodes = (
"500 0 LINE",
"625 0 LINE",
"625 63 LINE",
"625 125 LINE",
"500 125 LINE",
"375 125 LINE",
"375 188 LINE",
"375 250 LINE",
"438 250 LINE",
"500 250 LINE",
"500 313 LINE",
"500 375 LINE",
"688 375 LINE",
"875 375 LINE",
"875 438 LINE",
"875 500 LINE",
"750 500 LINE",
"625 500 LINE",
"625 688 LINE",
"625 875 LINE",
"750 875 LINE",
"875 875 LINE",
"875 938 LINE",
"875 1000 LINE",
"500 1000 LINE",
"125 1000 LINE",
"125 938 LINE",
"125 875 LINE",
"250 875 LINE",
"375 875 LINE",
"375 688 LINE",
"375 500 LINE",
"250 500 LINE",
"125 500 LINE",
"125 438 LINE",
"125 375 LINE",
"250 375 LINE",
"375 375 LINE",
"375 313 LINE",
"375 250 LINE",
"313 250 LINE",
"250 250 LINE",
"250 188 LINE",
"250 125 LINE",
"313 125 LINE",
"375 125 LINE",
"375 63 LINE",
"375 0 LINE"
);
}
);
width = 1000;
}
);
unicode = 012E;
},
{
color = 8;
glyphname = Itilde;
layers = (
{
layerId = UUID0;
paths = (
{
closed = 1;
nodes = (
"500 125 LINE",
"875 125 LINE",
"875 188 LINE",
"875 250 LINE",
"750 250 LINE",
"625 250 LINE",
"625 438 LINE",
"625 625 LINE",
"750 625 LINE",
"875 625 LINE",
"875 688 LINE",
"875 750 LINE",
"813 750 LINE",
"750 750 LINE",
"750 813 LINE",
"750 875 LINE",
"813 875 LINE",
"875 875 LINE",
"875 938 LINE",
"875 1000 LINE",
"813 1000 LINE",
"750 1000 LINE",
"750 938 LINE",
"750 875 LINE",
"625 875 LINE",
"500 875 LINE",
"500 938 LINE",
"500 1000 LINE",
"375 1000 LINE",
"250 1000 LINE",
"250 938 LINE",
"250 875 LINE",
"188 875 LINE",
"125 875 LINE",
"125 750 LINE",
"125 625 LINE",
"250 625 LINE",
"375 625 LINE",
"375 438 LINE",
"375 250 LINE",
"250 250 LINE",
"125 250 LINE",
"125 188 LINE",
"125 125 LINE"
);
},
{
closed = 1;
nodes = (
"250 813 LINE",
"250 875 LINE",
"375 875 LINE",
"500 875 LINE",
"500 813 LINE",
"500 750 LINE",
"375 750 LINE",
"250 750 LINE"
);
}
);
width = 1000;
}
);
unicode = 0128;
},
{
glyphname = J;
layers = (
{
layerId = UUID0;
paths = (
{
closed = 1;
nodes = (
"438 125 LINE",
"750 125 LINE",
"750 188 LINE",
"750 250 LINE",
"813 250 LINE",
"875 250 LINE",
"875 625 LINE",
"875 1000 LINE",
"750 1000 LINE",
"625 1000 LINE",
"625 625 LINE",
"625 250 LINE",
"438 250 LINE",
"250 250 LINE",
"250 313 LINE",
"250 375 LINE",
"125 375 LINE",
"0 375 LINE",
"0 313 LINE",
"0 250 LINE",
"63 250 LINE",
"125 250 LINE",
"125 188 LINE",
"125 125 LINE"
);
}
);
width = 1000;
}
);
unicode = 004A;
},
{
color = 8;
glyphname = Jcircumflex;
layers = (
{
layerId = UUID0;
paths = (
{
closed = 1;
nodes = (
"438 125 LINE",
"750 125 LINE",
"750 188 LINE",
"750 250 LINE",
"813 250 LINE",
"875 250 LINE",
"875 563 LINE",
"875 875 LINE",
"813 875 LINE",
"750 875 LINE",
"750 938 LINE",
"750 1000 LINE",
"563 1000 LINE",
"375 1000 LINE",
"375 938 LINE",
"375 875 LINE",
"313 875 LINE",
"250 875 LINE",
"250 813 LINE",
"250 750 LINE",
"375 750 LINE",
"500 750 LINE",
"500 813 LINE",
"500 875 LINE",
"563 875 LINE",
"625 875 LINE",
"625 563 LINE",
"625 250 LINE",
"438 250 LINE",
"250 250 LINE",
"250 313 LINE",
"250 375 LINE",
"125 375 LINE",
"0 375 LINE",
"0 313 LINE",
"0 250 LINE",
"63 250 LINE",
"125 250 LINE",
"125 188 LINE",
"125 125 LINE"
);
}
);
width = 1000;
}
);
unicode = 0134;
},
{
glyphname = K;
layers = (
{
layerId = UUID0;
paths = (
{
closed = 1;
nodes = (
"125 125 LINE",
"250 125 LINE",
"250 250 LINE",
"250 375 LINE",
"313 375 LINE",
"375 375 LINE",
"375 313 LINE",
"375 250 LINE",
"438 250 LINE",
"500 250 LINE",
"500 188 LINE",
"500 125 LINE",
"688 125 LINE",
"875 125 LINE",
"875 188 LINE",
"875 250 LINE",
"813 250 LINE",
"750 250 LINE",
"750 313 LINE",
"750 375 LINE",
"688 375 LINE",
"625 375 LINE",
"625 438 LINE",
"625 500 LINE",
"563 500 LINE",
"500 500 LINE",
"500 563 LINE",
"500 625 LINE",
"563 625 LINE",
"625 625 LINE",
"625 688 LINE",
"625 750 LINE",
"688 750 LINE",
"750 750 LINE",
"750 813 LINE",
"750 875 LINE",
"813 875 LINE",
"875 875 LINE",
"875 938 LINE",
"875 1000 LINE",
"750 1000 LINE",
"625 1000 LINE",
"625 938 LINE",
"625 875 LINE",
"563 875 LINE",
"500 875 LINE",
"500 813 LINE",
"500 750 LINE",
"438 750 LINE",
"375 750 LINE",
"375 688 LINE",
"375 625 LINE",
"313 625 LINE",
"250 625 LINE",
"250 813 LINE",
"250 1000 LINE",
"125 1000 LINE",
"0 1000 LINE",
"0 563 LINE",
"0 125 LINE"
);
}
);
width = 1000;
}
);
unicode = 004B;
},
{
glyphname = Kcommaaccent;
layers = (
{
layerId = UUID0;
paths = (
{
closed = 1;
nodes = (
"250 0 LINE",
"375 0 LINE",
"375 63 LINE",
"375 125 LINE",
"438 125 LINE",
"500 125 LINE",
"500 188 LINE",
"500 250 LINE",
"688 250 LINE",
"875 250 LINE",
"875 313 LINE",
"875 375 LINE",
"813 375 LINE",
"750 375 LINE",
"750 438 LINE",
"750 500 LINE",
"688 500 LINE",
"625 500 LINE",
"625 563 LINE",
"625 625 LINE",
"563 625 LINE",
"500 625 LINE",
"500 688 LINE",
"500 750 LINE",
"563 750 LINE",
"625 750 LINE",
"625 813 LINE",
"625 875 LINE",
"688 875 LINE",
"750 875 LINE",
"750 938 LINE",
"750 1000 LINE",
"625 1000 LINE",
"500 1000 LINE",
"500 938 LINE",
"500 875 LINE",
"438 875 LINE",
"375 875 LINE",
"375 813 LINE",
"375 750 LINE",
"313 750 LINE",
"250 750 LINE",
"250 875 LINE",
"250 1000 LINE",
"125 1000 LINE",
"0 1000 LINE",
"0 625 LINE",
"0 250 LINE",
"125 250 LINE",
"250 250 LINE",
"250 188 LINE",
"250 125 LINE",
"188 125 LINE",
"125 125 LINE",
"125 63 LINE",
"125 0 LINE"
);
},
{
closed = 1;
nodes = (
"250 375 LINE",
"250 500 LINE",
"313 500 LINE",
"375 500 LINE",
"375 438 LINE",
"375 375 LINE",
"438 375 LINE",
"500 375 LINE",
"500 313 LINE",
"500 250 LINE",
"375 250 LINE",
"250 250 LINE"
);
}
);
width = 1000;
}
);
unicode = 0136;
},
{
glyphname = L;
layers = (
{
layerId = UUID0;
paths = (
{
closed = 1;
nodes = (
"500 125 LINE",
"875 125 LINE",
"875 188 LINE",
"875 250 LINE",
"625 250 LINE",
"375 250 LINE",
"375 625 LINE",
"375 1000 LINE",
"250 1000 LINE",
"125 1000 LINE",
"125 563 LINE",
"125 125 LINE"
);
}
);
width = 1000;
}
);
unicode = 004C;
},
{
glyphname = Lacute;
layers = (
{
layerId = UUID0;
paths = (
{
closed = 1;
nodes = (
"500 125 LINE",
"875 125 LINE",
"875 188 LINE",
"875 250 LINE",
"625 250 LINE",
"375 250 LINE",
"375 500 LINE",
"375 750 LINE",
"438 750 LINE",
"500 750 LINE",
"500 813 LINE",
"500 875 LINE",
"563 875 LINE",
"625 875 LINE",
"625 938 LINE",
"625 1000 LINE",
"563 1000 LINE",
"500 1000 LINE",
"500 938 LINE",
"500 875 LINE",
"313 875 LINE",
"125 875 LINE",
"125 500 LINE",
"125 125 LINE"
);
}
);
width = 1000;
}
);
unicode = 0139;
},
{
glyphname = Lcaron;
layers = (
{
layerId = UUID0;
paths = (
{
closed = 1;
nodes = (
"500 125 LINE",
"875 125 LINE",
"875 188 LINE",
"875 250 LINE",
"625 250 LINE",
"375 250 LINE",
"375 625 LINE",
"375 1000 LINE",
"250 1000 LINE",
"125 1000 LINE",
"125 563 LINE",
"125 125 LINE"
);
},
{
closed = 1;
nodes = (
"688 625 LINE",
"750 625 LINE",
"750 688 LINE",
"750 750 LINE",
"813 750 LINE",
"875 750 LINE",
"875 875 LINE",
"875 1000 LINE",
"750 1000 LINE",
"625 1000 LINE",
"625 813 LINE",
"625 625 LINE"
);
}
);
width = 1000;
}
);
unicode = 013D;
},
{
glyphname = Lcommaaccent;
layers = (
{
layerId = UUID0;
paths = (
{
closed = 1;
nodes = (
"375 0 LINE",
"500 0 LINE",
"500 63 LINE",
"500 125 LINE",
"563 125 LINE",
"625 125 LINE",
"625 188 LINE",
"625 250 LINE",
"750 250 LINE",
"875 250 LINE",
"875 313 LINE",
"875 375 LINE",
"625 375 LINE",
"375 375 LINE",
"375 688 LINE",
"375 1000 LINE",
"250 1000 LINE",
"125 1000 LINE",
"125 625 LINE",
"125 250 LINE",
"250 250 LINE",
"375 250 LINE",
"375 188 LINE",
"375 125 LINE",
"313 125 LINE",
"250 125 LINE",
"250 63 LINE",
"250 0 LINE"
);
}
);
width = 1000;
}
);
unicode = 013B;
},
{
glyphname = Ldot;
layers = (
{
layerId = UUID0;
paths = (
{
closed = 1;
nodes = (
"500 125 LINE",
"875 125 LINE",
"875 188 LINE",
"875 250 LINE",
"625 250 LINE",
"375 250 LINE",
"375 625 LINE",
"375 1000 LINE",
"250 1000 LINE",
"125 1000 LINE",
"125 563 LINE",
"125 125 LINE"
);
},
{
closed = 1;
nodes = (
"625 500 LINE",
"750 500 LINE",
"750 625 LINE",
"750 750 LINE",
"625 750 LINE",
"500 750 LINE",
"500 625 LINE",
"500 500 LINE"
);
}
);
width = 1000;
}
);
unicode = 013F;
},
{
glyphname = Lslash;
layers = (
{
layerId = UUID0;
paths = (
{
closed = 1;
nodes = (
"500 125 LINE",
"875 125 LINE",
"875 188 LINE",
"875 250 LINE",
"625 250 LINE",
"375 250 LINE",
"375 438 LINE",
"375 625 LINE",
"438 625 LINE",
"500 625 LINE",
"500 688 LINE",
"500 750 LINE",
"438 750 LINE",
"375 750 LINE",
"375 875 LINE",
"375 1000 LINE",
"250 1000 LINE",
"125 1000 LINE",
"125 813 LINE",
"125 625 LINE",
"63 625 LINE",
"0 625 LINE",
"0 563 LINE",
"0 500 LINE",
"63 500 LINE",
"125 500 LINE",
"125 313 LINE",
"125 125 LINE"
);
}
);
width = 1000;
}
);
unicode = 0141;
},
{
color = 4;
glyphname = M;
layers = (
{
layerId = UUID0;
paths = (
{
closed = 1;
nodes = (
"125 125 LINE",
"250 125 LINE",
"250 313 LINE",
"250 625 LINE",
"313 625 LINE",
"375 625 LINE",
"375 438 LINE",
"375 375 LINE",
"438 375 LINE",
"500 375 LINE",
"500 438 LINE",
"500 625 LINE",
"563 625 LINE",
"625 625 LINE",
"625 313 LINE",
"625 125 LINE",
"750 125 LINE",
"875 125 LINE",
"875 563 LINE",
"875 1000 LINE",
"750 1000 LINE",
"625 1000 LINE",
"625 938 LINE",
"625 875 LINE",
"563 875 LINE",
"500 875 LINE",
"500 813 LINE",
"500 750 LINE",
"438 750 LINE",
"375 750 LINE",
"375 813 LINE",
"375 875 LINE",
"313 875 LINE",
"250 875 LINE",
"250 938 LINE",
"250 1000 LINE",
"125 1000 LINE",
"0 1000 LINE",
"0 563 LINE",
"0 125 LINE"
);
}
);
width = 1000;
},
{
associatedMasterId = UUID0;
layerId = "3DFCFCA9-1823-44BE-A91C-5BA4BB704EA6";
name = "Sep 5 16, 21:59";
paths = (
{
closed = 1;
nodes = (
"125 125 LINE",
"250 125 LINE",
"250 313 LINE",
"250 500 LINE",
"313 500 LINE",
"375 500 LINE",
"375 438 LINE",
"375 375 LINE",
"438 375 LINE",
"500 375 LINE",
"500 438 LINE",
"500 500 LINE",
"563 500 LINE",
"625 500 LINE",
"625 313 LINE",
"625 125 LINE",
"750 125 LINE",
"875 125 LINE",
"875 563 LINE",
"875 1000 LINE",
"750 1000 LINE",
"625 1000 LINE",
"625 938 LINE",
"625 875 LINE",
"563 875 LINE",
"500 875 LINE",
"500 813 LINE",
"500 750 LINE",
"438 750 LINE",
"375 750 LINE",
"375 813 LINE",
"375 875 LINE",
"313 875 LINE",
"250 875 LINE",
"250 938 LINE",
"250 1000 LINE",
"125 1000 LINE",
"0 1000 LINE",
"0 563 LINE",
"0 125 LINE"
);
}
);
width = 1000;
}
);
unicode = 004D;
},
{
color = 4;
glyphname = N;
layers = (
{
layerId = UUID0;
paths = (
{
closed = 1;
nodes = (
"125 125 LINE",
"250 125 LINE",
"250 313 LINE",
"250 625 LINE",
"312 625 LINE",
"375 625 LINE",
"375 563 LINE",
"375 500 LINE",
"437 500 LINE",
"500 500 LINE",
"500 438 LINE",
"500 375 LINE",
"562 375 LINE",
"625 375 LINE",
"625 188 LINE",
"625 125 LINE",
"750 125 LINE",
"875 125 LINE",
"875 563 LINE",
"875 1000 LINE",
"750 1000 LINE",
"625 1000 LINE",
"625 813 LINE",
"625 625 LINE",
"562 625 LINE",
"500 625 LINE",
"500 688 LINE",
"500 750 LINE",
"437 750 LINE",
"375 750 LINE",
"375 813 LINE",
"375 875 LINE",
"250 875 LINE",
"250 1000 LINE",
"125 1000 LINE",
"0 1000 LINE",
"0 563 LINE",
"0 125 LINE"
);
}
);
width = 1000;
},
{
associatedMasterId = UUID0;
layerId = "C2B1D476-8AAD-43E1-AE9E-66376F03DF24";
name = "Sep 5 16, 22:19";
paths = (
{
closed = 1;
nodes = (
"125 125 LINE",
"250 125 LINE",
"250 313 LINE",
"250 500 LINE",
"313 500 LINE",
"375 500 LINE",
"375 438 LINE",
"375 375 LINE",
"438 375 LINE",
"500 375 LINE",
"500 313 LINE",
"500 250 LINE",
"563 250 LINE",
"625 250 LINE",
"625 188 LINE",
"625 125 LINE",
"750 125 LINE",
"875 125 LINE",
"875 563 LINE",
"875 1000 LINE",
"750 1000 LINE",
"625 1000 LINE",
"625 813 LINE",
"625 625 LINE",
"563 625 LINE",
"500 625 LINE",
"500 688 LINE",
"500 750 LINE",
"438 750 LINE",
"375 750 LINE",
"375 813 LINE",
"375 875 LINE",
"313 875 LINE",
"250 875 LINE",
"250 938 LINE",
"250 1000 LINE",
"125 1000 LINE",
"0 1000 LINE",
"0 563 LINE",
"0 125 LINE"
);
}
);
width = 1000;
}
);
unicode = 004E;
},
{
color = 8;
glyphname = Nacute;
layers = (
{
layerId = UUID0;
paths = (
{
closed = 1;
nodes = (
"125 125 LINE",
"250 125 LINE",
"250 250 LINE",
"250 375 LINE",
"313 375 LINE",
"375 375 LINE",
"375 313 LINE",
"375 250 LINE",
"438 250 LINE",
"500 250 LINE",
"500 188 LINE",
"500 125 LINE",
"688 125 LINE",
"875 125 LINE",
"875 438 LINE",
"875 750 LINE",
"750 750 LINE",
"625 750 LINE",
"625 625 LINE",
"625 500 LINE",
"563 500 LINE",
"500 500 LINE",
"500 563 LINE",
"500 625 LINE",
"438 625 LINE",
"375 625 LINE",
"375 688 LINE",
"375 750 LINE",
"438 750 LINE",
"500 750 LINE",
"500 813 LINE",
"500 875 LINE",
"563 875 LINE",
"625 875 LINE",
"625 938 LINE",
"625 1000 LINE",
"563 1000 LINE",
"500 1000 LINE",
"500 938 LINE",
"500 875 LINE",
"438 875 LINE",
"375 875 LINE",
"375 813 LINE",
"375 750 LINE",
"188 750 LINE",
"0 750 LINE",
"0 438 LINE",
"0 125 LINE"
);
}
);
width = 1000;
}
);
unicode = 0143;
},
{
color = 8;
glyphname = Ncaron;
layers = (
{
layerId = UUID0;
paths = (
{
closed = 1;
nodes = (
"125 125 LINE",
"250 125 LINE",
"250 250 LINE",
"250 375 LINE",
"313 375 LINE",
"375 375 LINE",
"375 313 LINE",
"375 250 LINE",
"438 250 LINE",
"500 250 LINE",
"500 188 LINE",
"500 125 LINE",
"688 125 LINE",
"875 125 LINE",
"875 438 LINE",
"875 750 LINE",
"750 750 LINE",
"625 750 LINE",
"625 813 LINE",
"625 875 LINE",
"688 875 LINE",
"750 875 LINE",
"750 938 LINE",
"750 1000 LINE",
"625 1000 LINE",
"500 1000 LINE",
"500 938 LINE",
"500 875 LINE",
"438 875 LINE",
"375 875 LINE",
"375 938 LINE",
"375 1000 LINE",
"250 1000 LINE",
"125 1000 LINE",
"125 938 LINE",
"125 875 LINE",
"188 875 LINE",
"250 875 LINE",
"250 813 LINE",
"250 750 LINE",
"125 750 LINE",
"0 750 LINE",
"0 438 LINE",
"0 125 LINE"
);
},
{
closed = 1;
nodes = (
"500 563 LINE",
"500 625 LINE",
"438 625 LINE",
"375 625 LINE",
"375 688 LINE",
"375 750 LINE",
"500 750 LINE",
"625 750 LINE",
"625 625 LINE",
"625 500 LINE",
"563 500 LINE",
"500 500 LINE"
);
}
);
width = 1000;
}
);
unicode = 0147;
},
{
color = 8;
glyphname = Ncommaaccent;
layers = (
{
layerId = UUID0;
paths = (
{
closed = 1;
nodes = (
"375 0 LINE",
"500 0 LINE",
"500 63 LINE",
"500 125 LINE",
"563 125 LINE",
"625 125 LINE",
"625 188 LINE",
"625 250 LINE",
"750 250 LINE",
"875 250 LINE",
"875 625 LINE",
"875 1000 LINE",
"750 1000 LINE",
"625 1000 LINE",
"625 875 LINE",
"625 750 LINE",
"563 750 LINE",
"500 750 LINE",
"500 813 LINE",
"500 875 LINE",
"438 875 LINE",
"375 875 LINE",
"375 938 LINE",
"375 1000 LINE",
"188 1000 LINE",
"0 1000 LINE",
"0 625 LINE",
"0 250 LINE",
"125 250 LINE",
"250 250 LINE",
"250 438 LINE",
"250 625 LINE",
"313 625 LINE",
"375 625 LINE",
"375 563 LINE",
"375 500 LINE",
"438 500 LINE",
"500 500 LINE",
"500 438 LINE",
"500 375 LINE",
"563 375 LINE",
"625 375 LINE",
"625 313 LINE",
"625 250 LINE",
"500 250 LINE",
"375 250 LINE",
"375 188 LINE",
"375 125 LINE",
"313 125 LINE",
"250 125 LINE",
"250 63 LINE",
"250 0 LINE"
);
}
);
width = 1000;
}
);
unicode = 0145;
},
{
color = 8;
glyphname = Eng;
layers = (
{
layerId = UUID0;
paths = (
{
closed = 1;
nodes = (
"500 0 LINE",
"750 0 LINE",
"750 63 LINE",
"750 125 LINE",
"813 125 LINE",
"875 125 LINE",
"875 563 LINE",
"875 1000 LINE",
"750 1000 LINE",
"625 1000 LINE",
"625 875 LINE",
"625 750 LINE",
"563 750 LINE",
"500 750 LINE",
"500 813 LINE",
"500 875 LINE",
"438 875 LINE",
"375 875 LINE",
"375 938 LINE",
"375 1000 LINE",
"188 1000 LINE",
"0 1000 LINE",
"0 625 LINE",
"0 250 LINE",
"125 250 LINE",
"250 250 LINE",
"250 438 LINE",
"250 625 LINE",
"313 625 LINE",
"375 625 LINE",
"375 563 LINE",
"375 500 LINE",
"438 500 LINE",
"500 500 LINE",
"500 438 LINE",
"500 375 LINE",
"563 375 LINE",
"625 375 LINE",
"625 250 LINE",
"625 125 LINE",
"438 125 LINE",
"250 125 LINE",
"250 63 LINE",
"250 0 LINE"
);
}
);
width = 1000;
}
);
unicode = 014A;
},
{
color = 8;
glyphname = Ntilde;
layers = (
{
layerId = UUID0;
paths = (
{
closed = 1;
nodes = (
"125 125 LINE",
"250 125 LINE",
"250 250 LINE",
"250 375 LINE",
"313 375 LINE",
"375 375 LINE",
"375 313 LINE",
"375 250 LINE",
"438 250 LINE",
"500 250 LINE",
"500 188 LINE",
"500 125 LINE",
"688 125 LINE",
"875 125 LINE",
"875 438 LINE",
"875 750 LINE",
"750 750 LINE",
"625 750 LINE",
"625 813 LINE",
"625 875 LINE",
"688 875 LINE",
"750 875 LINE",
"750 938 LINE",
"750 1000 LINE",
"688 1000 LINE",
"625 1000 LINE",
"625 938 LINE",
"625 875 LINE",
"563 875 LINE",
"500 875 LINE",
"500 938 LINE",
"500 1000 LINE",
"375 1000 LINE",
"250 1000 LINE",
"250 938 LINE",
"250 875 LINE",
"188 875 LINE",
"125 875 LINE",
"125 813 LINE",
"125 750 LINE",
"63 750 LINE",
"0 750 LINE",
"0 438 LINE",
"0 125 LINE"
);
},
{
closed = 1;
nodes = (
"500 563 LINE",
"500 625 LINE",
"438 625 LINE",
"375 625 LINE",
"375 688 LINE",
"375 750 LINE",
"313 750 LINE",
"250 750 LINE",
"250 813 LINE",
"250 875 LINE",
"313 875 LINE",
"375 875 LINE",
"375 813 LINE",
"375 750 LINE",
"500 750 LINE",
"625 750 LINE",
"625 625 LINE",
"625 500 LINE",
"563 500 LINE",
"500 500 LINE"
);
}
);
width = 1000;
}
);
unicode = 00D1;
},
{
glyphname = O;
layers = (
{
layerId = UUID0;
paths = (
{
closed = 1;
nodes = (
"438 125 LINE",
"750 125 LINE",
"750 188 LINE",
"750 250 LINE",
"813 250 LINE",
"875 250 LINE",
"875 563 LINE",
"875 875 LINE",
"813 875 LINE",
"750 875 LINE",
"750 938 LINE",
"750 1000 LINE",
"438 1000 LINE",
"125 1000 LINE",
"125 938 LINE",
"125 875 LINE",
"63 875 LINE",
"0 875 LINE",
"0 563 LINE",
"0 250 LINE",
"63 250 LINE",
"125 250 LINE",
"125 188 LINE",
"125 125 LINE"
);
},
{
closed = 1;
nodes = (
"250 563 LINE",
"250 875 LINE",
"438 875 LINE",
"625 875 LINE",
"625 563 LINE",
"625 250 LINE",
"438 250 LINE",
"250 250 LINE"
);
}
);
width = 1000;
}
);
unicode = 004F;
},
{
color = 8;
glyphname = Oacute;
layers = (
{
layerId = UUID0;
paths = (
{
closed = 1;
nodes = (
"438 125 LINE",
"750 125 LINE",
"750 188 LINE",
"750 250 LINE",
"813 250 LINE",
"875 250 LINE",
"875 438 LINE",
"875 625 LINE",
"813 625 LINE",
"750 625 LINE",
"750 688 LINE",
"750 750 LINE",
"625 750 LINE",
"500 750 LINE",
"500 813 LINE",
"500 875 LINE",
"563 875 LINE",
"625 875 LINE",
"625 938 LINE",
"625 1000 LINE",
"563 1000 LINE",
"500 1000 LINE",
"500 938 LINE",
"500 875 LINE",
"438 875 LINE",
"375 875 LINE",
"375 813 LINE",
"375 750 LINE",
"250 750 LINE",
"125 750 LINE",
"125 688 LINE",
"125 625 LINE",
"63 625 LINE",
"0 625 LINE",
"0 438 LINE",
"0 250 LINE",
"63 250 LINE",
"125 250 LINE",
"125 188 LINE",
"125 125 LINE"
);
},
{
closed = 1;
nodes = (
"250 438 LINE",
"250 625 LINE",
"438 625 LINE",
"625 625 LINE",
"625 438 LINE",
"625 250 LINE",
"438 250 LINE",
"250 250 LINE"
);
}
);
width = 1000;
}
);
unicode = 00D3;
},
{
color = 8;
glyphname = Obreve;
layers = (
{
layerId = UUID0;
paths = (
{
closed = 1;
nodes = (
"438 125 LINE",
"750 125 LINE",
"750 188 LINE",
"750 250 LINE",
"813 250 LINE",
"875 250 LINE",
"875 438 LINE",
"875 625 LINE",
"813 625 LINE",
"750 625 LINE",
"750 688 LINE",
"750 750 LINE",
"688 750 LINE",
"625 750 LINE",
"625 813 LINE",
"625 875 LINE",
"688 875 LINE",
"750 875 LINE",
"750 938 LINE",
"750 1000 LINE",
"688 1000 LINE",
"625 1000 LINE",
"625 938 LINE",
"625 875 LINE",
"438 875 LINE",
"250 875 LINE",
"250 938 LINE",
"250 1000 LINE",
"188 1000 LINE",
"125 1000 LINE",
"125 938 LINE",
"125 875 LINE",
"188 875 LINE",
"250 875 LINE",
"250 813 LINE",
"250 750 LINE",
"188 750 LINE",
"125 750 LINE",
"125 688 LINE",
"125 625 LINE",
"63 625 LINE",
"0 625 LINE",
"0 438 LINE",
"0 250 LINE",
"63 250 LINE",
"125 250 LINE",
"125 188 LINE",
"125 125 LINE"
);
},
{
closed = 1;
nodes = (
"250 438 LINE",
"250 625 LINE",
"438 625 LINE",
"625 625 LINE",
"625 438 LINE",
"625 250 LINE",
"438 250 LINE",
"250 250 LINE"
);
}
);
width = 1000;
}
);
unicode = 014E;
},
{
color = 8;
glyphname = Ocircumflex;
layers = (
{
layerId = UUID0;
paths = (
{
closed = 1;
nodes = (
"438 125 LINE",
"750 125 LINE",
"750 188 LINE",
"750 250 LINE",
"813 250 LINE",
"875 250 LINE",
"875 438 LINE",
"875 625 LINE",
"813 625 LINE",
"750 625 LINE",
"750 750 LINE",
"750 875 LINE",
"688 875 LINE",
"625 875 LINE",
"625 938 LINE",
"625 1000 LINE",
"438 1000 LINE",
"250 1000 LINE",
"250 938 LINE",
"250 875 LINE",
"188 875 LINE",
"125 875 LINE",
"125 750 LINE",
"125 625 LINE",
"63 625 LINE",
"0 625 LINE",
"0 438 LINE",
"0 250 LINE",
"63 250 LINE",
"125 250 LINE",
"125 188 LINE",
"125 125 LINE"
);
},
{
closed = 1;
nodes = (
"250 438 LINE",
"250 625 LINE",
"438 625 LINE",
"625 625 LINE",
"625 438 LINE",
"625 250 LINE",
"438 250 LINE",
"250 250 LINE"
);
},
{
closed = 1;
nodes = (
"375 813 LINE",
"375 875 LINE",
"438 875 LINE",
"500 875 LINE",
"500 813 LINE",
"500 750 LINE",
"438 750 LINE",
"375 750 LINE"
);
}
);
width = 1000;
}
);
unicode = 00D4;
},
{
glyphname = Odieresis;
layers = (
{
layerId = UUID0;
paths = (
{
closed = 1;
nodes = (
"438 125 LINE",
"750 125 LINE",
"750 188 LINE",
"750 250 LINE",
"813 250 LINE",
"875 250 LINE",
"875 438 LINE",
"875 625 LINE",
"813 625 LINE",
"750 625 LINE",
"750 688 LINE",
"750 750 LINE",
"438 750 LINE",
"125 750 LINE",
"125 688 LINE",
"125 625 LINE",
"63 625 LINE",
"0 625 LINE",
"0 438 LINE",
"0 250 LINE",
"63 250 LINE",
"125 250 LINE",
"125 188 LINE",
"125 125 LINE"
);
},
{
closed = 1;
nodes = (
"250 438 LINE",
"250 625 LINE",
"438 625 LINE",
"625 625 LINE",
"625 438 LINE",
"625 250 LINE",
"438 250 LINE",
"250 250 LINE"
);
},
{
closed = 1;
nodes = (
"250 875 LINE",
"375 875 LINE",
"375 938 LINE",
"375 1000 LINE",
"250 1000 LINE",
"125 1000 LINE",
"125 938 LINE",
"125 875 LINE"
);
},
{
closed = 1;
nodes = (
"625 875 LINE",
"750 875 LINE",
"750 938 LINE",
"750 1000 LINE",
"625 1000 LINE",
"500 1000 LINE",
"500 938 LINE",
"500 875 LINE"
);
}
);
width = 1000;
}
);
unicode = 00D6;
},
{
color = 8;
glyphname = Ograve;
layers = (
{
layerId = UUID0;
paths = (
{
closed = 1;
nodes = (
"438 125 LINE",
"750 125 LINE",
"750 188 LINE",
"750 250 LINE",
"813 250 LINE",
"875 250 LINE",
"875 438 LINE",
"875 625 LINE",
"813 625 LINE",
"750 625 LINE",
"750 688 LINE",
"750 750 LINE",
"625 750 LINE",
"500 750 LINE",
"500 813 LINE",
"500 875 LINE",
"438 875 LINE",
"375 875 LINE",
"375 938 LINE",
"375 1000 LINE",
"313 1000 LINE",
"250 1000 LINE",
"250 938 LINE",
"250 875 LINE",
"313 875 LINE",
"375 875 LINE",
"375 813 LINE",
"375 750 LINE",
"250 750 LINE",
"125 750 LINE",
"125 688 LINE",
"125 625 LINE",
"63 625 LINE",
"0 625 LINE",
"0 438 LINE",
"0 250 LINE",
"63 250 LINE",
"125 250 LINE",
"125 188 LINE",
"125 125 LINE"
);
},
{
closed = 1;
nodes = (
"250 438 LINE",
"250 625 LINE",
"438 625 LINE",
"625 625 LINE",
"625 438 LINE",
"625 250 LINE",
"438 250 LINE",
"250 250 LINE"
);
}
);
width = 1000;
}
);
unicode = 00D2;
},
{
color = 8;
glyphname = Ohungarumlaut;
layers = (
{
layerId = UUID0;
paths = (
{
closed = 1;
nodes = (
"438 125 LINE",
"750 125 LINE",
"750 188 LINE",
"750 250 LINE",
"813 250 LINE",
"875 250 LINE",
"875 438 LINE",
"875 625 LINE",
"813 625 LINE",
"750 625 LINE",
"750 688 LINE",
"750 750 LINE",
"688 750 LINE",
"625 750 LINE",
"625 813 LINE",
"625 875 LINE",
"688 875 LINE",
"750 875 LINE",
"750 938 LINE",
"750 1000 LINE",
"688 1000 LINE",
"625 1000 LINE",
"625 938 LINE",
"625 875 LINE",
"563 875 LINE",
"500 875 LINE",
"500 813 LINE",
"500 750 LINE",
"375 750 LINE",
"250 750 LINE",
"250 813 LINE",
"250 875 LINE",
"313 875 LINE",
"375 875 LINE",
"375 938 LINE",
"375 1000 LINE",
"313 1000 LINE",
"250 1000 LINE",
"250 938 LINE",
"250 875 LINE",
"188 875 LINE",
"125 875 LINE",
"125 750 LINE",
"125 625 LINE",
"63 625 LINE",
"0 625 LINE",
"0 438 LINE",
"0 250 LINE",
"63 250 LINE",
"125 250 LINE",
"125 188 LINE",
"125 125 LINE"
);
},
{
closed = 1;
nodes = (
"250 438 LINE",
"250 625 LINE",
"438 625 LINE",
"625 625 LINE",
"625 438 LINE",
"625 250 LINE",
"438 250 LINE",
"250 250 LINE"
);
}
);
width = 1000;
}
);
unicode = 0150;
},
{
glyphname = Omacron;
layers = (
{
layerId = UUID0;
paths = (
{
closed = 1;
nodes = (
"438 125 LINE",
"750 125 LINE",
"750 188 LINE",
"750 250 LINE",
"813 250 LINE",
"875 250 LINE",
"875 438 LINE",
"875 625 LINE",
"813 625 LINE",
"750 625 LINE",
"750 688 LINE",
"750 750 LINE",
"438 750 LINE",
"125 750 LINE",
"125 688 LINE",
"125 625 LINE",
"63 625 LINE",
"0 625 LINE",
"0 438 LINE",
"0 250 LINE",
"63 250 LINE",
"125 250 LINE",
"125 188 LINE",
"125 125 LINE"
);
},
{
closed = 1;
nodes = (
"250 438 LINE",
"250 625 LINE",
"438 625 LINE",
"625 625 LINE",
"625 438 LINE",
"625 250 LINE",
"438 250 LINE",
"250 250 LINE"
);
},
{
closed = 1;
nodes = (
"438 875 LINE",
"750 875 LINE",
"750 938 LINE",
"750 1000 LINE",
"438 1000 LINE",
"125 1000 LINE",
"125 938 LINE",
"125 875 LINE"
);
}
);
width = 1000;
}
);
unicode = 014C;
},
{
glyphname = Oslash;
layers = (
{
layerId = UUID0;
paths = (
{
closed = 1;
nodes = (
"438 125 LINE",
"750 125 LINE",
"750 188 LINE",
"750 250 LINE",
"813 250 LINE",
"875 250 LINE",
"875 563 LINE",
"875 875 LINE",
"813 875 LINE",
"750 875 LINE",
"750 938 LINE",
"750 1000 LINE",
"438 1000 LINE",
"125 1000 LINE",
"125 938 LINE",
"125 875 LINE",
"63 875 LINE",
"0 875 LINE",
"0 563 LINE",
"0 250 LINE",
"63 250 LINE",
"125 250 LINE",
"125 188 LINE",
"125 125 LINE"
);
},
{
closed = 1;
nodes = (
"250 313 LINE",
"250 375 LINE",
"313 375 LINE",
"375 375 LINE",
"375 438 LINE",
"375 500 LINE",
"313 500 LINE",
"250 500 LINE",
"250 688 LINE",
"250 875 LINE",
"438 875 LINE",
"625 875 LINE",
"625 813 LINE",
"625 750 LINE",
"563 750 LINE",
"500 750 LINE",
"500 688 LINE",
"500 625 LINE",
"563 625 LINE",
"625 625 LINE",
"625 438 LINE",
"625 250 LINE",
"438 250 LINE",
"250 250 LINE"
);
},
{
closed = 1;
nodes = (
"438 500 LINE",
"500 500 LINE",
"500 563 LINE",
"500 625 LINE",
"438 625 LINE",
"375 625 LINE",
"375 563 LINE",
"375 500 LINE"
);
}
);
width = 1000;
}
);
unicode = 00D8;
},
{
color = 8;
glyphname = Otilde;
layers = (
{
layerId = UUID0;
paths = (
{
closed = 1;
nodes = (
"438 125 LINE",
"750 125 LINE",
"750 188 LINE",
"750 250 LINE",
"813 250 LINE",
"875 250 LINE",
"875 438 LINE",
"875 625 LINE",
"813 625 LINE",
"750 625 LINE",
"750 688 LINE",
"750 750 LINE",
"688 750 LINE",
"625 750 LINE",
"625 813 LINE",
"625 875 LINE",
"688 875 LINE",
"750 875 LINE",
"750 938 LINE",
"750 1000 LINE",
"688 1000 LINE",
"625 1000 LINE",
"625 938 LINE",
"625 875 LINE",
"563 875 LINE",
"500 875 LINE",
"500 938 LINE",
"500 1000 LINE",
"375 1000 LINE",
"250 1000 LINE",
"250 938 LINE",
"250 875 LINE",
"188 875 LINE",
"125 875 LINE",
"125 750 LINE",
"125 625 LINE",
"63 625 LINE",
"0 625 LINE",
"0 438 LINE",
"0 250 LINE",
"63 250 LINE",
"125 250 LINE",
"125 188 LINE",
"125 125 LINE"
);
},
{
closed = 1;
nodes = (
"250 438 LINE",
"250 625 LINE",
"438 625 LINE",
"625 625 LINE",
"625 438 LINE",
"625 250 LINE",
"438 250 LINE",
"250 250 LINE"
);
},
{
closed = 1;
nodes = (
"250 813 LINE",
"250 875 LINE",
"313 875 LINE",
"375 875 LINE",
"375 813 LINE",
"375 750 LINE",
"313 750 LINE",
"250 750 LINE"
);
}
);
width = 1000;
}
);
unicode = 00D5;
},
{
glyphname = OE;
layers = (
{
layerId = UUID0;
paths = (
{
closed = 1;
nodes = (
"500 125 LINE",
"875 125 LINE",
"875 188 LINE",
"875 250 LINE",
"750 250 LINE",
"625 250 LINE",
"625 375 LINE",
"625 500 LINE",
"750 500 LINE",
"875 500 LINE",
"875 563 LINE",
"875 625 LINE",
"750 625 LINE",
"625 625 LINE",
"625 750 LINE",
"625 875 LINE",
"750 875 LINE",
"875 875 LINE",
"875 938 LINE",
"875 1000 LINE",
"500 1000 LINE",
"125 1000 LINE",
"125 938 LINE",
"125 875 LINE",
"63 875 LINE",
"0 875 LINE",
"0 563 LINE",
"0 250 LINE",
"63 250 LINE",
"125 250 LINE",
"125 188 LINE",
"125 125 LINE"
);
},
{
closed = 1;
nodes = (
"250 563 LINE",
"250 875 LINE",
"313 875 LINE",
"375 875 LINE",
"375 563 LINE",
"375 250 LINE",
"313 250 LINE",
"250 250 LINE"
);
}
);
width = 1000;
}
);
unicode = 0152;
},
{
glyphname = P;
layers = (
{
layerId = UUID0;
paths = (
{
closed = 1;
nodes = (
"125 125 LINE",
"250 125 LINE",
"250 250 LINE",
"250 375 LINE",
"500 375 LINE",
"750 375 LINE",
"750 438 LINE",
"750 500 LINE",
"813 500 LINE",
"875 500 LINE",
"875 688 LINE",
"875 875 LINE",
"813 875 LINE",
"750 875 LINE",
"750 938 LINE",
"750 1000 LINE",
"375 1000 LINE",
"0 1000 LINE",
"0 563 LINE",
"0 125 LINE"
);
},
{
closed = 1;
nodes = (
"250 688 LINE",
"250 875 LINE",
"438 875 LINE",
"625 875 LINE",
"625 688 LINE",
"625 500 LINE",
"438 500 LINE",
"250 500 LINE"
);
}
);
width = 1000;
}
);
unicode = 0050;
},
{
glyphname = Thorn;
layers = (
{
layerId = UUID0;
paths = (
{
closed = 1;
nodes = (
"125 125 LINE",
"250 125 LINE",
"250 188 LINE",
"250 250 LINE",
"500 250 LINE",
"750 250 LINE",
"750 313 LINE",
"750 375 LINE",
"813 375 LINE",
"875 375 LINE",
"875 563 LINE",
"875 750 LINE",
"813 750 LINE",
"750 750 LINE",
"750 813 LINE",
"750 875 LINE",
"500 875 LINE",
"250 875 LINE",
"250 938 LINE",
"250 1000 LINE",
"125 1000 LINE",
"0 1000 LINE",
"0 563 LINE",
"0 125 LINE"
);
},
{
closed = 1;
nodes = (
"250 563 LINE",
"250 750 LINE",
"438 750 LINE",
"625 750 LINE",
"625 563 LINE",
"625 375 LINE",
"438 375 LINE",
"250 375 LINE"
);
}
);
width = 1000;
}
);
unicode = 00DE;
},
{
glyphname = Q;
layers = (
{
layerId = UUID0;
paths = (
{
closed = 1;
nodes = (
"375 125 LINE",
"625 125 LINE",
"625 188 LINE",
"625 250 LINE",
"688 250 LINE",
"750 250 LINE",
"750 188 LINE",
"750 125 LINE",
"813 125 LINE",
"875 125 LINE",
"875 188 LINE",
"875 250 LINE",
"813 250 LINE",
"750 250 LINE",
"750 313 LINE",
"750 375 LINE",
"813 375 LINE",
"875 375 LINE",
"875 625 LINE",
"875 875 LINE",
"813 875 LINE",
"750 875 LINE",
"750 938 LINE",
"750 1000 LINE",
"438 1000 LINE",
"125 1000 LINE",
"125 938 LINE",
"125 875 LINE",
"63 875 LINE",
"0 875 LINE",
"0 563 LINE",
"0 250 LINE",
"63 250 LINE",
"125 250 LINE",
"125 188 LINE",
"125 125 LINE"
);
},
{
closed = 1;
nodes = (
"250 563 LINE",
"250 875 LINE",
"438 875 LINE",
"625 875 LINE",
"625 688 LINE",
"625 500 LINE",
"500 500 LINE",
"375 500 LINE",
"375 438 LINE",
"375 375 LINE",
"438 375 LINE",
"500 375 LINE",
"500 313 LINE",
"500 250 LINE",
"375 250 LINE",
"250 250 LINE"
);
}
);
width = 1000;
}
);
unicode = 0051;
},
{
glyphname = R;
layers = (
{
layerId = UUID0;
paths = (
{
closed = 1;
nodes = (
"125 125 LINE",
"250 125 LINE",
"250 250 LINE",
"250 375 LINE",
"313 375 LINE",
"375 375 LINE",
"375 313 LINE",
"375 250 LINE",
"438 250 LINE",
"500 250 LINE",
"500 188 LINE",
"500 125 LINE",
"688 125 LINE",
"875 125 LINE",
"875 188 LINE",
"875 250 LINE",
"813 250 LINE",
"750 250 LINE",
"750 313 LINE",
"750 375 LINE",
"688 375 LINE",
"625 375 LINE",
"625 438 LINE",
"625 500 LINE",
"750 500 LINE",
"875 500 LINE",
"875 688 LINE",
"875 875 LINE",
"813 875 LINE",
"750 875 LINE",
"750 938 LINE",
"750 1000 LINE",
"375 1000 LINE",
"0 1000 LINE",
"0 563 LINE",
"0 125 LINE"
);
},
{
closed = 1;
nodes = (
"250 688 LINE",
"250 875 LINE",
"438 875 LINE",
"625 875 LINE",
"625 750 LINE",
"625 625 LINE",
"563 625 LINE",
"500 625 LINE",
"500 563 LINE",
"500 500 LINE",
"375 500 LINE",
"250 500 LINE"
);
}
);
width = 1000;
}
);
unicode = 0052;
},
{
glyphname = Racute;
layers = (
{
layerId = UUID0;
paths = (
{
closed = 1;
nodes = (
"125 125 LINE",
"250 125 LINE",
"250 250 LINE",
"250 375 LINE",
"313 375 LINE",
"375 375 LINE",
"375 313 LINE",
"375 250 LINE",
"438 250 LINE",
"500 250 LINE",
"500 188 LINE",
"500 125 LINE",
"688 125 LINE",
"875 125 LINE",
"875 188 LINE",
"875 250 LINE",
"813 250 LINE",
"750 250 LINE",
"750 313 LINE",
"750 375 LINE",
"688 375 LINE",
"625 375 LINE",
"625 438 LINE",
"625 500 LINE",
"750 500 LINE",
"875 500 LINE",
"875 563 LINE",
"875 625 LINE",
"813 625 LINE",
"750 625 LINE",
"750 688 LINE",
"750 750 LINE",
"625 750 LINE",
"500 750 LINE",
"500 813 LINE",
"500 875 LINE",
"563 875 LINE",
"625 875 LINE",
"625 938 LINE",
"625 1000 LINE",
"563 1000 LINE",
"500 1000 LINE",
"500 938 LINE",
"500 875 LINE",
"438 875 LINE",
"375 875 LINE",
"375 813 LINE",
"375 750 LINE",
"188 750 LINE",
"0 750 LINE",
"0 438 LINE",
"0 125 LINE"
);
},
{
closed = 1;
nodes = (
"250 563 LINE",
"250 625 LINE",
"375 625 LINE",
"500 625 LINE",
"500 563 LINE",
"500 500 LINE",
"375 500 LINE",
"250 500 LINE"
);
}
);
width = 1000;
}
);
unicode = 0154;
},
{
glyphname = Rcaron;
layers = (
{
layerId = UUID0;
paths = (
{
closed = 1;
nodes = (
"125 125 LINE",
"250 125 LINE",
"250 250 LINE",
"250 375 LINE",
"313 375 LINE",
"375 375 LINE",
"375 313 LINE",
"375 250 LINE",
"438 250 LINE",
"500 250 LINE",
"500 188 LINE",
"500 125 LINE",
"688 125 LINE",
"875 125 LINE",
"875 188 LINE",
"875 250 LINE",
"813 250 LINE",
"750 250 LINE",
"750 313 LINE",
"750 375 LINE",
"688 375 LINE",
"625 375 LINE",
"625 438 LINE",
"625 500 LINE",
"750 500 LINE",
"875 500 LINE",
"875 563 LINE",
"875 625 LINE",
"813 625 LINE",
"750 625 LINE",
"750 688 LINE",
"750 750 LINE",
"625 750 LINE",
"500 750 LINE",
"500 813 LINE",
"500 875 LINE",
"563 875 LINE",
"625 875 LINE",
"625 938 LINE",
"625 1000 LINE",
"563 1000 LINE",
"500 1000 LINE",
"500 938 LINE",
"500 875 LINE",
"438 875 LINE",
"375 875 LINE",
"375 938 LINE",
"375 1000 LINE",
"313 1000 LINE",
"250 1000 LINE",
"250 938 LINE",
"250 875 LINE",
"313 875 LINE",
"375 875 LINE",
"375 813 LINE",
"375 750 LINE",
"188 750 LINE",
"0 750 LINE",
"0 438 LINE",
"0 125 LINE"
);
},
{
closed = 1;
nodes = (
"250 563 LINE",
"250 625 LINE",
"375 625 LINE",
"500 625 LINE",
"500 563 LINE",
"500 500 LINE",
"375 500 LINE",
"250 500 LINE"
);
}
);
width = 1000;
}
);
unicode = 0158;
},
{
glyphname = Rcommaaccent;
layers = (
{
layerId = UUID0;
paths = (
{
closed = 1;
nodes = (
"375 0 LINE",
"500 0 LINE",
"500 63 LINE",
"500 125 LINE",
"563 125 LINE",
"625 125 LINE",
"625 188 LINE",
"625 250 LINE",
"750 250 LINE",
"875 250 LINE",
"875 313 LINE",
"875 375 LINE",
"813 375 LINE",
"750 375 LINE",
"750 438 LINE",
"750 500 LINE",
"688 500 LINE",
"625 500 LINE",
"625 563 LINE",
"625 625 LINE",
"750 625 LINE",
"875 625 LINE",
"875 750 LINE",
"875 875 LINE",
"813 875 LINE",
"750 875 LINE",
"750 938 LINE",
"750 1000 LINE",
"375 1000 LINE",
"0 1000 LINE",
"0 625 LINE",
"0 250 LINE",
"125 250 LINE",
"250 250 LINE",
"250 375 LINE",
"250 500 LINE",
"313 500 LINE",
"375 500 LINE",
"375 438 LINE",
"375 375 LINE",
"438 375 LINE",
"500 375 LINE",
"500 313 LINE",
"500 250 LINE",
"438 250 LINE",
"375 250 LINE",
"375 188 LINE",
"375 125 LINE",
"313 125 LINE",
"250 125 LINE",
"250 63 LINE",
"250 0 LINE"
);
},
{
closed = 1;
nodes = (
"250 750 LINE",
"250 875 LINE",
"438 875 LINE",
"625 875 LINE",
"625 813 LINE",
"625 750 LINE",
"563 750 LINE",
"500 750 LINE",
"500 688 LINE",
"500 625 LINE",
"375 625 LINE",
"250 625 LINE"
);
}
);
width = 1000;
}
);
unicode = 0156;
},
{
color = 4;
glyphname = S;
layers = (
{
layerId = UUID0;
paths = (
{
closed = 1;
nodes = (
"438 125 LINE",
"750 125 LINE",
"750 188 LINE",
"750 250 LINE",
"813 250 LINE",
"875 250 LINE",
"875 375 LINE",
"875 500 LINE",
"813 500 LINE",
"750 500 LINE",
"750 563 LINE",
"750 625 LINE",
"500 625 LINE",
"250 625 LINE",
"250 750 LINE",
"250 875 LINE",
"375 875 LINE",
"625 875 LINE",
"625 813 LINE",
"625 750 LINE",
"750 750 LINE",
"875 750 LINE",
"875 813 LINE",
"875 875 LINE",
"813 875 LINE",
"750 875 LINE",
"750 938 LINE",
"750 1000 LINE",
"375 1000 LINE",
"125 1000 LINE",
"125 938 LINE",
"125 875 LINE",
"63 875 LINE",
"0 875 LINE",
"0 750 LINE",
"0 625 LINE",
"63 625 LINE",
"125 625 LINE",
"125 563 LINE",
"125 500 LINE",
"375 500 LINE",
"625 500 LINE",
"625 375 LINE",
"625 250 LINE",
"438 250 LINE",
"250 250 LINE",
"250 313 LINE",
"250 375 LINE",
"125 375 LINE",
"0 375 LINE",
"0 313 LINE",
"0 250 LINE",
"63 250 LINE",
"125 250 LINE",
"125 188 LINE",
"125 125 LINE"
);
}
);
width = 1000;
},
{
associatedMasterId = UUID0;
layerId = "896FAA60-A643-423C-978A-77238F8E505A";
name = "Sep 5 16, 22:09";
paths = (
{
closed = 1;
nodes = (
"438 125 LINE",
"750 125 LINE",
"750 188 LINE",
"750 250 LINE",
"813 250 LINE",
"875 250 LINE",
"875 375 LINE",
"875 500 LINE",
"813 500 LINE",
"750 500 LINE",
"750 563 LINE",
"750 625 LINE",
"500 625 LINE",
"250 625 LINE",
"250 750 LINE",
"250 875 LINE",
"375 875 LINE",
"500 875 LINE",
"500 813 LINE",
"500 750 LINE",
"625 750 LINE",
"750 750 LINE",
"750 813 LINE",
"750 875 LINE",
"688 875 LINE",
"625 875 LINE",
"625 938 LINE",
"625 1000 LINE",
"375 1000 LINE",
"125 1000 LINE",
"125 938 LINE",
"125 875 LINE",
"63 875 LINE",
"0 875 LINE",
"0 750 LINE",
"0 625 LINE",
"63 625 LINE",
"125 625 LINE",
"125 563 LINE",
"125 500 LINE",
"375 500 LINE",
"625 500 LINE",
"625 375 LINE",
"625 250 LINE",
"438 250 LINE",
"250 250 LINE",
"250 313 LINE",
"250 375 LINE",
"125 375 LINE",
"0 375 LINE",
"0 313 LINE",
"0 250 LINE",
"63 250 LINE",
"125 250 LINE",
"125 188 LINE",
"125 125 LINE"
);
}
);
width = 1000;
}
);
unicode = 0053;
},
{
color = 8;
glyphname = Sacute;
layers = (
{
layerId = UUID0;
paths = (
{
closed = 1;
nodes = (
"375 125 LINE",
"750 125 LINE",
"750 188 LINE",
"750 250 LINE",
"813 250 LINE",
"875 250 LINE",
"875 313 LINE",
"875 375 LINE",
"813 375 LINE",
"750 375 LINE",
"750 438 LINE",
"750 500 LINE",
"500 500 LINE",
"250 500 LINE",
"250 563 LINE",
"250 625 LINE",
"500 625 LINE",
"750 625 LINE",
"750 688 LINE",
"750 750 LINE",
"625 750 LINE",
"500 750 LINE",
"500 813 LINE",
"500 875 LINE",
"563 875 LINE",
"625 875 LINE",
"625 938 LINE",
"625 1000 LINE",
"563 1000 LINE",
"500 1000 LINE",
"500 938 LINE",
"500 875 LINE",
"438 875 LINE",
"375 875 LINE",
"375 813 LINE",
"375 750 LINE",
"250 750 LINE",
"125 750 LINE",
"125 688 LINE",
"125 625 LINE",
"63 625 LINE",
"0 625 LINE",
"0 563 LINE",
"0 500 LINE",
"63 500 LINE",
"125 500 LINE",
"125 438 LINE",
"125 375 LINE",
"375 375 LINE",
"625 375 LINE",
"625 313 LINE",
"625 250 LINE",
"313 250 LINE",
"0 250 LINE",
"0 188 LINE",
"0 125 LINE"
);
}
);
width = 1000;
}
);
unicode = 015A;
},
{
color = 8;
glyphname = Scaron;
layers = (
{
layerId = UUID0;
paths = (
{
closed = 1;
nodes = (
"375 125 LINE",
"750 125 LINE",
"750 188 LINE",
"750 250 LINE",
"813 250 LINE",
"875 250 LINE",
"875 313 LINE",
"875 375 LINE",
"813 375 LINE",
"750 375 LINE",
"750 438 LINE",
"750 500 LINE",
"500 500 LINE",
"250 500 LINE",
"250 563 LINE",
"250 625 LINE",
"500 625 LINE",
"750 625 LINE",
"750 688 LINE",
"750 750 LINE",
"688 750 LINE",
"625 750 LINE",
"625 813 LINE",
"625 875 LINE",
"688 875 LINE",
"750 875 LINE",
"750 938 LINE",
"750 1000 LINE",
"625 1000 LINE",
"500 1000 LINE",
"500 938 LINE",
"500 875 LINE",
"438 875 LINE",
"375 875 LINE",
"375 938 LINE",
"375 1000 LINE",
"250 1000 LINE",
"125 1000 LINE",
"125 938 LINE",
"125 875 LINE",
"188 875 LINE",
"250 875 LINE",
"250 813 LINE",
"250 750 LINE",
"188 750 LINE",
"125 750 LINE",
"125 688 LINE",
"125 625 LINE",
"63 625 LINE",
"0 625 LINE",
"0 563 LINE",
"0 500 LINE",
"63 500 LINE",
"125 500 LINE",
"125 438 LINE",
"125 375 LINE",
"375 375 LINE",
"625 375 LINE",
"625 313 LINE",
"625 250 LINE",
"313 250 LINE",
"0 250 LINE",
"0 188 LINE",
"0 125 LINE"
);
}
);
width = 1000;
}
);
unicode = 0160;
},
{
glyphname = Scedilla;
layers = (
{
layerId = UUID0;
paths = (
{
closed = 1;
nodes = (
"375 0 LINE",
"500 0 LINE",
"500 63 LINE",
"500 125 LINE",
"563 125 LINE",
"625 125 LINE",
"625 188 LINE",
"625 250 LINE",
"688 250 LINE",
"750 250 LINE",
"750 313 LINE",
"750 375 LINE",
"813 375 LINE",
"875 375 LINE",
"875 500 LINE",
"875 625 LINE",
"813 625 LINE",
"750 625 LINE",
"750 688 LINE",
"750 750 LINE",
"500 750 LINE",
"250 750 LINE",
"250 813 LINE",
"250 875 LINE",
"500 875 LINE",
"750 875 LINE",
"750 938 LINE",
"750 1000 LINE",
"438 1000 LINE",
"125 1000 LINE",
"125 938 LINE",
"125 875 LINE",
"63 875 LINE",
"0 875 LINE",
"0 813 LINE",
"0 750 LINE",
"63 750 LINE",
"125 750 LINE",
"125 688 LINE",
"125 625 LINE",
"375 625 LINE",
"625 625 LINE",
"625 500 LINE",
"625 375 LINE",
"438 375 LINE",
"250 375 LINE",
"250 438 LINE",
"250 500 LINE",
"125 500 LINE",
"0 500 LINE",
"0 438 LINE",
"0 375 LINE",
"63 375 LINE",
"125 375 LINE",
"125 313 LINE",
"125 250 LINE",
"313 250 LINE",
"500 250 LINE",
"500 188 LINE",
"500 125 LINE",
"375 125 LINE",
"250 125 LINE",
"250 63 LINE",
"250 0 LINE"
);
}
);
width = 1000;
}
);
unicode = 015E;
},
{
color = 8;
glyphname = Scircumflex;
layers = (
{
layerId = UUID0;
paths = (
{
closed = 1;
nodes = (
"375 125 LINE",
"750 125 LINE",
"750 188 LINE",
"750 250 LINE",
"813 250 LINE",
"875 250 LINE",
"875 313 LINE",
"875 375 LINE",
"813 375 LINE",
"750 375 LINE",
"750 438 LINE",
"750 500 LINE",
"500 500 LINE",
"250 500 LINE",
"250 563 LINE",
"250 625 LINE",
"500 625 LINE",
"750 625 LINE",
"750 750 LINE",
"750 875 LINE",
"688 875 LINE",
"625 875 LINE",
"625 938 LINE",
"625 1000 LINE",
"438 1000 LINE",
"250 1000 LINE",
"250 938 LINE",
"250 875 LINE",
"188 875 LINE",
"125 875 LINE",
"125 750 LINE",
"125 625 LINE",
"63 625 LINE",
"0 625 LINE",
"0 563 LINE",
"0 500 LINE",
"63 500 LINE",
"125 500 LINE",
"125 438 LINE",
"125 375 LINE",
"375 375 LINE",
"625 375 LINE",
"625 313 LINE",
"625 250 LINE",
"313 250 LINE",
"0 250 LINE",
"0 188 LINE",
"0 125 LINE"
);
},
{
closed = 1;
nodes = (
"375 813 LINE",
"375 875 LINE",
"438 875 LINE",
"500 875 LINE",
"500 813 LINE",
"500 750 LINE",
"438 750 LINE",
"375 750 LINE"
);
}
);
width = 1000;
}
);
unicode = 015C;
},
{
glyphname = T;
layers = (
{
layerId = UUID0;
paths = (
{
closed = 1;
nodes = (
"500 125 LINE",
"625 125 LINE",
"625 500 LINE",
"625 875 LINE",
"750 875 LINE",
"875 875 LINE",
"875 938 LINE",
"875 1000 LINE",
"500 1000 LINE",
"125 1000 LINE",
"125 938 LINE",
"125 875 LINE",
"250 875 LINE",
"375 875 LINE",
"375 500 LINE",
"375 125 LINE"
);
}
);
width = 1000;
}
);
unicode = 0054;
},
{
glyphname = Tbar;
layers = (
{
layerId = UUID0;
paths = (
{
closed = 1;
nodes = (
"500 125 LINE",
"625 125 LINE",
"625 313 LINE",
"625 500 LINE",
"688 500 LINE",
"750 500 LINE",
"750 563 LINE",
"750 625 LINE",
"688 625 LINE",
"625 625 LINE",
"625 750 LINE",
"625 875 LINE",
"750 875 LINE",
"875 875 LINE",
"875 938 LINE",
"875 1000 LINE",
"500 1000 LINE",
"125 1000 LINE",
"125 938 LINE",
"125 875 LINE",
"250 875 LINE",
"375 875 LINE",
"375 688 LINE",
"375 500 LINE",
"313 500 LINE",
"250 500 LINE",
"250 438 LINE",
"250 375 LINE",
"313 375 LINE",
"375 375 LINE",
"375 250 LINE",
"375 125 LINE"
);
}
);
width = 1000;
}
);
unicode = 0166;
},
{
glyphname = Tcaron;
layers = (
{
layerId = UUID0;
paths = (
{
closed = 1;
nodes = (
"500 125 LINE",
"625 125 LINE",
"625 375 LINE",
"625 625 LINE",
"750 625 LINE",
"875 625 LINE",
"875 688 LINE",
"875 750 LINE",
"750 750 LINE",
"625 750 LINE",
"625 813 LINE",
"625 875 LINE",
"688 875 LINE",
"750 875 LINE",
"750 938 LINE",
"750 1000 LINE",
"688 1000 LINE",
"625 1000 LINE",
"625 938 LINE",
"625 875 LINE",
"500 875 LINE",
"375 875 LINE",
"375 938 LINE",
"375 1000 LINE",
"313 1000 LINE",
"250 1000 LINE",
"250 938 LINE",
"250 875 LINE",
"313 875 LINE",
"375 875 LINE",
"375 813 LINE",
"375 750 LINE",
"250 750 LINE",
"125 750 LINE",
"125 688 LINE",
"125 625 LINE",
"250 625 LINE",
"375 625 LINE",
"375 375 LINE",
"375 125 LINE"
);
}
);
width = 1000;
}
);
unicode = 0164;
},
{
glyphname = Tcommaaccent;
layers = (
{
layerId = UUID0;
paths = (
{
closed = 1;
nodes = (
"375 0 LINE",
"500 0 LINE",
"500 63 LINE",
"500 125 LINE",
"563 125 LINE",
"625 125 LINE",
"625 500 LINE",
"625 875 LINE",
"750 875 LINE",
"875 875 LINE",
"875 938 LINE",
"875 1000 LINE",
"500 1000 LINE",
"125 1000 LINE",
"125 938 LINE",
"125 875 LINE",
"250 875 LINE",
"375 875 LINE",
"375 563 LINE",
"375 250 LINE",
"438 250 LINE",
"500 250 LINE",
"500 188 LINE",
"500 125 LINE",
"375 125 LINE",
"250 125 LINE",
"250 63 LINE",
"250 0 LINE"
);
}
);
width = 1000;
}
);
unicode = 021A;
},
{
glyphname = U;
layers = (
{
layerId = UUID0;
paths = (
{
closed = 1;
nodes = (
"438 125 LINE",
"750 125 LINE",
"750 188 LINE",
"750 250 LINE",
"813 250 LINE",
"875 250 LINE",
"875 625 LINE",
"875 1000 LINE",
"750 1000 LINE",
"625 1000 LINE",
"625 625 LINE",
"625 250 LINE",
"438 250 LINE",
"250 250 LINE",
"250 625 LINE",
"250 1000 LINE",
"125 1000 LINE",
"0 1000 LINE",
"0 625 LINE",
"0 250 LINE",
"63 250 LINE",
"125 250 LINE",
"125 188 LINE",
"125 125 LINE"
);
}
);
width = 1000;
}
);
unicode = 0055;
},
{
glyphname = Uacute;
layers = (
{
layerId = UUID0;
paths = (
{
closed = 1;
nodes = (
"438 125 LINE",
"750 125 LINE",
"750 188 LINE",
"750 250 LINE",
"813 250 LINE",
"875 250 LINE",
"875 500 LINE",
"875 750 LINE",
"750 750 LINE",
"625 750 LINE",
"625 500 LINE",
"625 250 LINE",
"438 250 LINE",
"250 250 LINE",
"250 500 LINE",
"250 750 LINE",
"125 750 LINE",
"0 750 LINE",
"0 500 LINE",
"0 250 LINE",
"63 250 LINE",
"125 250 LINE",
"125 188 LINE",
"125 125 LINE"
);
},
{
closed = 1;
nodes = (
"438 750 LINE",
"500 750 LINE",
"500 813 LINE",
"500 875 LINE",
"563 875 LINE",
"625 875 LINE",
"625 938 LINE",
"625 1000 LINE",
"563 1000 LINE",
"500 1000 LINE",
"500 938 LINE",
"500 875 LINE",
"438 875 LINE",
"375 875 LINE",
"375 813 LINE",
"375 750 LINE"
);
}
);
width = 1000;
}
);
unicode = 00DA;
},
{
glyphname = Ubreve;
layers = (
{
layerId = UUID0;
paths = (
{
closed = 1;
nodes = (
"438 125 LINE",
"750 125 LINE",
"750 188 LINE",
"750 250 LINE",
"813 250 LINE",
"875 250 LINE",
"875 500 LINE",
"875 750 LINE",
"750 750 LINE",
"625 750 LINE",
"625 813 LINE",
"625 875 LINE",
"688 875 LINE",
"750 875 LINE",
"750 938 LINE",
"750 1000 LINE",
"688 1000 LINE",
"625 1000 LINE",
"625 938 LINE",
"625 875 LINE",
"438 875 LINE",
"250 875 LINE",
"250 938 LINE",
"250 1000 LINE",
"188 1000 LINE",
"125 1000 LINE",
"125 938 LINE",
"125 875 LINE",
"188 875 LINE",
"250 875 LINE",
"250 813 LINE",
"250 750 LINE",
"125 750 LINE",
"0 750 LINE",
"0 500 LINE",
"0 250 LINE",
"63 250 LINE",
"125 250 LINE",
"125 188 LINE",
"125 125 LINE"
);
},
{
closed = 1;
nodes = (
"250 500 LINE",
"250 750 LINE",
"438 750 LINE",
"625 750 LINE",
"625 500 LINE",
"625 250 LINE",
"438 250 LINE",
"250 250 LINE"
);
}
);
width = 1000;
}
);
unicode = 016C;
},
{
glyphname = Ucircumflex;
layers = (
{
layerId = UUID0;
paths = (
{
closed = 1;
nodes = (
"438 125 LINE",
"750 125 LINE",
"750 188 LINE",
"750 250 LINE",
"813 250 LINE",
"875 250 LINE",
"875 438 LINE",
"875 625 LINE",
"750 625 LINE",
"625 625 LINE",
"625 438 LINE",
"625 250 LINE",
"438 250 LINE",
"250 250 LINE",
"250 438 LINE",
"250 625 LINE",
"125 625 LINE",
"0 625 LINE",
"0 438 LINE",
"0 250 LINE",
"63 250 LINE",
"125 250 LINE",
"125 188 LINE",
"125 125 LINE"
);
},
{
closed = 1;
nodes = (
"250 750 LINE",
"375 750 LINE",
"375 813 LINE",
"375 875 LINE",
"438 875 LINE",
"500 875 LINE",
"500 813 LINE",
"500 750 LINE",
"625 750 LINE",
"750 750 LINE",
"750 813 LINE",
"750 875 LINE",
"688 875 LINE",
"625 875 LINE",
"625 938 LINE",
"625 1000 LINE",
"438 1000 LINE",
"250 1000 LINE",
"250 938 LINE",
"250 875 LINE",
"188 875 LINE",
"125 875 LINE",
"125 813 LINE",
"125 750 LINE"
);
}
);
width = 1000;
}
);
unicode = 00DB;
},
{
glyphname = Udieresis;
layers = (
{
layerId = UUID0;
paths = (
{
closed = 1;
nodes = (
"438 125 LINE",
"750 125 LINE",
"750 188 LINE",
"750 250 LINE",
"813 250 LINE",
"875 250 LINE",
"875 500 LINE",
"875 750 LINE",
"750 750 LINE",
"625 750 LINE",
"625 500 LINE",
"625 250 LINE",
"438 250 LINE",
"250 250 LINE",
"250 500 LINE",
"250 750 LINE",
"125 750 LINE",
"0 750 LINE",
"0 500 LINE",
"0 250 LINE",
"63 250 LINE",
"125 250 LINE",
"125 188 LINE",
"125 125 LINE"
);
},
{
closed = 1;
nodes = (
"250 875 LINE",
"375 875 LINE",
"375 938 LINE",
"375 1000 LINE",
"250 1000 LINE",
"125 1000 LINE",
"125 938 LINE",
"125 875 LINE"
);
},
{
closed = 1;
nodes = (
"625 875 LINE",
"750 875 LINE",
"750 938 LINE",
"750 1000 LINE",
"625 1000 LINE",
"500 1000 LINE",
"500 938 LINE",
"500 875 LINE"
);
}
);
width = 1000;
}
);
unicode = 00DC;
},
{
glyphname = Ugrave;
layers = (
{
layerId = UUID0;
paths = (
{
closed = 1;
nodes = (
"438 125 LINE",
"750 125 LINE",
"750 188 LINE",
"750 250 LINE",
"813 250 LINE",
"875 250 LINE",
"875 500 LINE",
"875 750 LINE",
"750 750 LINE",
"625 750 LINE",
"625 500 LINE",
"625 250 LINE",
"438 250 LINE",
"250 250 LINE",
"250 500 LINE",
"250 750 LINE",
"125 750 LINE",
"0 750 LINE",
"0 500 LINE",
"0 250 LINE",
"63 250 LINE",
"125 250 LINE",
"125 188 LINE",
"125 125 LINE"
);
},
{
closed = 1;
nodes = (
"438 750 LINE",
"500 750 LINE",
"500 813 LINE",
"500 875 LINE",
"438 875 LINE",
"375 875 LINE",
"375 938 LINE",
"375 1000 LINE",
"313 1000 LINE",
"250 1000 LINE",
"250 938 LINE",
"250 875 LINE",
"313 875 LINE",
"375 875 LINE",
"375 813 LINE",
"375 750 LINE"
);
}
);
width = 1000;
}
);
unicode = 00D9;
},
{
glyphname = Uhungarumlaut;
layers = (
{
layerId = UUID0;
paths = (
{
closed = 1;
nodes = (
"438 125 LINE",
"750 125 LINE",
"750 188 LINE",
"750 250 LINE",
"813 250 LINE",
"875 250 LINE",
"875 500 LINE",
"875 750 LINE",
"750 750 LINE",
"625 750 LINE",
"625 813 LINE",
"625 875 LINE",
"688 875 LINE",
"750 875 LINE",
"750 938 LINE",
"750 1000 LINE",
"688 1000 LINE",
"625 1000 LINE",
"625 938 LINE",
"625 875 LINE",
"563 875 LINE",
"500 875 LINE",
"500 813 LINE",
"500 750 LINE",
"563 750 LINE",
"625 750 LINE",
"625 500 LINE",
"625 250 LINE",
"438 250 LINE",
"250 250 LINE",
"250 563 LINE",
"250 875 LINE",
"313 875 LINE",
"375 875 LINE",
"375 938 LINE",
"375 1000 LINE",
"313 1000 LINE",
"250 1000 LINE",
"250 938 LINE",
"250 875 LINE",
"188 875 LINE",
"125 875 LINE",
"125 813 LINE",
"125 750 LINE",
"63 750 LINE",
"0 750 LINE",
"0 500 LINE",
"0 250 LINE",
"63 250 LINE",
"125 250 LINE",
"125 188 LINE",
"125 125 LINE"
);
}
);
width = 1000;
}
);
unicode = 0170;
},
{
glyphname = Umacron;
layers = (
{
layerId = UUID0;
paths = (
{
closed = 1;
nodes = (
"438 125 LINE",
"750 125 LINE",
"750 188 LINE",
"750 250 LINE",
"813 250 LINE",
"875 250 LINE",
"875 500 LINE",
"875 750 LINE",
"750 750 LINE",
"625 750 LINE",
"625 500 LINE",
"625 250 LINE",
"438 250 LINE",
"250 250 LINE",
"250 500 LINE",
"250 750 LINE",
"125 750 LINE",
"0 750 LINE",
"0 500 LINE",
"0 250 LINE",
"63 250 LINE",
"125 250 LINE",
"125 188 LINE",
"125 125 LINE"
);
},
{
closed = 1;
nodes = (
"438 875 LINE",
"750 875 LINE",
"750 938 LINE",
"750 1000 LINE",
"438 1000 LINE",
"125 1000 LINE",
"125 938 LINE",
"125 875 LINE"
);
}
);
width = 1000;
}
);
unicode = 016A;
},
{
glyphname = Uogonek;
layers = (
{
layerId = UUID0;
paths = (
{
closed = 1;
nodes = (
"500 0 LINE",
"625 0 LINE",
"625 63 LINE",
"625 125 LINE",
"500 125 LINE",
"375 125 LINE",
"375 188 LINE",
"375 250 LINE",
"438 250 LINE",
"500 250 LINE",
"500 313 LINE",
"500 375 LINE",
"625 375 LINE",
"750 375 LINE",
"750 438 LINE",
"750 500 LINE",
"813 500 LINE",
"875 500 LINE",
"875 750 LINE",
"875 1000 LINE",
"750 1000 LINE",
"625 1000 LINE",
"625 750 LINE",
"625 500 LINE",
"438 500 LINE",
"250 500 LINE",
"250 750 LINE",
"250 1000 LINE",
"125 1000 LINE",
"0 1000 LINE",
"0 750 LINE",
"0 500 LINE",
"63 500 LINE",
"125 500 LINE",
"125 438 LINE",
"125 375 LINE",
"250 375 LINE",
"375 375 LINE",
"375 313 LINE",
"375 250 LINE",
"313 250 LINE",
"250 250 LINE",
"250 188 LINE",
"250 125 LINE",
"313 125 LINE",
"375 125 LINE",
"375 63 LINE",
"375 0 LINE"
);
}
);
width = 1000;
}
);
unicode = 0172;
},
{
color = 8;
glyphname = Uring;
layers = (
{
layerId = UUID0;
paths = (
{
closed = 1;
nodes = (
"438 125 LINE",
"750 125 LINE",
"750 188 LINE",
"750 250 LINE",
"813 250 LINE",
"875 250 LINE",
"875 500 LINE",
"875 750 LINE",
"813 750 LINE",
"750 750 LINE",
"750 813 LINE",
"750 875 LINE",
"688 875 LINE",
"625 875 LINE",
"625 938 LINE",
"625 1000 LINE",
"438 1000 LINE",
"250 1000 LINE",
"250 938 LINE",
"250 875 LINE",
"188 875 LINE",
"125 875 LINE",
"125 813 LINE",
"125 750 LINE",
"63 750 LINE",
"0 750 LINE",
"0 500 LINE",
"0 250 LINE",
"63 250 LINE",
"125 250 LINE",
"125 188 LINE",
"125 125 LINE"
);
},
{
closed = 1;
nodes = (
"250 438 LINE",
"250 625 LINE",
"188 625 LINE",
"125 625 LINE",
"125 688 LINE",
"125 750 LINE",
"188 750 LINE",
"250 750 LINE",
"250 688 LINE",
"250 625 LINE",
"438 625 LINE",
"625 625 LINE",
"625 688 LINE",
"625 750 LINE",
"688 750 LINE",
"750 750 LINE",
"750 688 LINE",
"750 625 LINE",
"688 625 LINE",
"625 625 LINE",
"625 438 LINE",
"625 250 LINE",
"438 250 LINE",
"250 250 LINE"
);
},
{
closed = 1;
nodes = (
"375 813 LINE",
"375 875 LINE",
"438 875 LINE",
"500 875 LINE",
"500 813 LINE",
"500 750 LINE",
"438 750 LINE",
"375 750 LINE"
);
}
);
width = 1000;
}
);
unicode = 016E;
},
{
color = 8;
glyphname = Utilde;
layers = (
{
layerId = UUID0;
paths = (
{
closed = 1;
nodes = (
"438 125 LINE",
"750 125 LINE",
"750 188 LINE",
"750 250 LINE",
"813 250 LINE",
"875 250 LINE",
"875 500 LINE",
"875 750 LINE",
"750 750 LINE",
"625 750 LINE",
"625 813 LINE",
"625 875 LINE",
"688 875 LINE",
"750 875 LINE",
"750 938 LINE",
"750 1000 LINE",
"688 1000 LINE",
"625 1000 LINE",
"625 938 LINE",
"625 875 LINE",
"563 875 LINE",
"500 875 LINE",
"500 938 LINE",
"500 1000 LINE",
"375 1000 LINE",
"250 1000 LINE",
"250 938 LINE",
"250 875 LINE",
"188 875 LINE",
"125 875 LINE",
"125 813 LINE",
"125 750 LINE",
"63 750 LINE",
"0 750 LINE",
"0 500 LINE",
"0 250 LINE",
"63 250 LINE",
"125 250 LINE",
"125 188 LINE",
"125 125 LINE"
);
},
{
closed = 1;
nodes = (
"250 563 LINE",
"250 875 LINE",
"313 875 LINE",
"375 875 LINE",
"375 813 LINE",
"375 750 LINE",
"500 750 LINE",
"625 750 LINE",
"625 500 LINE",
"625 250 LINE",
"438 250 LINE",
"250 250 LINE"
);
}
);
width = 1000;
}
);
unicode = 0168;
},
{
color = 8;
glyphname = V;
layers = (
{
layerId = UUID0;
paths = (
{
closed = 1;
nodes = (
"438 125 LINE",
"500 125 LINE",
"500 188 LINE",
"500 250 LINE",
"563 250 LINE",
"625 250 LINE",
"625 313 LINE",
"625 375 LINE",
"688 375 LINE",
"750 375 LINE",
"750 438 LINE",
"750 500 LINE",
"813 500 LINE",
"875 500 LINE",
"875 750 LINE",
"875 1000 LINE",
"750 1000 LINE",
"625 1000 LINE",
"625 813 LINE",
"625 625 LINE",
"563 625 LINE",
"500 625 LINE",
"500 563 LINE",
"500 500 LINE",
"438 500 LINE",
"375 500 LINE",
"375 563 LINE",
"375 625 LINE",
"313 625 LINE",
"250 625 LINE",
"250 813 LINE",
"250 1000 LINE",
"125 1000 LINE",
"0 1000 LINE",
"0 750 LINE",
"0 500 LINE",
"63 500 LINE",
"125 500 LINE",
"125 438 LINE",
"125 375 LINE",
"188 375 LINE",
"250 375 LINE",
"250 313 LINE",
"250 250 LINE",
"313 250 LINE",
"375 250 LINE",
"375 188 LINE",
"375 125 LINE"
);
}
);
width = 1000;
}
);
unicode = 0056;
},
{
color = 4;
glyphname = W;
layers = (
{
layerId = UUID0;
paths = (
{
closed = 1;
nodes = (
"250 125 LINE",
"250 188 LINE",
"250 250 LINE",
"313 250 LINE",
"375 250 LINE",
"375 313 LINE",
"375 375 LINE",
"438 375 LINE",
"500 375 LINE",
"500 313 LINE",
"500 250 LINE",
"563 250 LINE",
"625 250 LINE",
"625 188 LINE",
"625 125 LINE",
"750 125 LINE",
"750 250 LINE",
"875 250 LINE",
"875 1000 LINE",
"750 1000 LINE",
"625 1000 LINE",
"625 813 LINE",
"625 500 LINE",
"563 500 LINE",
"500 500 LINE",
"500 938 LINE",
"500 1000 LINE",
"438 1000 LINE",
"375 1000 LINE",
"375 938 LINE",
"375 500 LINE",
"313 500 LINE",
"250 500 LINE",
"250 813 LINE",
"250 1000 LINE",
"125 1000 LINE",
"0 1000 LINE",
"0 250 LINE",
"125 250 LINE",
"125 125 LINE"
);
}
);
width = 1000;
},
{
associatedMasterId = UUID0;
layerId = "62AAF70F-68F8-409B-AE67-AF9327B3118D";
name = "Sep 5 16, 22:09";
paths = (
{
closed = 1;
nodes = (
"125 125 LINE",
"250 125 LINE",
"250 188 LINE",
"250 250 LINE",
"313 250 LINE",
"375 250 LINE",
"375 313 LINE",
"375 375 LINE",
"438 375 LINE",
"500 375 LINE",
"500 313 LINE",
"500 250 LINE",
"563 250 LINE",
"625 250 LINE",
"625 188 LINE",
"625 125 LINE",
"750 125 LINE",
"875 125 LINE",
"875 563 LINE",
"875 1000 LINE",
"750 1000 LINE",
"625 1000 LINE",
"625 813 LINE",
"625 625 LINE",
"563 625 LINE",
"500 625 LINE",
"500 688 LINE",
"500 750 LINE",
"438 750 LINE",
"375 750 LINE",
"375 688 LINE",
"375 625 LINE",
"313 625 LINE",
"250 625 LINE",
"250 813 LINE",
"250 1000 LINE",
"125 1000 LINE",
"0 1000 LINE",
"0 563 LINE",
"0 125 LINE"
);
}
);
width = 1000;
}
);
unicode = 0057;
},
{
color = 8;
glyphname = Wcircumflex;
layers = (
{
layerId = UUID0;
paths = (
{
closed = 1;
nodes = (
"188 125 LINE",
"375 125 LINE",
"375 188 LINE",
"375 250 LINE",
"438 250 LINE",
"500 250 LINE",
"500 188 LINE",
"500 125 LINE",
"688 125 LINE",
"875 125 LINE",
"875 438 LINE",
"875 750 LINE",
"813 750 LINE",
"750 750 LINE",
"750 813 LINE",
"750 875 LINE",
"688 875 LINE",
"625 875 LINE",
"625 938 LINE",
"625 1000 LINE",
"438 1000 LINE",
"250 1000 LINE",
"250 938 LINE",
"250 875 LINE",
"188 875 LINE",
"125 875 LINE",
"125 813 LINE",
"125 750 LINE",
"63 750 LINE",
"0 750 LINE",
"0 438 LINE",
"0 125 LINE"
);
},
{
closed = 1;
nodes = (
"250 625 LINE",
"250 750 LINE",
"313 750 LINE",
"375 750 LINE",
"375 813 LINE",
"375 875 LINE",
"438 875 LINE",
"500 875 LINE",
"500 813 LINE",
"500 750 LINE",
"563 750 LINE",
"625 750 LINE",
"625 625 LINE",
"625 500 LINE",
"563 500 LINE",
"500 500 LINE",
"500 563 LINE",
"500 625 LINE",
"438 625 LINE",
"375 625 LINE",
"375 563 LINE",
"375 500 LINE",
"313 500 LINE",
"250 500 LINE"
);
}
);
width = 1000;
}
);
unicode = 0174;
},
{
color = 4;
glyphname = X;
layers = (
{
layerId = UUID0;
paths = (
{
closed = 1;
nodes = (
"125 125 LINE",
"250 125 LINE",
"250 188 LINE",
"250 375 LINE",
"313 375 LINE",
"375 375 LINE",
"375 438 LINE",
"375 500 LINE",
"438 500 LINE",
"500 500 LINE",
"500 438 LINE",
"500 375 LINE",
"563 375 LINE",
"625 375 LINE",
"625 188 LINE",
"625 125 LINE",
"750 125 LINE",
"875 125 LINE",
"875 250 LINE",
"875 375 LINE",
"813 375 LINE",
"750 375 LINE",
"750 438 LINE",
"750 500 LINE",
"688 500 LINE",
"625 500 LINE",
"625 563 LINE",
"625 625 LINE",
"688 625 LINE",
"750 625 LINE",
"750 688 LINE",
"750 750 LINE",
"813 750 LINE",
"875 750 LINE",
"875 875 LINE",
"875 1000 LINE",
"750 1000 LINE",
"625 1000 LINE",
"625 938 LINE",
"625 750 LINE",
"563 750 LINE",
"500 750 LINE",
"500 688 LINE",
"500 625 LINE",
"438 625 LINE",
"375 625 LINE",
"375 688 LINE",
"375 750 LINE",
"313 750 LINE",
"250 750 LINE",
"250 938 LINE",
"250 1000 LINE",
"125 1000 LINE",
"0 1000 LINE",
"0 875 LINE",
"0 750 LINE",
"63 750 LINE",
"125 750 LINE",
"125 688 LINE",
"125 625 LINE",
"188 625 LINE",
"250 625 LINE",
"250 563 LINE",
"250 500 LINE",
"188 500 LINE",
"125 500 LINE",
"125 438 LINE",
"125 375 LINE",
"63 375 LINE",
"0 375 LINE",
"0 250 LINE",
"0 125 LINE"
);
}
);
width = 1000;
},
{
associatedMasterId = UUID0;
layerId = "9BEB485A-3F96-4A33-AF1B-A2B622B88401";
name = "Sep 5 16, 22:06";
paths = (
{
closed = 1;
nodes = (
"125 125 LINE",
"250 125 LINE",
"250 188 LINE",
"250 250 LINE",
"313 250 LINE",
"375 250 LINE",
"375 313 LINE",
"375 375 LINE",
"438 375 LINE",
"500 375 LINE",
"500 313 LINE",
"500 250 LINE",
"563 250 LINE",
"625 250 LINE",
"625 188 LINE",
"625 125 LINE",
"750 125 LINE",
"875 125 LINE",
"875 250 LINE",
"875 375 LINE",
"813 375 LINE",
"750 375 LINE",
"750 438 LINE",
"750 500 LINE",
"688 500 LINE",
"625 500 LINE",
"625 563 LINE",
"625 625 LINE",
"688 625 LINE",
"750 625 LINE",
"750 688 LINE",
"750 750 LINE",
"813 750 LINE",
"875 750 LINE",
"875 875 LINE",
"875 1000 LINE",
"750 1000 LINE",
"625 1000 LINE",
"625 938 LINE",
"625 875 LINE",
"563 875 LINE",
"500 875 LINE",
"500 813 LINE",
"500 750 LINE",
"438 750 LINE",
"375 750 LINE",
"375 813 LINE",
"375 875 LINE",
"313 875 LINE",
"250 875 LINE",
"250 938 LINE",
"250 1000 LINE",
"125 1000 LINE",
"0 1000 LINE",
"0 875 LINE",
"0 750 LINE",
"63 750 LINE",
"125 750 LINE",
"125 688 LINE",
"125 625 LINE",
"188 625 LINE",
"250 625 LINE",
"250 563 LINE",
"250 500 LINE",
"188 500 LINE",
"125 500 LINE",
"125 438 LINE",
"125 375 LINE",
"63 375 LINE",
"0 375 LINE",
"0 250 LINE",
"0 125 LINE"
);
}
);
width = 1000;
}
);
unicode = 0058;
},
{
glyphname = Y;
layers = (
{
layerId = UUID0;
paths = (
{
closed = 1;
nodes = (
"500 125 LINE",
"625 125 LINE",
"625 313 LINE",
"625 500 LINE",
"688 500 LINE",
"750 500 LINE",
"750 563 LINE",
"750 625 LINE",
"813 625 LINE",
"875 625 LINE",
"875 813 LINE",
"875 1000 LINE",
"750 1000 LINE",
"625 1000 LINE",
"625 813 LINE",
"625 625 LINE",
"500 625 LINE",
"375 625 LINE",
"375 813 LINE",
"375 1000 LINE",
"250 1000 LINE",
"125 1000 LINE",
"125 813 LINE",
"125 625 LINE",
"188 625 LINE",
"250 625 LINE",
"250 563 LINE",
"250 500 LINE",
"313 500 LINE",
"375 500 LINE",
"375 313 LINE",
"375 125 LINE"
);
}
);
width = 1000;
}
);
unicode = 0059;
},
{
glyphname = Yacute;
layers = (
{
layerId = UUID0;
paths = (
{
closed = 1;
nodes = (
"500 125 LINE",
"625 125 LINE",
"625 250 LINE",
"625 375 LINE",
"688 375 LINE",
"750 375 LINE",
"750 438 LINE",
"750 500 LINE",
"813 500 LINE",
"875 500 LINE",
"875 625 LINE",
"875 750 LINE",
"750 750 LINE",
"625 750 LINE",
"625 625 LINE",
"625 500 LINE",
"500 500 LINE",
"375 500 LINE",
"375 625 LINE",
"375 750 LINE",
"438 750 LINE",
"500 750 LINE",
"500 813 LINE",
"500 875 LINE",
"563 875 LINE",
"625 875 LINE",
"625 938 LINE",
"625 1000 LINE",
"563 1000 LINE",
"500 1000 LINE",
"500 938 LINE",
"500 875 LINE",
"438 875 LINE",
"375 875 LINE",
"375 813 LINE",
"375 750 LINE",
"250 750 LINE",
"125 750 LINE",
"125 625 LINE",
"125 500 LINE",
"188 500 LINE",
"250 500 LINE",
"250 438 LINE",
"250 375 LINE",
"313 375 LINE",
"375 375 LINE",
"375 250 LINE",
"375 125 LINE"
);
}
);
width = 1000;
}
);
unicode = 00DD;
},
{
glyphname = Ycircumflex;
layers = (
{
layerId = UUID0;
paths = (
{
closed = 1;
nodes = (
"500 125 LINE",
"625 125 LINE",
"625 250 LINE",
"625 375 LINE",
"688 375 LINE",
"750 375 LINE",
"750 438 LINE",
"750 500 LINE",
"813 500 LINE",
"875 500 LINE",
"875 625 LINE",
"875 750 LINE",
"813 750 LINE",
"750 750 LINE",
"750 813 LINE",
"750 875 LINE",
"688 875 LINE",
"625 875 LINE",
"625 938 LINE",
"625 1000 LINE",
"500 1000 LINE",
"375 1000 LINE",
"375 938 LINE",
"375 875 LINE",
"313 875 LINE",
"250 875 LINE",
"250 813 LINE",
"250 750 LINE",
"188 750 LINE",
"125 750 LINE",
"125 625 LINE",
"125 500 LINE",
"188 500 LINE",
"250 500 LINE",
"250 438 LINE",
"250 375 LINE",
"313 375 LINE",
"375 375 LINE",
"375 250 LINE",
"375 125 LINE"
);
},
{
closed = 1;
nodes = (
"375 688 LINE",
"375 875 LINE",
"500 875 LINE",
"625 875 LINE",
"625 688 LINE",
"625 500 LINE",
"500 500 LINE",
"375 500 LINE"
);
}
);
width = 1000;
}
);
unicode = 0176;
},
{
glyphname = Ydieresis;
layers = (
{
layerId = UUID0;
paths = (
{
closed = 1;
nodes = (
"500 125 LINE",
"625 125 LINE",
"625 250 LINE",
"625 375 LINE",
"688 375 LINE",
"750 375 LINE",
"750 438 LINE",
"750 500 LINE",
"813 500 LINE",
"875 500 LINE",
"875 625 LINE",
"875 750 LINE",
"750 750 LINE",
"625 750 LINE",
"625 625 LINE",
"625 500 LINE",
"500 500 LINE",
"375 500 LINE",
"375 625 LINE",
"375 750 LINE",
"250 750 LINE",
"125 750 LINE",
"125 625 LINE",
"125 500 LINE",
"188 500 LINE",
"250 500 LINE",
"250 438 LINE",
"250 375 LINE",
"313 375 LINE",
"375 375 LINE",
"375 250 LINE",
"375 125 LINE"
);
},
{
closed = 1;
nodes = (
"250 875 LINE",
"375 875 LINE",
"375 938 LINE",
"375 1000 LINE",
"250 1000 LINE",
"125 1000 LINE",
"125 938 LINE",
"125 875 LINE"
);
},
{
closed = 1;
nodes = (
"750 875 LINE",
"875 875 LINE",
"875 938 LINE",
"875 1000 LINE",
"750 1000 LINE",
"625 1000 LINE",
"625 938 LINE",
"625 875 LINE"
);
}
);
width = 1000;
}
);
unicode = 0178;
},
{
color = 8;
glyphname = Z;
layers = (
{
layerId = UUID0;
paths = (
{
closed = 1;
nodes = (
"438 125 LINE",
"875 125 LINE",
"875 188 LINE",
"875 250 LINE",
"625 250 LINE",
"375 250 LINE",
"375 313 LINE",
"375 375 LINE",
"438 375 LINE",
"500 375 LINE",
"500 438 LINE",
"500 500 LINE",
"563 500 LINE",
"625 500 LINE",
"625 563 LINE",
"625 625 LINE",
"688 625 LINE",
"750 625 LINE",
"750 688 LINE",
"750 750 LINE",
"813 750 LINE",
"875 750 LINE",
"875 875 LINE",
"875 1000 LINE",
"438 1000 LINE",
"0 1000 LINE",
"0 938 LINE",
"0 875 LINE",
"250 875 LINE",
"500 875 LINE",
"500 813 LINE",
"500 750 LINE",
"438 750 LINE",
"375 750 LINE",
"375 688 LINE",
"375 625 LINE",
"313 625 LINE",
"250 625 LINE",
"250 563 LINE",
"250 500 LINE",
"188 500 LINE",
"125 500 LINE",
"125 438 LINE",
"125 375 LINE",
"63 375 LINE",
"0 375 LINE",
"0 250 LINE",
"0 125 LINE"
);
}
);
width = 1000;
}
);
unicode = 005A;
},
{
color = 8;
glyphname = Zacute;
layers = (
{
layerId = UUID0;
paths = (
{
closed = 1;
nodes = (
"438 125 LINE",
"875 125 LINE",
"875 188 LINE",
"875 250 LINE",
"688 250 LINE",
"500 250 LINE",
"500 313 LINE",
"500 375 LINE",
"563 375 LINE",
"625 375 LINE",
"625 438 LINE",
"625 500 LINE",
"688 500 LINE",
"750 500 LINE",
"750 563 LINE",
"750 625 LINE",
"813 625 LINE",
"875 625 LINE",
"875 688 LINE",
"875 750 LINE",
"688 750 LINE",
"500 750 LINE",
"500 813 LINE",
"500 875 LINE",
"563 875 LINE",
"625 875 LINE",
"625 938 LINE",
"625 1000 LINE",
"563 1000 LINE",
"500 1000 LINE",
"500 938 LINE",
"500 875 LINE",
"438 875 LINE",
"375 875 LINE",
"375 813 LINE",
"375 750 LINE",
"188 750 LINE",
"0 750 LINE",
"0 688 LINE",
"0 625 LINE",
"188 625 LINE",
"375 625 LINE",
"375 563 LINE",
"375 500 LINE",
"313 500 LINE",
"250 500 LINE",
"250 438 LINE",
"250 375 LINE",
"188 375 LINE",
"125 375 LINE",
"125 313 LINE",
"125 250 LINE",
"63 250 LINE",
"0 250 LINE",
"0 188 LINE",
"0 125 LINE"
);
}
);
width = 1000;
}
);
unicode = 0179;
},
{
color = 8;
glyphname = Zcaron;
layers = (
{
layerId = UUID0;
paths = (
{
closed = 1;
nodes = (
"438 125 LINE",
"875 125 LINE",
"875 188 LINE",
"875 250 LINE",
"688 250 LINE",
"500 250 LINE",
"500 313 LINE",
"500 375 LINE",
"563 375 LINE",
"625 375 LINE",
"625 438 LINE",
"625 500 LINE",
"688 500 LINE",
"750 500 LINE",
"750 563 LINE",
"750 625 LINE",
"813 625 LINE",
"875 625 LINE",
"875 688 LINE",
"875 750 LINE",
"750 750 LINE",
"625 750 LINE",
"625 813 LINE",
"625 875 LINE",
"688 875 LINE",
"750 875 LINE",
"750 938 LINE",
"750 1000 LINE",
"625 1000 LINE",
"500 1000 LINE",
"500 938 LINE",
"500 875 LINE",
"438 875 LINE",
"375 875 LINE",
"375 938 LINE",
"375 1000 LINE",
"250 1000 LINE",
"125 1000 LINE",
"125 938 LINE",
"125 875 LINE",
"188 875 LINE",
"250 875 LINE",
"250 813 LINE",
"250 750 LINE",
"125 750 LINE",
"0 750 LINE",
"0 688 LINE",
"0 625 LINE",
"188 625 LINE",
"375 625 LINE",
"375 563 LINE",
"375 500 LINE",
"313 500 LINE",
"250 500 LINE",
"250 438 LINE",
"250 375 LINE",
"188 375 LINE",
"125 375 LINE",
"125 313 LINE",
"125 250 LINE",
"63 250 LINE",
"0 250 LINE",
"0 188 LINE",
"0 125 LINE"
);
}
);
width = 1000;
}
);
unicode = 017D;
},
{
color = 8;
glyphname = Zdotaccent;
layers = (
{
layerId = UUID0;
paths = (
{
closed = 1;
nodes = (
"438 125 LINE",
"875 125 LINE",
"875 188 LINE",
"875 250 LINE",
"688 250 LINE",
"500 250 LINE",
"500 313 LINE",
"500 375 LINE",
"563 375 LINE",
"625 375 LINE",
"625 438 LINE",
"625 500 LINE",
"688 500 LINE",
"750 500 LINE",
"750 563 LINE",
"750 625 LINE",
"813 625 LINE",
"875 625 LINE",
"875 688 LINE",
"875 750 LINE",
"438 750 LINE",
"0 750 LINE",
"0 688 LINE",
"0 625 LINE",
"188 625 LINE",
"375 625 LINE",
"375 563 LINE",
"375 500 LINE",
"313 500 LINE",
"250 500 LINE",
"250 438 LINE",
"250 375 LINE",
"188 375 LINE",
"125 375 LINE",
"125 313 LINE",
"125 250 LINE",
"63 250 LINE",
"0 250 LINE",
"0 188 LINE",
"0 125 LINE"
);
},
{
closed = 1;
nodes = (
"500 875 LINE",
"625 875 LINE",
"625 938 LINE",
"625 1000 LINE",
"500 1000 LINE",
"375 1000 LINE",
"375 938 LINE",
"375 875 LINE"
);
}
);
width = 1000;
}
);
unicode = 017B;
},
{
glyphname = a;
layers = (
{
layerId = UUID0;
paths = (
{
closed = 1;
nodes = (
"500 125 LINE",
"875 125 LINE",
"875 375 LINE",
"875 625 LINE",
"813 625 LINE",
"750 625 LINE",
"750 688 LINE",
"750 750 LINE",
"438 750 LINE",
"125 750 LINE",
"125 688 LINE",
"125 625 LINE",
"375 625 LINE",
"625 625 LINE",
"625 563 LINE",
"625 500 LINE",
"375 500 LINE",
"125 500 LINE",
"125 438 LINE",
"125 375 LINE",
"63 375 LINE",
"0 375 LINE",
"0 313 LINE",
"0 250 LINE",
"63 250 LINE",
"125 250 LINE",
"125 188 LINE",
"125 125 LINE"
);
},
{
closed = 1;
nodes = (
"250 313 LINE",
"250 375 LINE",
"438 375 LINE",
"625 375 LINE",
"625 313 LINE",
"625 250 LINE",
"438 250 LINE",
"250 250 LINE"
);
}
);
width = 1000;
}
);
unicode = 0061;
},
{
glyphname = aacute;
layers = (
{
layerId = UUID0;
paths = (
{
closed = 1;
nodes = (
"500 125 LINE",
"875 125 LINE",
"875 375 LINE",
"875 625 LINE",
"813 625 LINE",
"750 625 LINE",
"750 688 LINE",
"750 750 LINE",
"625 750 LINE",
"500 750 LINE",
"500 813 LINE",
"500 875 LINE",
"563 875 LINE",
"625 875 LINE",
"625 938 LINE",
"625 1000 LINE",
"563 1000 LINE",
"500 1000 LINE",
"500 938 LINE",
"500 875 LINE",
"438 875 LINE",
"375 875 LINE",
"375 813 LINE",
"375 750 LINE",
"250 750 LINE",
"125 750 LINE",
"125 688 LINE",
"125 625 LINE",
"375 625 LINE",
"625 625 LINE",
"625 563 LINE",
"625 500 LINE",
"375 500 LINE",
"125 500 LINE",
"125 438 LINE",
"125 375 LINE",
"63 375 LINE",
"0 375 LINE",
"0 313 LINE",
"0 250 LINE",
"63 250 LINE",
"125 250 LINE",
"125 188 LINE",
"125 125 LINE"
);
},
{
closed = 1;
nodes = (
"250 313 LINE",
"250 375 LINE",
"438 375 LINE",
"625 375 LINE",
"625 313 LINE",
"625 250 LINE",
"438 250 LINE",
"250 250 LINE"
);
}
);
width = 1000;
}
);
unicode = 00E1;
},
{
color = 8;
glyphname = abreve;
layers = (
{
layerId = UUID0;
paths = (
{
closed = 1;
nodes = (
"500 125 LINE",
"875 125 LINE",
"875 375 LINE",
"875 625 LINE",
"813 625 LINE",
"750 625 LINE",
"750 688 LINE",
"750 750 LINE",
"688 750 LINE",
"625 750 LINE",
"625 813 LINE",
"625 875 LINE",
"688 875 LINE",
"750 875 LINE",
"750 938 LINE",
"750 1000 LINE",
"688 1000 LINE",
"625 1000 LINE",
"625 938 LINE",
"625 875 LINE",
"438 875 LINE",
"250 875 LINE",
"250 938 LINE",
"250 1000 LINE",
"188 1000 LINE",
"125 1000 LINE",
"125 938 LINE",
"125 875 LINE",
"188 875 LINE",
"250 875 LINE",
"250 813 LINE",
"250 750 LINE",
"188 750 LINE",
"125 750 LINE",
"125 688 LINE",
"125 625 LINE",
"375 625 LINE",
"625 625 LINE",
"625 563 LINE",
"625 500 LINE",
"375 500 LINE",
"125 500 LINE",
"125 438 LINE",
"125 375 LINE",
"63 375 LINE",
"0 375 LINE",
"0 313 LINE",
"0 250 LINE",
"63 250 LINE",
"125 250 LINE",
"125 188 LINE",
"125 125 LINE"
);
},
{
closed = 1;
nodes = (
"250 313 LINE",
"250 375 LINE",
"438 375 LINE",
"625 375 LINE",
"625 313 LINE",
"625 250 LINE",
"438 250 LINE",
"250 250 LINE"
);
}
);
width = 1000;
}
);
unicode = 0103;
},
{
color = 8;
glyphname = acircumflex;
layers = (
{
layerId = UUID0;
paths = (
{
closed = 1;
nodes = (
"500 125 LINE",
"875 125 LINE",
"875 375 LINE",
"875 625 LINE",
"813 625 LINE",
"750 625 LINE",
"750 750 LINE",
"750 875 LINE",
"688 875 LINE",
"625 875 LINE",
"625 938 LINE",
"625 1000 LINE",
"438 1000 LINE",
"250 1000 LINE",
"250 938 LINE",
"250 875 LINE",
"188 875 LINE",
"125 875 LINE",
"125 750 LINE",
"125 625 LINE",
"375 625 LINE",
"625 625 LINE",
"625 563 LINE",
"625 500 LINE",
"375 500 LINE",
"125 500 LINE",
"125 438 LINE",
"125 375 LINE",
"63 375 LINE",
"0 375 LINE",
"0 313 LINE",
"0 250 LINE",
"63 250 LINE",
"125 250 LINE",
"125 188 LINE",
"125 125 LINE"
);
},
{
closed = 1;
nodes = (
"250 313 LINE",
"250 375 LINE",
"438 375 LINE",
"625 375 LINE",
"625 313 LINE",
"625 250 LINE",
"438 250 LINE",
"250 250 LINE"
);
},
{
closed = 1;
nodes = (
"375 813 LINE",
"375 875 LINE",
"438 875 LINE",
"500 875 LINE",
"500 813 LINE",
"500 750 LINE",
"438 750 LINE",
"375 750 LINE"
);
}
);
width = 1000;
}
);
unicode = 00E2;
},
{
glyphname = adieresis;
layers = (
{
layerId = UUID0;
paths = (
{
closed = 1;
nodes = (
"500 125 LINE",
"875 125 LINE",
"875 375 LINE",
"875 625 LINE",
"813 625 LINE",
"750 625 LINE",
"750 688 LINE",
"750 750 LINE",
"438 750 LINE",
"125 750 LINE",
"125 688 LINE",
"125 625 LINE",
"375 625 LINE",
"625 625 LINE",
"625 563 LINE",
"625 500 LINE",
"375 500 LINE",
"125 500 LINE",
"125 438 LINE",
"125 375 LINE",
"63 375 LINE",
"0 375 LINE",
"0 313 LINE",
"0 250 LINE",
"63 250 LINE",
"125 250 LINE",
"125 188 LINE",
"125 125 LINE"
);
},
{
closed = 1;
nodes = (
"250 313 LINE",
"250 375 LINE",
"438 375 LINE",
"625 375 LINE",
"625 313 LINE",
"625 250 LINE",
"438 250 LINE",
"250 250 LINE"
);
},
{
closed = 1;
nodes = (
"250 875 LINE",
"375 875 LINE",
"375 938 LINE",
"375 1000 LINE",
"250 1000 LINE",
"125 1000 LINE",
"125 938 LINE",
"125 875 LINE"
);
},
{
closed = 1;
nodes = (
"625 875 LINE",
"750 875 LINE",
"750 938 LINE",
"750 1000 LINE",
"625 1000 LINE",
"500 1000 LINE",
"500 938 LINE",
"500 875 LINE"
);
}
);
width = 1000;
}
);
unicode = 00E4;
},
{
glyphname = agrave;
layers = (
{
layerId = UUID0;
paths = (
{
closed = 1;
nodes = (
"500 125 LINE",
"875 125 LINE",
"875 375 LINE",
"875 625 LINE",
"813 625 LINE",
"750 625 LINE",
"750 688 LINE",
"750 750 LINE",
"625 750 LINE",
"500 750 LINE",
"500 813 LINE",
"500 875 LINE",
"438 875 LINE",
"375 875 LINE",
"375 938 LINE",
"375 1000 LINE",
"313 1000 LINE",
"250 1000 LINE",
"250 938 LINE",
"250 875 LINE",
"313 875 LINE",
"375 875 LINE",
"375 813 LINE",
"375 750 LINE",
"250 750 LINE",
"125 750 LINE",
"125 688 LINE",
"125 625 LINE",
"375 625 LINE",
"625 625 LINE",
"625 563 LINE",
"625 500 LINE",
"375 500 LINE",
"125 500 LINE",
"125 438 LINE",
"125 375 LINE",
"63 375 LINE",
"0 375 LINE",
"0 313 LINE",
"0 250 LINE",
"63 250 LINE",
"125 250 LINE",
"125 188 LINE",
"125 125 LINE"
);
},
{
closed = 1;
nodes = (
"250 313 LINE",
"250 375 LINE",
"438 375 LINE",
"625 375 LINE",
"625 313 LINE",
"625 250 LINE",
"438 250 LINE",
"250 250 LINE"
);
}
);
width = 1000;
}
);
unicode = 00E0;
},
{
glyphname = amacron;
layers = (
{
layerId = UUID0;
paths = (
{
closed = 1;
nodes = (
"500 125 LINE",
"875 125 LINE",
"875 375 LINE",
"875 625 LINE",
"813 625 LINE",
"750 625 LINE",
"750 688 LINE",
"750 750 LINE",
"438 750 LINE",
"125 750 LINE",
"125 688 LINE",
"125 625 LINE",
"375 625 LINE",
"625 625 LINE",
"625 563 LINE",
"625 500 LINE",
"375 500 LINE",
"125 500 LINE",
"125 438 LINE",
"125 375 LINE",
"63 375 LINE",
"0 375 LINE",
"0 313 LINE",
"0 250 LINE",
"63 250 LINE",
"125 250 LINE",
"125 188 LINE",
"125 125 LINE"
);
},
{
closed = 1;
nodes = (
"250 313 LINE",
"250 375 LINE",
"438 375 LINE",
"625 375 LINE",
"625 313 LINE",
"625 250 LINE",
"438 250 LINE",
"250 250 LINE"
);
},
{
closed = 1;
nodes = (
"438 875 LINE",
"750 875 LINE",
"750 938 LINE",
"750 1000 LINE",
"438 1000 LINE",
"125 1000 LINE",
"125 938 LINE",
"125 875 LINE"
);
}
);
width = 1000;
}
);
unicode = 0101;
},
{
glyphname = aogonek;
layers = (
{
layerId = UUID0;
paths = (
{
closed = 1;
nodes = (
"500 0 LINE",
"625 0 LINE",
"625 63 LINE",
"625 125 LINE",
"500 125 LINE",
"375 125 LINE",
"375 188 LINE",
"375 250 LINE",
"438 250 LINE",
"500 250 LINE",
"500 313 LINE",
"500 375 LINE",
"688 375 LINE",
"875 375 LINE",
"875 625 LINE",
"875 875 LINE",
"813 875 LINE",
"750 875 LINE",
"750 938 LINE",
"750 1000 LINE",
"438 1000 LINE",
"125 1000 LINE",
"125 938 LINE",
"125 875 LINE",
"375 875 LINE",
"625 875 LINE",
"625 813 LINE",
"625 750 LINE",
"375 750 LINE",
"125 750 LINE",
"125 688 LINE",
"125 625 LINE",
"63 625 LINE",
"0 625 LINE",
"0 563 LINE",
"0 500 LINE",
"63 500 LINE",
"125 500 LINE",
"125 438 LINE",
"125 375 LINE",
"250 375 LINE",
"375 375 LINE",
"375 313 LINE",
"375 250 LINE",
"313 250 LINE",
"250 250 LINE",
"250 188 LINE",
"250 125 LINE",
"313 125 LINE",
"375 125 LINE",
"375 63 LINE",
"375 0 LINE"
);
},
{
closed = 1;
nodes = (
"250 563 LINE",
"250 625 LINE",
"438 625 LINE",
"625 625 LINE",
"625 563 LINE",
"625 500 LINE",
"438 500 LINE",
"250 500 LINE"
);
}
);
width = 1000;
}
);
unicode = 0105;
},
{
color = 8;
glyphname = aring;
layers = (
{
layerId = UUID0;
paths = (
{
closed = 1;
nodes = (
"500 125 LINE",
"875 125 LINE",
"875 375 LINE",
"875 625 LINE",
"813 625 LINE",
"750 625 LINE",
"750 688 LINE",
"750 750 LINE",
"688 750 LINE",
"625 750 LINE",
"625 813 LINE",
"625 875 LINE",
"563 875 LINE",
"500 875 LINE",
"500 938 LINE",
"500 1000 LINE",
"438 1000 LINE",
"375 1000 LINE",
"375 938 LINE",
"375 875 LINE",
"313 875 LINE",
"250 875 LINE",
"250 813 LINE",
"250 750 LINE",
"188 750 LINE",
"125 750 LINE",
"125 688 LINE",
"125 625 LINE",
"375 625 LINE",
"625 625 LINE",
"625 563 LINE",
"625 500 LINE",
"375 500 LINE",
"125 500 LINE",
"125 438 LINE",
"125 375 LINE",
"63 375 LINE",
"0 375 LINE",
"0 313 LINE",
"0 250 LINE",
"63 250 LINE",
"125 250 LINE",
"125 188 LINE",
"125 125 LINE"
);
},
{
closed = 1;
nodes = (
"250 313 LINE",
"250 375 LINE",
"438 375 LINE",
"625 375 LINE",
"625 313 LINE",
"625 250 LINE",
"438 250 LINE",
"250 250 LINE"
);
},
{
closed = 1;
nodes = (
"375 813 LINE",
"375 875 LINE",
"438 875 LINE",
"500 875 LINE",
"500 813 LINE",
"500 750 LINE",
"438 750 LINE",
"375 750 LINE"
);
}
);
width = 1000;
}
);
unicode = 00E5;
},
{
color = 8;
glyphname = atilde;
layers = (
{
layerId = UUID0;
paths = (
{
closed = 1;
nodes = (
"500 125 LINE",
"875 125 LINE",
"875 375 LINE",
"875 625 LINE",
"813 625 LINE",
"750 625 LINE",
"750 688 LINE",
"750 750 LINE",
"688 750 LINE",
"625 750 LINE",
"625 813 LINE",
"625 875 LINE",
"688 875 LINE",
"750 875 LINE",
"750 938 LINE",
"750 1000 LINE",
"688 1000 LINE",
"625 1000 LINE",
"625 938 LINE",
"625 875 LINE",
"563 875 LINE",
"500 875 LINE",
"500 938 LINE",
"500 1000 LINE",
"375 1000 LINE",
"250 1000 LINE",
"250 938 LINE",
"250 875 LINE",
"188 875 LINE",
"125 875 LINE",
"125 750 LINE",
"125 625 LINE",
"375 625 LINE",
"625 625 LINE",
"625 563 LINE",
"625 500 LINE",
"375 500 LINE",
"125 500 LINE",
"125 438 LINE",
"125 375 LINE",
"63 375 LINE",
"0 375 LINE",
"0 313 LINE",
"0 250 LINE",
"63 250 LINE",
"125 250 LINE",
"125 188 LINE",
"125 125 LINE"
);
},
{
closed = 1;
nodes = (
"250 313 LINE",
"250 375 LINE",
"438 375 LINE",
"625 375 LINE",
"625 313 LINE",
"625 250 LINE",
"438 250 LINE",
"250 250 LINE"
);
},
{
closed = 1;
nodes = (
"250 813 LINE",
"250 875 LINE",
"313 875 LINE",
"375 875 LINE",
"375 813 LINE",
"375 750 LINE",
"313 750 LINE",
"250 750 LINE"
);
}
);
width = 1000;
}
);
unicode = 00E3;
},
{
glyphname = ae;
layers = (
{
layerId = UUID0;
paths = (
{
closed = 1;
nodes = (
"438 125 LINE",
"750 125 LINE",
"750 188 LINE",
"750 250 LINE",
"625 250 LINE",
"500 250 LINE",
"500 313 LINE",
"500 375 LINE",
"688 375 LINE",
"875 375 LINE",
"875 500 LINE",
"875 625 LINE",
"813 625 LINE",
"750 625 LINE",
"750 688 LINE",
"750 750 LINE",
"438 750 LINE",
"125 750 LINE",
"125 688 LINE",
"125 625 LINE",
"250 625 LINE",
"375 625 LINE",
"375 563 LINE",
"375 500 LINE",
"250 500 LINE",
"125 500 LINE",
"125 438 LINE",
"125 375 LINE",
"63 375 LINE",
"0 375 LINE",
"0 313 LINE",
"0 250 LINE",
"63 250 LINE",
"125 250 LINE",
"125 188 LINE",
"125 125 LINE"
);
},
{
closed = 1;
nodes = (
"250 313 LINE",
"250 375 LINE",
"313 375 LINE",
"375 375 LINE",
"375 313 LINE",
"375 250 LINE",
"313 250 LINE",
"250 250 LINE"
);
},
{
closed = 1;
nodes = (
"500 563 LINE",
"500 625 LINE",
"563 625 LINE",
"625 625 LINE",
"625 563 LINE",
"625 500 LINE",
"563 500 LINE",
"500 500 LINE"
);
}
);
width = 1000;
}
);
unicode = 00E6;
},
{
glyphname = b;
layers = (
{
layerId = UUID0;
paths = (
{
closed = 1;
nodes = (
"438 125 LINE",
"750 125 LINE",
"750 188 LINE",
"750 250 LINE",
"813 250 LINE",
"875 250 LINE",
"875 438 LINE",
"875 625 LINE",
"813 625 LINE",
"750 625 LINE",
"750 688 LINE",
"750 750 LINE",
"500 750 LINE",
"250 750 LINE",
"250 875 LINE",
"250 1000 LINE",
"125 1000 LINE",
"0 1000 LINE",
"0 625 LINE",
"0 250 LINE",
"63 250 LINE",
"125 250 LINE",
"125 188 LINE",
"125 125 LINE"
);
},
{
closed = 1;
nodes = (
"250 438 LINE",
"250 625 LINE",
"438 625 LINE",
"625 625 LINE",
"625 438 LINE",
"625 250 LINE",
"438 250 LINE",
"250 250 LINE"
);
}
);
width = 1000;
}
);
unicode = 0062;
},
{
glyphname = c;
layers = (
{
layerId = UUID0;
paths = (
{
closed = 1;
nodes = (
"500 125 LINE",
"875 125 LINE",
"875 188 LINE",
"875 250 LINE",
"563 250 LINE",
"250 250 LINE",
"250 438 LINE",
"250 625 LINE",
"563 625 LINE",
"875 625 LINE",
"875 688 LINE",
"875 750 LINE",
"500 750 LINE",
"125 750 LINE",
"125 688 LINE",
"125 625 LINE",
"63 625 LINE",
"0 625 LINE",
"0 438 LINE",
"0 250 LINE",
"63 250 LINE",
"125 250 LINE",
"125 188 LINE",
"125 125 LINE"
);
}
);
width = 1000;
}
);
unicode = 0063;
},
{
color = 8;
glyphname = cacute;
layers = (
{
layerId = UUID0;
paths = (
{
closed = 1;
nodes = (
"500 125 LINE",
"875 125 LINE",
"875 188 LINE",
"875 250 LINE",
"563 250 LINE",
"250 250 LINE",
"250 438 LINE",
"250 625 LINE",
"563 625 LINE",
"875 625 LINE",
"875 688 LINE",
"875 750 LINE",
"688 750 LINE",
"500 750 LINE",
"500 813 LINE",
"500 875 LINE",
"563 875 LINE",
"625 875 LINE",
"625 938 LINE",
"625 1000 LINE",
"563 1000 LINE",
"500 1000 LINE",
"500 938 LINE",
"500 875 LINE",
"438 875 LINE",
"375 875 LINE",
"375 813 LINE",
"375 750 LINE",
"250 750 LINE",
"125 750 LINE",
"125 688 LINE",
"125 625 LINE",
"63 625 LINE",
"0 625 LINE",
"0 438 LINE",
"0 250 LINE",
"63 250 LINE",
"125 250 LINE",
"125 188 LINE",
"125 125 LINE"
);
}
);
width = 1000;
}
);
unicode = 0107;
},
{
color = 8;
glyphname = ccaron;
layers = (
{
layerId = UUID0;
paths = (
{
closed = 1;
nodes = (
"500 125 LINE",
"875 125 LINE",
"875 188 LINE",
"875 250 LINE",
"563 250 LINE",
"250 250 LINE",
"250 438 LINE",
"250 625 LINE",
"563 625 LINE",
"875 625 LINE",
"875 688 LINE",
"875 750 LINE",
"750 750 LINE",
"625 750 LINE",
"625 813 LINE",
"625 875 LINE",
"688 875 LINE",
"750 875 LINE",
"750 938 LINE",
"750 1000 LINE",
"625 1000 LINE",
"500 1000 LINE",
"500 938 LINE",
"500 875 LINE",
"438 875 LINE",
"375 875 LINE",
"375 938 LINE",
"375 1000 LINE",
"250 1000 LINE",
"125 1000 LINE",
"125 938 LINE",
"125 875 LINE",
"188 875 LINE",
"250 875 LINE",
"250 813 LINE",
"250 750 LINE",
"188 750 LINE",
"125 750 LINE",
"125 688 LINE",
"125 625 LINE",
"63 625 LINE",
"0 625 LINE",
"0 438 LINE",
"0 250 LINE",
"63 250 LINE",
"125 250 LINE",
"125 188 LINE",
"125 125 LINE"
);
}
);
width = 1000;
}
);
unicode = 010D;
},
{
glyphname = ccedilla;
layers = (
{
layerId = UUID0;
paths = (
{
closed = 1;
nodes = (
"375 0 LINE",
"500 0 LINE",
"500 63 LINE",
"500 125 LINE",
"563 125 LINE",
"625 125 LINE",
"625 188 LINE",
"625 250 LINE",
"750 250 LINE",
"875 250 LINE",
"875 313 LINE",
"875 375 LINE",
"563 375 LINE",
"250 375 LINE",
"250 500 LINE",
"250 625 LINE",
"563 625 LINE",
"875 625 LINE",
"875 688 LINE",
"875 750 LINE",
"500 750 LINE",
"125 750 LINE",
"125 688 LINE",
"125 625 LINE",
"63 625 LINE",
"0 625 LINE",
"0 500 LINE",
"0 375 LINE",
"63 375 LINE",
"125 375 LINE",
"125 313 LINE",
"125 250 LINE",
"313 250 LINE",
"500 250 LINE",
"500 188 LINE",
"500 125 LINE",
"375 125 LINE",
"250 125 LINE",
"250 63 LINE",
"250 0 LINE"
);
}
);
width = 1000;
}
);
unicode = 00E7;
},
{
color = 8;
glyphname = ccircumflex;
layers = (
{
layerId = UUID0;
paths = (
{
closed = 1;
nodes = (
"500 125 LINE",
"875 125 LINE",
"875 188 LINE",
"875 250 LINE",
"563 250 LINE",
"250 250 LINE",
"250 438 LINE",
"250 625 LINE",
"563 625 LINE",
"875 625 LINE",
"875 688 LINE",
"875 750 LINE",
"813 750 LINE",
"750 750 LINE",
"750 813 LINE",
"750 875 LINE",
"688 875 LINE",
"625 875 LINE",
"625 938 LINE",
"625 1000 LINE",
"438 1000 LINE",
"250 1000 LINE",
"250 938 LINE",
"250 875 LINE",
"188 875 LINE",
"125 875 LINE",
"125 750 LINE",
"125 625 LINE",
"63 625 LINE",
"0 625 LINE",
"0 438 LINE",
"0 250 LINE",
"63 250 LINE",
"125 250 LINE",
"125 188 LINE",
"125 125 LINE"
);
},
{
closed = 1;
nodes = (
"375 813 LINE",
"375 875 LINE",
"438 875 LINE",
"500 875 LINE",
"500 813 LINE",
"500 750 LINE",
"438 750 LINE",
"375 750 LINE"
);
}
);
width = 1000;
}
);
unicode = 0109;
},
{
glyphname = cdotaccent;
layers = (
{
layerId = UUID0;
paths = (
{
closed = 1;
nodes = (
"500 125 LINE",
"875 125 LINE",
"875 188 LINE",
"875 250 LINE",
"563 250 LINE",
"250 250 LINE",
"250 438 LINE",
"250 625 LINE",
"563 625 LINE",
"875 625 LINE",
"875 688 LINE",
"875 750 LINE",
"500 750 LINE",
"125 750 LINE",
"125 688 LINE",
"125 625 LINE",
"63 625 LINE",
"0 625 LINE",
"0 438 LINE",
"0 250 LINE",
"63 250 LINE",
"125 250 LINE",
"125 188 LINE",
"125 125 LINE"
);
},
{
closed = 1;
nodes = (
"500 875 LINE",
"625 875 LINE",
"625 938 LINE",
"625 1000 LINE",
"500 1000 LINE",
"375 1000 LINE",
"375 938 LINE",
"375 875 LINE"
);
}
);
width = 1000;
}
);
unicode = 010B;
},
{
glyphname = d;
layers = (
{
layerId = UUID0;
paths = (
{
closed = 1;
nodes = (
"500 125 LINE",
"875 125 LINE",
"875 563 LINE",
"875 1000 LINE",
"750 1000 LINE",
"625 1000 LINE",
"625 875 LINE",
"625 750 LINE",
"375 750 LINE",
"125 750 LINE",
"125 688 LINE",
"125 625 LINE",
"63 625 LINE",
"0 625 LINE",
"0 438 LINE",
"0 250 LINE",
"63 250 LINE",
"125 250 LINE",
"125 188 LINE",
"125 125 LINE"
);
},
{
closed = 1;
nodes = (
"250 438 LINE",
"250 625 LINE",
"438 625 LINE",
"625 625 LINE",
"625 438 LINE",
"625 250 LINE",
"438 250 LINE",
"250 250 LINE"
);
}
);
width = 1000;
}
);
unicode = 0064;
},
{
glyphname = eth;
layers = (
{
layerId = UUID0;
paths = (
{
closed = 1;
nodes = (
"438 125 LINE",
"750 125 LINE",
"750 188 LINE",
"750 250 LINE",
"813 250 LINE",
"875 250 LINE",
"875 375 LINE",
"875 500 LINE",
"813 500 LINE",
"750 500 LINE",
"750 563 LINE",
"750 625 LINE",
"688 625 LINE",
"625 625 LINE",
"625 750 LINE",
"625 875 LINE",
"688 875 LINE",
"750 875 LINE",
"750 938 LINE",
"750 1000 LINE",
"688 1000 LINE",
"625 1000 LINE",
"625 938 LINE",
"625 875 LINE",
"500 875 LINE",
"375 875 LINE",
"375 938 LINE",
"375 1000 LINE",
"250 1000 LINE",
"125 1000 LINE",
"125 875 LINE",
"125 750 LINE",
"63 750 LINE",
"0 750 LINE",
"0 688 LINE",
"0 625 LINE",
"63 625 LINE",
"125 625 LINE",
"125 563 LINE",
"125 500 LINE",
"63 500 LINE",
"0 500 LINE",
"0 375 LINE",
"0 250 LINE",
"63 250 LINE",
"125 250 LINE",
"125 188 LINE",
"125 125 LINE"
);
},
{
closed = 1;
nodes = (
"250 375 LINE",
"250 500 LINE",
"438 500 LINE",
"625 500 LINE",
"625 375 LINE",
"625 250 LINE",
"438 250 LINE",
"250 250 LINE"
);
},
{
closed = 1;
nodes = (
"125 688 LINE",
"125 750 LINE",
"250 750 LINE",
"375 750 LINE",
"375 688 LINE",
"375 625 LINE",
"250 625 LINE",
"125 625 LINE"
);
}
);
width = 1000;
}
);
unicode = 00F0;
},
{
glyphname = dcaron;
layers = (
{
layerId = UUID0;
paths = (
{
closed = 1;
nodes = (
"375 125 LINE",
"625 125 LINE",
"625 563 LINE",
"625 1000 LINE",
"500 1000 LINE",
"375 1000 LINE",
"375 875 LINE",
"375 750 LINE",
"250 750 LINE",
"125 750 LINE",
"125 688 LINE",
"125 625 LINE",
"63 625 LINE",
"0 625 LINE",
"0 438 LINE",
"0 250 LINE",
"63 250 LINE",
"125 250 LINE",
"125 188 LINE",
"125 125 LINE"
);
},
{
closed = 1;
nodes = (
"250 438 LINE",
"250 625 LINE",
"313 625 LINE",
"375 625 LINE",
"375 438 LINE",
"375 250 LINE",
"313 250 LINE",
"250 250 LINE"
);
},
{
closed = 1;
nodes = (
"813 625 LINE",
"875 625 LINE",
"875 688 LINE",
"875 750 LINE",
"938 750 LINE",
"1000 750 LINE",
"1000 875 LINE",
"1000 1000 LINE",
"875 1000 LINE",
"750 1000 LINE",
"750 813 LINE",
"750 625 LINE"
);
}
);
width = 1000;
}
);
unicode = 010F;
},
{
glyphname = dcroat;
layers = (
{
layerId = UUID0;
paths = (
{
closed = 1;
nodes = (
"438 125 LINE",
"750 125 LINE",
"750 438 LINE",
"750 750 LINE",
"813 750 LINE",
"875 750 LINE",
"875 813 LINE",
"875 875 LINE",
"813 875 LINE",
"750 875 LINE",
"750 938 LINE",
"750 1000 LINE",
"625 1000 LINE",
"500 1000 LINE",
"500 938 LINE",
"500 875 LINE",
"438 875 LINE",
"375 875 LINE",
"375 813 LINE",
"375 750 LINE",
"250 750 LINE",
"125 750 LINE",
"125 688 LINE",
"125 625 LINE",
"63 625 LINE",
"0 625 LINE",
"0 438 LINE",
"0 250 LINE",
"63 250 LINE",
"125 250 LINE",
"125 188 LINE",
"125 125 LINE"
);
},
{
closed = 1;
nodes = (
"250 438 LINE",
"250 625 LINE",
"375 625 LINE",
"500 625 LINE",
"500 438 LINE",
"500 250 LINE",
"375 250 LINE",
"250 250 LINE"
);
}
);
width = 1000;
}
);
unicode = 0111;
},
{
glyphname = e;
layers = (
{
layerId = UUID0;
paths = (
{
closed = 1;
nodes = (
"438 125 LINE",
"750 125 LINE",
"750 188 LINE",
"750 250 LINE",
"500 250 LINE",
"250 250 LINE",
"250 313 LINE",
"250 375 LINE",
"563 375 LINE",
"875 375 LINE",
"875 500 LINE",
"875 625 LINE",
"813 625 LINE",
"750 625 LINE",
"750 688 LINE",
"750 750 LINE",
"438 750 LINE",
"125 750 LINE",
"125 688 LINE",
"125 625 LINE",
"63 625 LINE",
"0 625 LINE",
"0 438 LINE",
"0 250 LINE",
"63 250 LINE",
"125 250 LINE",
"125 188 LINE",
"125 125 LINE"
);
},
{
closed = 1;
nodes = (
"250 563 LINE",
"250 625 LINE",
"438 625 LINE",
"625 625 LINE",
"625 563 LINE",
"625 500 LINE",
"438 500 LINE",
"250 500 LINE"
);
}
);
width = 1000;
}
);
unicode = 0065;
},
{
color = 8;
glyphname = eacute;
layers = (
{
layerId = UUID0;
paths = (
{
closed = 1;
nodes = (
"438 125 LINE",
"750 125 LINE",
"750 188 LINE",
"750 250 LINE",
"500 250 LINE",
"250 250 LINE",
"250 313 LINE",
"250 375 LINE",
"563 375 LINE",
"875 375 LINE",
"875 500 LINE",
"875 625 LINE",
"813 625 LINE",
"750 625 LINE",
"750 688 LINE",
"750 750 LINE",
"625 750 LINE",
"500 750 LINE",
"500 813 LINE",
"500 875 LINE",
"563 875 LINE",
"625 875 LINE",
"625 938 LINE",
"625 1000 LINE",
"563 1000 LINE",
"500 1000 LINE",
"500 938 LINE",
"500 875 LINE",
"438 875 LINE",
"375 875 LINE",
"375 813 LINE",
"375 750 LINE",
"250 750 LINE",
"125 750 LINE",
"125 688 LINE",
"125 625 LINE",
"63 625 LINE",
"0 625 LINE",
"0 438 LINE",
"0 250 LINE",
"63 250 LINE",
"125 250 LINE",
"125 188 LINE",
"125 125 LINE"
);
},
{
closed = 1;
nodes = (
"250 563 LINE",
"250 625 LINE",
"438 625 LINE",
"625 625 LINE",
"625 563 LINE",
"625 500 LINE",
"438 500 LINE",
"250 500 LINE"
);
}
);
width = 1000;
}
);
unicode = 00E9;
},
{
color = 8;
glyphname = ebreve;
layers = (
{
layerId = UUID0;
paths = (
{
closed = 1;
nodes = (
"438 125 LINE",
"750 125 LINE",
"750 188 LINE",
"750 250 LINE",
"500 250 LINE",
"250 250 LINE",
"250 313 LINE",
"250 375 LINE",
"563 375 LINE",
"875 375 LINE",
"875 500 LINE",
"875 625 LINE",
"813 625 LINE",
"750 625 LINE",
"750 688 LINE",
"750 750 LINE",
"688 750 LINE",
"625 750 LINE",
"625 813 LINE",
"625 875 LINE",
"688 875 LINE",
"750 875 LINE",
"750 938 LINE",
"750 1000 LINE",
"688 1000 LINE",
"625 1000 LINE",
"625 938 LINE",
"625 875 LINE",
"438 875 LINE",
"250 875 LINE",
"250 938 LINE",
"250 1000 LINE",
"188 1000 LINE",
"125 1000 LINE",
"125 938 LINE",
"125 875 LINE",
"188 875 LINE",
"250 875 LINE",
"250 813 LINE",
"250 750 LINE",
"188 750 LINE",
"125 750 LINE",
"125 688 LINE",
"125 625 LINE",
"63 625 LINE",
"0 625 LINE",
"0 438 LINE",
"0 250 LINE",
"63 250 LINE",
"125 250 LINE",
"125 188 LINE",
"125 125 LINE"
);
},
{
closed = 1;
nodes = (
"250 563 LINE",
"250 625 LINE",
"438 625 LINE",
"625 625 LINE",
"625 563 LINE",
"625 500 LINE",
"438 500 LINE",
"250 500 LINE"
);
}
);
width = 1000;
}
);
unicode = 0115;
},
{
color = 8;
glyphname = ecaron;
layers = (
{
layerId = UUID0;
paths = (
{
closed = 1;
nodes = (
"438 125 LINE",
"750 125 LINE",
"750 188 LINE",
"750 250 LINE",
"500 250 LINE",
"250 250 LINE",
"250 313 LINE",
"250 375 LINE",
"563 375 LINE",
"875 375 LINE",
"875 500 LINE",
"875 625 LINE",
"813 625 LINE",
"750 625 LINE",
"750 688 LINE",
"750 750 LINE",
"688 750 LINE",
"625 750 LINE",
"625 813 LINE",
"625 875 LINE",
"688 875 LINE",
"750 875 LINE",
"750 938 LINE",
"750 1000 LINE",
"625 1000 LINE",
"500 1000 LINE",
"500 938 LINE",
"500 875 LINE",
"438 875 LINE",
"375 875 LINE",
"375 938 LINE",
"375 1000 LINE",
"250 1000 LINE",
"125 1000 LINE",
"125 938 LINE",
"125 875 LINE",
"188 875 LINE",
"250 875 LINE",
"250 813 LINE",
"250 750 LINE",
"188 750 LINE",
"125 750 LINE",
"125 688 LINE",
"125 625 LINE",
"63 625 LINE",
"0 625 LINE",
"0 438 LINE",
"0 250 LINE",
"63 250 LINE",
"125 250 LINE",
"125 188 LINE",
"125 125 LINE"
);
},
{
closed = 1;
nodes = (
"250 563 LINE",
"250 625 LINE",
"438 625 LINE",
"625 625 LINE",
"625 563 LINE",
"625 500 LINE",
"438 500 LINE",
"250 500 LINE"
);
}
);
width = 1000;
}
);
unicode = 011B;
},
{
color = 8;
glyphname = ecircumflex;
layers = (
{
layerId = UUID0;
paths = (
{
closed = 1;
nodes = (
"438 125 LINE",
"750 125 LINE",
"750 188 LINE",
"750 250 LINE",
"500 250 LINE",
"250 250 LINE",
"250 313 LINE",
"250 375 LINE",
"563 375 LINE",
"875 375 LINE",
"875 500 LINE",
"875 625 LINE",
"813 625 LINE",
"750 625 LINE",
"750 750 LINE",
"750 875 LINE",
"688 875 LINE",
"625 875 LINE",
"625 938 LINE",
"625 1000 LINE",
"438 1000 LINE",
"250 1000 LINE",
"250 938 LINE",
"250 875 LINE",
"188 875 LINE",
"125 875 LINE",
"125 750 LINE",
"125 625 LINE",
"63 625 LINE",
"0 625 LINE",
"0 438 LINE",
"0 250 LINE",
"63 250 LINE",
"125 250 LINE",
"125 188 LINE",
"125 125 LINE"
);
},
{
closed = 1;
nodes = (
"250 563 LINE",
"250 625 LINE",
"438 625 LINE",
"625 625 LINE",
"625 563 LINE",
"625 500 LINE",
"438 500 LINE",
"250 500 LINE"
);
},
{
closed = 1;
nodes = (
"375 813 LINE",
"375 875 LINE",
"438 875 LINE",
"500 875 LINE",
"500 813 LINE",
"500 750 LINE",
"438 750 LINE",
"375 750 LINE"
);
}
);
width = 1000;
}
);
unicode = 00EA;
},
{
glyphname = edieresis;
layers = (
{
layerId = UUID0;
paths = (
{
closed = 1;
nodes = (
"438 125 LINE",
"750 125 LINE",
"750 188 LINE",
"750 250 LINE",
"500 250 LINE",
"250 250 LINE",
"250 313 LINE",
"250 375 LINE",
"563 375 LINE",
"875 375 LINE",
"875 500 LINE",
"875 625 LINE",
"813 625 LINE",
"750 625 LINE",
"750 688 LINE",
"750 750 LINE",
"438 750 LINE",
"125 750 LINE",
"125 688 LINE",
"125 625 LINE",
"63 625 LINE",
"0 625 LINE",
"0 438 LINE",
"0 250 LINE",
"63 250 LINE",
"125 250 LINE",
"125 188 LINE",
"125 125 LINE"
);
},
{
closed = 1;
nodes = (
"250 563 LINE",
"250 625 LINE",
"438 625 LINE",
"625 625 LINE",
"625 563 LINE",
"625 500 LINE",
"438 500 LINE",
"250 500 LINE"
);
},
{
closed = 1;
nodes = (
"250 875 LINE",
"375 875 LINE",
"375 938 LINE",
"375 1000 LINE",
"250 1000 LINE",
"125 1000 LINE",
"125 938 LINE",
"125 875 LINE"
);
},
{
closed = 1;
nodes = (
"625 875 LINE",
"750 875 LINE",
"750 938 LINE",
"750 1000 LINE",
"625 1000 LINE",
"500 1000 LINE",
"500 938 LINE",
"500 875 LINE"
);
}
);
width = 1000;
}
);
unicode = 00EB;
},
{
glyphname = edotaccent;
layers = (
{
layerId = UUID0;
paths = (
{
closed = 1;
nodes = (
"438 125 LINE",
"750 125 LINE",
"750 188 LINE",
"750 250 LINE",
"500 250 LINE",
"250 250 LINE",
"250 313 LINE",
"250 375 LINE",
"563 375 LINE",
"875 375 LINE",
"875 500 LINE",
"875 625 LINE",
"813 625 LINE",
"750 625 LINE",
"750 688 LINE",
"750 750 LINE",
"438 750 LINE",
"125 750 LINE",
"125 688 LINE",
"125 625 LINE",
"63 625 LINE",
"0 625 LINE",
"0 438 LINE",
"0 250 LINE",
"63 250 LINE",
"125 250 LINE",
"125 188 LINE",
"125 125 LINE"
);
},
{
closed = 1;
nodes = (
"250 563 LINE",
"250 625 LINE",
"438 625 LINE",
"625 625 LINE",
"625 563 LINE",
"625 500 LINE",
"438 500 LINE",
"250 500 LINE"
);
},
{
closed = 1;
nodes = (
"500 875 LINE",
"625 875 LINE",
"625 938 LINE",
"625 1000 LINE",
"500 1000 LINE",
"375 1000 LINE",
"375 938 LINE",
"375 875 LINE"
);
}
);
width = 1000;
}
);
unicode = 0117;
},
{
color = 8;
glyphname = egrave;
layers = (
{
layerId = UUID0;
paths = (
{
closed = 1;
nodes = (
"438 125 LINE",
"750 125 LINE",
"750 188 LINE",
"750 250 LINE",
"500 250 LINE",
"250 250 LINE",
"250 313 LINE",
"250 375 LINE",
"563 375 LINE",
"875 375 LINE",
"875 500 LINE",
"875 625 LINE",
"813 625 LINE",
"750 625 LINE",
"750 688 LINE",
"750 750 LINE",
"625 750 LINE",
"500 750 LINE",
"500 813 LINE",
"500 875 LINE",
"438 875 LINE",
"375 875 LINE",
"375 938 LINE",
"375 1000 LINE",
"313 1000 LINE",
"250 1000 LINE",
"250 938 LINE",
"250 875 LINE",
"313 875 LINE",
"375 875 LINE",
"375 813 LINE",
"375 750 LINE",
"250 750 LINE",
"125 750 LINE",
"125 688 LINE",
"125 625 LINE",
"63 625 LINE",
"0 625 LINE",
"0 438 LINE",
"0 250 LINE",
"63 250 LINE",
"125 250 LINE",
"125 188 LINE",
"125 125 LINE"
);
},
{
closed = 1;
nodes = (
"250 563 LINE",
"250 625 LINE",
"438 625 LINE",
"625 625 LINE",
"625 563 LINE",
"625 500 LINE",
"438 500 LINE",
"250 500 LINE"
);
}
);
width = 1000;
}
);
unicode = 00E8;
},
{
glyphname = emacron;
layers = (
{
layerId = UUID0;
paths = (
{
closed = 1;
nodes = (
"438 125 LINE",
"750 125 LINE",
"750 188 LINE",
"750 250 LINE",
"500 250 LINE",
"250 250 LINE",
"250 313 LINE",
"250 375 LINE",
"563 375 LINE",
"875 375 LINE",
"875 500 LINE",
"875 625 LINE",
"813 625 LINE",
"750 625 LINE",
"750 688 LINE",
"750 750 LINE",
"438 750 LINE",
"125 750 LINE",
"125 688 LINE",
"125 625 LINE",
"63 625 LINE",
"0 625 LINE",
"0 438 LINE",
"0 250 LINE",
"63 250 LINE",
"125 250 LINE",
"125 188 LINE",
"125 125 LINE"
);
},
{
closed = 1;
nodes = (
"250 563 LINE",
"250 625 LINE",
"438 625 LINE",
"625 625 LINE",
"625 563 LINE",
"625 500 LINE",
"438 500 LINE",
"250 500 LINE"
);
},
{
closed = 1;
nodes = (
"438 875 LINE",
"750 875 LINE",
"750 938 LINE",
"750 1000 LINE",
"438 1000 LINE",
"125 1000 LINE",
"125 938 LINE",
"125 875 LINE"
);
}
);
width = 1000;
}
);
unicode = 0113;
},
{
glyphname = eogonek;
layers = (
{
layerId = UUID0;
paths = (
{
closed = 1;
nodes = (
"500 0 LINE",
"625 0 LINE",
"625 63 LINE",
"625 125 LINE",
"500 125 LINE",
"375 125 LINE",
"375 188 LINE",
"375 250 LINE",
"438 250 LINE",
"500 250 LINE",
"500 313 LINE",
"500 375 LINE",
"625 375 LINE",
"750 375 LINE",
"750 438 LINE",
"750 500 LINE",
"500 500 LINE",
"250 500 LINE",
"250 563 LINE",
"250 625 LINE",
"563 625 LINE",
"875 625 LINE",
"875 750 LINE",
"875 875 LINE",
"813 875 LINE",
"750 875 LINE",
"750 938 LINE",
"750 1000 LINE",
"438 1000 LINE",
"125 1000 LINE",
"125 938 LINE",
"125 875 LINE",
"63 875 LINE",
"0 875 LINE",
"0 688 LINE",
"0 500 LINE",
"63 500 LINE",
"125 500 LINE",
"125 438 LINE",
"125 375 LINE",
"250 375 LINE",
"375 375 LINE",
"375 313 LINE",
"375 250 LINE",
"313 250 LINE",
"250 250 LINE",
"250 188 LINE",
"250 125 LINE",
"313 125 LINE",
"375 125 LINE",
"375 63 LINE",
"375 0 LINE"
);
},
{
closed = 1;
nodes = (
"250 813 LINE",
"250 875 LINE",
"438 875 LINE",
"625 875 LINE",
"625 813 LINE",
"625 750 LINE",
"438 750 LINE",
"250 750 LINE"
);
}
);
width = 1000;
}
);
unicode = 0119;
},
{
glyphname = f;
layers = (
{
layerId = UUID0;
paths = (
{
closed = 1;
nodes = (
"500 125 LINE",
"625 125 LINE",
"625 375 LINE",
"625 625 LINE",
"750 625 LINE",
"875 625 LINE",
"875 688 LINE",
"875 750 LINE",
"750 750 LINE",
"625 750 LINE",
"625 813 LINE",
"625 875 LINE",
"750 875 LINE",
"875 875 LINE",
"875 938 LINE",
"875 1000 LINE",
"688 1000 LINE",
"500 1000 LINE",
"500 938 LINE",
"500 875 LINE",
"438 875 LINE",
"375 875 LINE",
"375 813 LINE",
"375 750 LINE",
"250 750 LINE",
"125 750 LINE",
"125 688 LINE",
"125 625 LINE",
"250 625 LINE",
"375 625 LINE",
"375 375 LINE",
"375 125 LINE"
);
}
);
width = 1000;
}
);
unicode = 0066;
},
{
glyphname = g;
layers = (
{
layerId = UUID0;
paths = (
{
closed = 1;
nodes = (
"438 0 LINE",
"750 0 LINE",
"750 63 LINE",
"750 125 LINE",
"813 125 LINE",
"875 125 LINE",
"875 438 LINE",
"875 750 LINE",
"500 750 LINE",
"125 750 LINE",
"125 688 LINE",
"125 625 LINE",
"63 625 LINE",
"0 625 LINE",
"0 500 LINE",
"0 375 LINE",
"63 375 LINE",
"125 375 LINE",
"125 313 LINE",
"125 250 LINE",
"375 250 LINE",
"625 250 LINE",
"625 188 LINE",
"625 125 LINE",
"375 125 LINE",
"125 125 LINE",
"125 63 LINE",
"125 0 LINE"
);
},
{
closed = 1;
nodes = (
"250 500 LINE",
"250 625 LINE",
"438 625 LINE",
"625 625 LINE",
"625 500 LINE",
"625 375 LINE",
"438 375 LINE",
"250 375 LINE"
);
}
);
width = 1000;
}
);
unicode = 0067;
},
{
color = 8;
glyphname = gbreve;
layers = (
{
layerId = UUID0;
paths = (
{
closed = 1;
nodes = (
"438 0 LINE",
"750 0 LINE",
"750 63 LINE",
"750 125 LINE",
"813 125 LINE",
"875 125 LINE",
"875 438 LINE",
"875 750 LINE",
"750 750 LINE",
"625 750 LINE",
"625 813 LINE",
"625 875 LINE",
"688 875 LINE",
"750 875 LINE",
"750 938 LINE",
"750 1000 LINE",
"688 1000 LINE",
"625 1000 LINE",
"625 938 LINE",
"625 875 LINE",
"438 875 LINE",
"250 875 LINE",
"250 938 LINE",
"250 1000 LINE",
"188 1000 LINE",
"125 1000 LINE",
"125 938 LINE",
"125 875 LINE",
"188 875 LINE",
"250 875 LINE",
"250 813 LINE",
"250 750 LINE",
"188 750 LINE",
"125 750 LINE",
"125 688 LINE",
"125 625 LINE",
"63 625 LINE",
"0 625 LINE",
"0 500 LINE",
"0 375 LINE",
"63 375 LINE",
"125 375 LINE",
"125 313 LINE",
"125 250 LINE",
"375 250 LINE",
"625 250 LINE",
"625 188 LINE",
"625 125 LINE",
"375 125 LINE",
"125 125 LINE",
"125 63 LINE",
"125 0 LINE"
);
},
{
closed = 1;
nodes = (
"250 500 LINE",
"250 625 LINE",
"438 625 LINE",
"625 625 LINE",
"625 500 LINE",
"625 375 LINE",
"438 375 LINE",
"250 375 LINE"
);
}
);
width = 1000;
}
);
unicode = 011F;
},
{
color = 8;
glyphname = gcircumflex;
layers = (
{
layerId = UUID0;
paths = (
{
closed = 1;
nodes = (
"438 0 LINE",
"750 0 LINE",
"750 63 LINE",
"750 125 LINE",
"813 125 LINE",
"875 125 LINE",
"875 438 LINE",
"875 750 LINE",
"813 750 LINE",
"750 750 LINE",
"750 813 LINE",
"750 875 LINE",
"688 875 LINE",
"625 875 LINE",
"625 938 LINE",
"625 1000 LINE",
"438 1000 LINE",
"250 1000 LINE",
"250 938 LINE",
"250 875 LINE",
"188 875 LINE",
"125 875 LINE",
"125 750 LINE",
"125 625 LINE",
"63 625 LINE",
"0 625 LINE",
"0 500 LINE",
"0 375 LINE",
"63 375 LINE",
"125 375 LINE",
"125 313 LINE",
"125 250 LINE",
"375 250 LINE",
"625 250 LINE",
"625 188 LINE",
"625 125 LINE",
"375 125 LINE",
"125 125 LINE",
"125 63 LINE",
"125 0 LINE"
);
},
{
closed = 1;
nodes = (
"250 500 LINE",
"250 625 LINE",
"438 625 LINE",
"625 625 LINE",
"625 500 LINE",
"625 375 LINE",
"438 375 LINE",
"250 375 LINE"
);
},
{
closed = 1;
nodes = (
"375 813 LINE",
"375 875 LINE",
"438 875 LINE",
"500 875 LINE",
"500 813 LINE",
"500 750 LINE",
"438 750 LINE",
"375 750 LINE"
);
}
);
width = 1000;
}
);
unicode = 011D;
},
{
color = 8;
glyphname = gcommaaccent;
layers = (
{
layerId = UUID0;
paths = (
{
closed = 1;
nodes = (
"438 0 LINE",
"750 0 LINE",
"750 63 LINE",
"750 125 LINE",
"813 125 LINE",
"875 125 LINE",
"875 438 LINE",
"875 750 LINE",
"688 750 LINE",
"500 750 LINE",
"500 813 LINE",
"500 875 LINE",
"563 875 LINE",
"625 875 LINE",
"625 938 LINE",
"625 1000 LINE",
"500 1000 LINE",
"375 1000 LINE",
"375 938 LINE",
"375 875 LINE",
"313 875 LINE",
"250 875 LINE",
"250 813 LINE",
"250 750 LINE",
"188 750 LINE",
"125 750 LINE",
"125 688 LINE",
"125 625 LINE",
"63 625 LINE",
"0 625 LINE",
"0 500 LINE",
"0 375 LINE",
"63 375 LINE",
"125 375 LINE",
"125 313 LINE",
"125 250 LINE",
"375 250 LINE",
"625 250 LINE",
"625 188 LINE",
"625 125 LINE",
"375 125 LINE",
"125 125 LINE",
"125 63 LINE",
"125 0 LINE"
);
},
{
closed = 1;
nodes = (
"250 500 LINE",
"250 625 LINE",
"438 625 LINE",
"625 625 LINE",
"625 500 LINE",
"625 375 LINE",
"438 375 LINE",
"250 375 LINE"
);
}
);
width = 1000;
}
);
unicode = 0123;
},
{
glyphname = gdotaccent;
layers = (
{
layerId = UUID0;
paths = (
{
closed = 1;
nodes = (
"438 0 LINE",
"750 0 LINE",
"750 63 LINE",
"750 125 LINE",
"813 125 LINE",
"875 125 LINE",
"875 438 LINE",
"875 750 LINE",
"500 750 LINE",
"125 750 LINE",
"125 688 LINE",
"125 625 LINE",
"63 625 LINE",
"0 625 LINE",
"0 500 LINE",
"0 375 LINE",
"63 375 LINE",
"125 375 LINE",
"125 313 LINE",
"125 250 LINE",
"375 250 LINE",
"625 250 LINE",
"625 188 LINE",
"625 125 LINE",
"375 125 LINE",
"125 125 LINE",
"125 63 LINE",
"125 0 LINE"
);
},
{
closed = 1;
nodes = (
"250 500 LINE",
"250 625 LINE",
"438 625 LINE",
"625 625 LINE",
"625 500 LINE",
"625 375 LINE",
"438 375 LINE",
"250 375 LINE"
);
},
{
closed = 1;
nodes = (
"500 875 LINE",
"625 875 LINE",
"625 938 LINE",
"625 1000 LINE",
"500 1000 LINE",
"375 1000 LINE",
"375 938 LINE",
"375 875 LINE"
);
}
);
width = 1000;
}
);
unicode = 0121;
},
{
glyphname = h;
layers = (
{
layerId = UUID0;
paths = (
{
closed = 1;
nodes = (
"125 125 LINE",
"250 125 LINE",
"250 375 LINE",
"250 625 LINE",
"438 625 LINE",
"625 625 LINE",
"625 375 LINE",
"625 125 LINE",
"750 125 LINE",
"875 125 LINE",
"875 375 LINE",
"875 625 LINE",
"813 625 LINE",
"750 625 LINE",
"750 688 LINE",
"750 750 LINE",
"500 750 LINE",
"250 750 LINE",
"250 875 LINE",
"250 1000 LINE",
"125 1000 LINE",
"0 1000 LINE",
"0 563 LINE",
"0 125 LINE"
);
}
);
width = 1000;
}
);
unicode = 0068;
},
{
color = 4;
glyphname = hbar;
layers = (
{
background = {
guideLines = (
{
position = "{322, 253}";
}
);
paths = (
{
closed = 1;
nodes = (
"125 875 LINE",
"63 875 LINE",
"0 875 LINE",
"0 813 LINE",
"0 750 LINE",
"63 750 LINE",
"125 750 LINE",
"125 438 LINE",
"125 125 LINE",
"250 125 LINE",
"375 125 LINE",
"375 313 LINE",
"375 500 LINE",
"500 500 LINE",
"625 500 LINE",
"625 313 LINE",
"625 125 LINE",
"750 125 LINE",
"875 125 LINE",
"875 313 LINE",
"875 500 LINE",
"813 500 LINE",
"750 500 LINE",
"750 563 LINE",
"750 625 LINE",
"563 625 LINE",
"375 625 LINE",
"375 688 LINE",
"375 750 LINE",
"500 750 LINE",
"625 750 LINE",
"625 813 LINE",
"625 875 LINE",
"500 875 LINE",
"375 875 LINE",
"375 938 LINE",
"375 1000 LINE",
"250 1000 LINE",
"125 1000 LINE",
"125 938 LINE"
);
}
);
};
layerId = UUID0;
paths = (
{
closed = 1;
nodes = (
"250 125 LINE",
"375 125 LINE",
"375 313 LINE",
"375 500 LINE",
"500 500 LINE",
"625 500 LINE",
"625 313 LINE",
"625 125 LINE",
"750 125 LINE",
"875 125 LINE",
"875 313 LINE",
"875 500 LINE",
"813 500 LINE",
"750 500 LINE",
"750 563 LINE",
"750 625 LINE",
"563 625 LINE",
"375 625 LINE",
"375 688 LINE",
"375 750 LINE",
"500 750 LINE",
"625 750 LINE",
"625 813 LINE",
"625 875 LINE",
"500 875 LINE",
"375 875 LINE",
"375 938 LINE",
"375 1000 LINE",
"250 1000 LINE",
"125 1000 LINE",
"125 938 LINE",
"125 875 LINE",
"63 875 LINE",
"0 875 LINE",
"0 813 LINE",
"0 750 LINE",
"63 750 LINE",
"125 750 LINE",
"125 438 LINE",
"125 125 LINE"
);
}
);
width = 1000;
}
);
unicode = 0127;
},
{
glyphname = hcircumflex;
layers = (
{
layerId = UUID0;
paths = (
{
closed = 1;
nodes = (
"125 125 LINE",
"250 125 LINE",
"250 313 LINE",
"250 500 LINE",
"438 500 LINE",
"625 500 LINE",
"625 313 LINE",
"625 125 LINE",
"750 125 LINE",
"875 125 LINE",
"875 313 LINE",
"875 500 LINE",
"813 500 LINE",
"750 500 LINE",
"750 563 LINE",
"750 625 LINE",
"500 625 LINE",
"250 625 LINE",
"250 688 LINE",
"250 750 LINE",
"313 750 LINE",
"375 750 LINE",
"375 813 LINE",
"375 875 LINE",
"438 875 LINE",
"500 875 LINE",
"500 813 LINE",
"500 750 LINE",
"625 750 LINE",
"750 750 LINE",
"750 813 LINE",
"750 875 LINE",
"688 875 LINE",
"625 875 LINE",
"625 938 LINE",
"625 1000 LINE",
"438 1000 LINE",
"250 1000 LINE",
"250 938 LINE",
"250 875 LINE",
"125 875 LINE",
"0 875 LINE",
"0 500 LINE",
"0 125 LINE"
);
}
);
width = 1000;
}
);
unicode = 0125;
},
{
glyphname = i;
layers = (
{
layerId = UUID0;
paths = (
{
closed = 1;
nodes = (
"500 125 LINE",
"875 125 LINE",
"875 188 LINE",
"875 250 LINE",
"750 250 LINE",
"625 250 LINE",
"625 500 LINE",
"625 750 LINE",
"438 750 LINE",
"250 750 LINE",
"250 688 LINE",
"250 625 LINE",
"313 625 LINE",
"375 625 LINE",
"375 438 LINE",
"375 250 LINE",
"250 250 LINE",
"125 250 LINE",
"125 188 LINE",
"125 125 LINE"
);
},
{
closed = 1;
nodes = (
"500 875 LINE",
"625 875 LINE",
"625 938 LINE",
"625 1000 LINE",
"500 1000 LINE",
"375 1000 LINE",
"375 938 LINE",
"375 875 LINE"
);
}
);
width = 1000;
}
);
unicode = 0069;
},
{
glyphname = idotless;
layers = (
{
layerId = UUID0;
paths = (
{
closed = 1;
nodes = (
"500 125 LINE",
"875 125 LINE",
"875 188 LINE",
"875 250 LINE",
"750 250 LINE",
"625 250 LINE",
"625 500 LINE",
"625 750 LINE",
"438 750 LINE",
"250 750 LINE",
"250 688 LINE",
"250 625 LINE",
"313 625 LINE",
"375 625 LINE",
"375 438 LINE",
"375 250 LINE",
"250 250 LINE",
"125 250 LINE",
"125 188 LINE",
"125 125 LINE"
);
}
);
width = 1000;
}
);
unicode = 0131;
},
{
glyphname = iacute;
layers = (
{
layerId = UUID0;
paths = (
{
closed = 1;
nodes = (
"500 125 LINE",
"875 125 LINE",
"875 188 LINE",
"875 250 LINE",
"750 250 LINE",
"625 250 LINE",
"625 438 LINE",
"625 625 LINE",
"438 625 LINE",
"250 625 LINE",
"250 563 LINE",
"250 500 LINE",
"313 500 LINE",
"375 500 LINE",
"375 375 LINE",
"375 250 LINE",
"250 250 LINE",
"125 250 LINE",
"125 188 LINE",
"125 125 LINE"
);
},
{
closed = 1;
nodes = (
"438 750 LINE",
"500 750 LINE",
"500 813 LINE",
"500 875 LINE",
"563 875 LINE",
"625 875 LINE",
"625 938 LINE",
"625 1000 LINE",
"563 1000 LINE",
"500 1000 LINE",
"500 938 LINE",
"500 875 LINE",
"438 875 LINE",
"375 875 LINE",
"375 813 LINE",
"375 750 LINE"
);
}
);
width = 1000;
}
);
unicode = 00ED;
},
{
color = 4;
glyphname = ibreve;
layers = (
{
background = {
components = (
{
name = breve;
}
);
paths = (
{
closed = 1;
nodes = (
"250 500 LINE",
"313 500 LINE",
"375 500 LINE",
"375 375 LINE",
"375 250 LINE",
"250 250 LINE",
"125 250 LINE",
"125 188 LINE",
"125 125 LINE",
"500 125 LINE",
"875 125 LINE",
"875 188 LINE",
"875 250 LINE",
"750 250 LINE",
"625 250 LINE",
"625 438 LINE",
"625 625 LINE",
"438 625 LINE",
"250 625 LINE",
"250 563 LINE"
);
}
);
};
components = (
{
name = breve;
}
);
layerId = UUID0;
paths = (
{
closed = 1;
nodes = (
"500 125 LINE",
"875 125 LINE",
"875 188 LINE",
"875 250 LINE",
"750 250 LINE",
"625 250 LINE",
"625 438 LINE",
"625 625 LINE",
"438 625 LINE",
"250 625 LINE",
"250 563 LINE",
"250 500 LINE",
"313 500 LINE",
"375 500 LINE",
"375 375 LINE",
"375 250 LINE",
"250 250 LINE",
"125 250 LINE",
"125 188 LINE",
"125 125 LINE"
);
}
);
width = 1000;
},
{
associatedMasterId = UUID0;
background = {
components = (
{
name = breve;
}
);
paths = (
{
closed = 1;
nodes = (
"250 500 LINE",
"313 500 LINE",
"375 500 LINE",
"375 375 LINE",
"375 250 LINE",
"250 250 LINE",
"125 250 LINE",
"125 188 LINE",
"125 125 LINE",
"500 125 LINE",
"875 125 LINE",
"875 188 LINE",
"875 250 LINE",
"750 250 LINE",
"625 250 LINE",
"625 438 LINE",
"625 625 LINE",
"438 625 LINE",
"250 625 LINE",
"250 563 LINE"
);
}
);
};
components = (
{
name = breve;
}
);
layerId = "CDB15D2F-97B8-4BEE-990E-859ADA1ECD74";
name = "Sep 5 16, 22:43";
paths = (
{
closed = 1;
nodes = (
"500 125 LINE",
"875 125 LINE",
"875 188 LINE",
"875 250 LINE",
"750 250 LINE",
"625 250 LINE",
"625 438 LINE",
"625 750 LINE",
"438 750 LINE",
"250 750 LINE",
"250 688 LINE",
"250 625 LINE",
"313 625 LINE",
"375 625 LINE",
"375 375 LINE",
"375 250 LINE",
"250 250 LINE",
"125 250 LINE",
"125 188 LINE",
"125 125 LINE"
);
}
);
width = 1000;
}
);
unicode = 012D;
},
{
glyphname = icircumflex;
layers = (
{
layerId = UUID0;
paths = (
{
closed = 1;
nodes = (
"500 125 LINE",
"875 125 LINE",
"875 188 LINE",
"875 250 LINE",
"750 250 LINE",
"625 250 LINE",
"625 438 LINE",
"625 625 LINE",
"438 625 LINE",
"250 625 LINE",
"250 563 LINE",
"250 500 LINE",
"313 500 LINE",
"375 500 LINE",
"375 375 LINE",
"375 250 LINE",
"250 250 LINE",
"125 250 LINE",
"125 188 LINE",
"125 125 LINE"
);
},
{
closed = 1;
nodes = (
"250 750 LINE",
"375 750 LINE",
"375 813 LINE",
"375 875 LINE",
"438 875 LINE",
"500 875 LINE",
"500 813 LINE",
"500 750 LINE",
"625 750 LINE",
"750 750 LINE",
"750 813 LINE",
"750 875 LINE",
"688 875 LINE",
"625 875 LINE",
"625 938 LINE",
"625 1000 LINE",
"438 1000 LINE",
"250 1000 LINE",
"250 938 LINE",
"250 875 LINE",
"188 875 LINE",
"125 875 LINE",
"125 813 LINE",
"125 750 LINE"
);
}
);
width = 1000;
}
);
unicode = 00EE;
},
{
glyphname = idieresis;
layers = (
{
layerId = UUID0;
paths = (
{
closed = 1;
nodes = (
"500 125 LINE",
"875 125 LINE",
"875 188 LINE",
"875 250 LINE",
"750 250 LINE",
"625 250 LINE",
"625 500 LINE",
"625 750 LINE",
"438 750 LINE",
"250 750 LINE",
"250 688 LINE",
"250 625 LINE",
"313 625 LINE",
"375 625 LINE",
"375 438 LINE",
"375 250 LINE",
"250 250 LINE",
"125 250 LINE",
"125 188 LINE",
"125 125 LINE"
);
},
{
closed = 1;
nodes = (
"250 875 LINE",
"375 875 LINE",
"375 938 LINE",
"375 1000 LINE",
"250 1000 LINE",
"125 1000 LINE",
"125 938 LINE",
"125 875 LINE"
);
},
{
closed = 1;
nodes = (
"625 875 LINE",
"750 875 LINE",
"750 938 LINE",
"750 1000 LINE",
"625 1000 LINE",
"500 1000 LINE",
"500 938 LINE",
"500 875 LINE"
);
}
);
width = 1000;
}
);
unicode = 00EF;
},
{
glyphname = igrave;
layers = (
{
layerId = UUID0;
paths = (
{
closed = 1;
nodes = (
"500 125 LINE",
"875 125 LINE",
"875 188 LINE",
"875 250 LINE",
"750 250 LINE",
"625 250 LINE",
"625 438 LINE",
"625 625 LINE",
"438 625 LINE",
"250 625 LINE",
"250 563 LINE",
"250 500 LINE",
"313 500 LINE",
"375 500 LINE",
"375 375 LINE",
"375 250 LINE",
"250 250 LINE",
"125 250 LINE",
"125 188 LINE",
"125 125 LINE"
);
},
{
closed = 1;
nodes = (
"438 750 LINE",
"500 750 LINE",
"500 813 LINE",
"500 875 LINE",
"438 875 LINE",
"375 875 LINE",
"375 938 LINE",
"375 1000 LINE",
"313 1000 LINE",
"250 1000 LINE",
"250 938 LINE",
"250 875 LINE",
"313 875 LINE",
"375 875 LINE",
"375 813 LINE",
"375 750 LINE"
);
}
);
width = 1000;
}
);
unicode = 00EC;
},
{
glyphname = ij;
layers = (
{
layerId = UUID0;
paths = (
{
closed = 1;
nodes = (
"500 0 LINE",
"750 0 LINE",
"750 63 LINE",
"750 125 LINE",
"813 125 LINE",
"875 125 LINE",
"875 438 LINE",
"875 750 LINE",
"688 750 LINE",
"500 750 LINE",
"500 688 LINE",
"500 625 LINE",
"563 625 LINE",
"625 625 LINE",
"625 375 LINE",
"625 125 LINE",
"438 125 LINE",
"250 125 LINE",
"250 63 LINE",
"250 0 LINE"
);
},
{
closed = 1;
nodes = (
"250 250 LINE",
"375 250 LINE",
"375 500 LINE",
"375 750 LINE",
"188 750 LINE",
"0 750 LINE",
"0 688 LINE",
"0 625 LINE",
"63 625 LINE",
"125 625 LINE",
"125 438 LINE",
"125 250 LINE"
);
},
{
closed = 1;
nodes = (
"250 875 LINE",
"375 875 LINE",
"375 938 LINE",
"375 1000 LINE",
"250 1000 LINE",
"125 1000 LINE",
"125 938 LINE",
"125 875 LINE"
);
},
{
closed = 1;
nodes = (
"750 875 LINE",
"875 875 LINE",
"875 938 LINE",
"875 1000 LINE",
"750 1000 LINE",
"625 1000 LINE",
"625 938 LINE",
"625 875 LINE"
);
}
);
width = 1000;
}
);
unicode = 0133;
},
{
glyphname = imacron;
layers = (
{
layerId = UUID0;
paths = (
{
closed = 1;
nodes = (
"500 125 LINE",
"875 125 LINE",
"875 188 LINE",
"875 250 LINE",
"750 250 LINE",
"625 250 LINE",
"625 500 LINE",
"625 750 LINE",
"438 750 LINE",
"250 750 LINE",
"250 688 LINE",
"250 625 LINE",
"313 625 LINE",
"375 625 LINE",
"375 438 LINE",
"375 250 LINE",
"250 250 LINE",
"125 250 LINE",
"125 188 LINE",
"125 125 LINE"
);
},
{
closed = 1;
nodes = (
"438 875 LINE",
"750 875 LINE",
"750 938 LINE",
"750 1000 LINE",
"438 1000 LINE",
"125 1000 LINE",
"125 938 LINE",
"125 875 LINE"
);
}
);
width = 1000;
}
);
unicode = 012B;
},
{
glyphname = iogonek;
layers = (
{
layerId = UUID0;
paths = (
{
closed = 1;
nodes = (
"500 0 LINE",
"625 0 LINE",
"625 63 LINE",
"625 125 LINE",
"500 125 LINE",
"375 125 LINE",
"375 188 LINE",
"375 250 LINE",
"438 250 LINE",
"500 250 LINE",
"500 313 LINE",
"500 375 LINE",
"688 375 LINE",
"875 375 LINE",
"875 438 LINE",
"875 500 LINE",
"750 500 LINE",
"625 500 LINE",
"625 625 LINE",
"625 750 LINE",
"438 750 LINE",
"250 750 LINE",
"250 688 LINE",
"250 625 LINE",
"313 625 LINE",
"375 625 LINE",
"375 563 LINE",
"375 500 LINE",
"250 500 LINE",
"125 500 LINE",
"125 438 LINE",
"125 375 LINE",
"250 375 LINE",
"375 375 LINE",
"375 313 LINE",
"375 250 LINE",
"313 250 LINE",
"250 250 LINE",
"250 188 LINE",
"250 125 LINE",
"313 125 LINE",
"375 125 LINE",
"375 63 LINE",
"375 0 LINE"
);
},
{
closed = 1;
nodes = (
"500 875 LINE",
"625 875 LINE",
"625 938 LINE",
"625 1000 LINE",
"500 1000 LINE",
"375 1000 LINE",
"375 938 LINE",
"375 875 LINE"
);
}
);
width = 1000;
}
);
unicode = 012F;
},
{
glyphname = itilde;
layers = (
{
layerId = UUID0;
paths = (
{
closed = 1;
nodes = (
"500 125 LINE",
"875 125 LINE",
"875 188 LINE",
"875 250 LINE",
"750 250 LINE",
"625 250 LINE",
"625 438 LINE",
"625 625 LINE",
"438 625 LINE",
"250 625 LINE",
"250 563 LINE",
"250 500 LINE",
"313 500 LINE",
"375 500 LINE",
"375 375 LINE",
"375 250 LINE",
"250 250 LINE",
"125 250 LINE",
"125 188 LINE",
"125 125 LINE"
);
},
{
closed = 1;
nodes = (
"188 750 LINE",
"250 750 LINE",
"250 813 LINE",
"250 875 LINE",
"375 875 LINE",
"500 875 LINE",
"500 813 LINE",
"500 750 LINE",
"625 750 LINE",
"750 750 LINE",
"750 813 LINE",
"750 875 LINE",
"813 875 LINE",
"875 875 LINE",
"875 938 LINE",
"875 1000 LINE",
"813 1000 LINE",
"750 1000 LINE",
"750 938 LINE",
"750 875 LINE",
"625 875 LINE",
"500 875 LINE",
"500 938 LINE",
"500 1000 LINE",
"375 1000 LINE",
"250 1000 LINE",
"250 938 LINE",
"250 875 LINE",
"188 875 LINE",
"125 875 LINE",
"125 813 LINE",
"125 750 LINE"
);
}
);
width = 1000;
}
);
unicode = 0129;
},
{
glyphname = j;
layers = (
{
layerId = UUID0;
paths = (
{
closed = 1;
nodes = (
"375 0 LINE",
"625 0 LINE",
"625 63 LINE",
"625 125 LINE",
"688 125 LINE",
"750 125 LINE",
"750 438 LINE",
"750 750 LINE",
"563 750 LINE",
"375 750 LINE",
"375 688 LINE",
"375 625 LINE",
"438 625 LINE",
"500 625 LINE",
"500 375 LINE",
"500 125 LINE",
"313 125 LINE",
"125 125 LINE",
"125 63 LINE",
"125 0 LINE"
);
},
{
closed = 1;
nodes = (
"625 875 LINE",
"750 875 LINE",
"750 938 LINE",
"750 1000 LINE",
"625 1000 LINE",
"500 1000 LINE",
"500 938 LINE",
"500 875 LINE"
);
}
);
width = 1000;
}
);
unicode = 006A;
},
{
glyphname = jcircumflex;
layers = (
{
layerId = UUID0;
paths = (
{
closed = 1;
nodes = (
"375 0 LINE",
"625 0 LINE",
"625 63 LINE",
"625 125 LINE",
"688 125 LINE",
"750 125 LINE",
"750 375 LINE",
"750 625 LINE",
"563 625 LINE",
"375 625 LINE",
"375 563 LINE",
"375 500 LINE",
"438 500 LINE",
"500 500 LINE",
"500 313 LINE",
"500 125 LINE",
"313 125 LINE",
"125 125 LINE",
"125 63 LINE",
"125 0 LINE"
);
},
{
closed = 1;
nodes = (
"375 750 LINE",
"500 750 LINE",
"500 813 LINE",
"500 875 LINE",
"563 875 LINE",
"625 875 LINE",
"625 813 LINE",
"625 750 LINE",
"750 750 LINE",
"875 750 LINE",
"875 813 LINE",
"875 875 LINE",
"813 875 LINE",
"750 875 LINE",
"750 938 LINE",
"750 1000 LINE",
"563 1000 LINE",
"375 1000 LINE",
"375 938 LINE",
"375 875 LINE",
"313 875 LINE",
"250 875 LINE",
"250 813 LINE",
"250 750 LINE"
);
}
);
width = 1000;
}
);
unicode = 0135;
},
{
color = 4;
glyphname = k;
layers = (
{
background = {
paths = (
{
closed = 1;
nodes = (
"0 125 LINE",
"125 125 LINE",
"250 125 LINE",
"250 250 LINE",
"250 375 LINE",
"375 375 LINE",
"500 375 LINE",
"500 313 LINE",
"500 250 LINE",
"563 250 LINE",
"625 250 LINE",
"625 188 LINE",
"625 125 LINE",
"750 125 LINE",
"875 125 LINE",
"875 188 LINE",
"875 250 LINE",
"813 250 LINE",
"750 250 LINE",
"750 313 LINE",
"750 375 LINE",
"688 375 LINE",
"625 375 LINE",
"625 438 LINE",
"625 500 LINE",
"688 500 LINE",
"750 500 LINE",
"750 563 LINE",
"750 625 LINE",
"813 625 LINE",
"875 625 LINE",
"875 688 LINE",
"875 750 LINE",
"750 750 LINE",
"625 750 LINE",
"625 688 LINE",
"625 625 LINE",
"563 625 LINE",
"500 625 LINE",
"500 563 LINE",
"500 500 LINE",
"375 500 LINE",
"250 500 LINE",
"250 875 LINE",
"250 1000 LINE",
"125 1000 LINE",
"0 1000 LINE",
"0 438 LINE"
);
}
);
};
layerId = UUID0;
paths = (
{
closed = 1;
nodes = (
"125 125 LINE",
"250 125 LINE",
"250 250 LINE",
"250 375 LINE",
"375 375 LINE",
"500 375 LINE",
"500 313 LINE",
"500 250 LINE",
"563 250 LINE",
"625 250 LINE",
"625 188 LINE",
"625 125 LINE",
"750 125 LINE",
"875 125 LINE",
"875 188 LINE",
"875 250 LINE",
"813 250 LINE",
"750 250 LINE",
"750 313 LINE",
"750 375 LINE",
"688 375 LINE",
"625 375 LINE",
"625 438 LINE",
"625 500 LINE",
"688 500 LINE",
"750 500 LINE",
"750 563 LINE",
"750 625 LINE",
"813 625 LINE",
"875 625 LINE",
"875 688 LINE",
"875 750 LINE",
"750 750 LINE",
"625 750 LINE",
"625 688 LINE",
"625 625 LINE",
"563 625 LINE",
"500 625 LINE",
"500 563 LINE",
"500 500 LINE",
"375 500 LINE",
"250 500 LINE",
"250 875 LINE",
"250 1000 LINE",
"125 1000 LINE",
"0 1000 LINE",
"0 438 LINE",
"0 125 LINE"
);
}
);
width = 1000;
},
{
associatedMasterId = UUID0;
background = {
paths = (
{
closed = 1;
nodes = (
"0 125 LINE",
"125 125 LINE",
"250 125 LINE",
"250 250 LINE",
"250 375 LINE",
"375 375 LINE",
"500 375 LINE",
"500 313 LINE",
"500 250 LINE",
"563 250 LINE",
"625 250 LINE",
"625 188 LINE",
"625 125 LINE",
"750 125 LINE",
"875 125 LINE",
"875 188 LINE",
"875 250 LINE",
"813 250 LINE",
"750 250 LINE",
"750 313 LINE",
"750 375 LINE",
"688 375 LINE",
"625 375 LINE",
"625 438 LINE",
"625 500 LINE",
"688 500 LINE",
"750 500 LINE",
"750 563 LINE",
"750 625 LINE",
"813 625 LINE",
"875 625 LINE",
"875 688 LINE",
"875 750 LINE",
"750 750 LINE",
"625 750 LINE",
"625 688 LINE",
"625 625 LINE",
"563 625 LINE",
"500 625 LINE",
"500 563 LINE",
"500 500 LINE",
"375 500 LINE",
"250 500 LINE",
"250 875 LINE",
"250 1000 LINE",
"125 1000 LINE",
"0 1000 LINE",
"0 438 LINE"
);
}
);
};
layerId = "E6A04831-B392-4EE0-AC4A-C11BEFD646E2";
name = "Sep 5 16, 22:22";
paths = (
{
closed = 1;
nodes = (
"125 125 LINE",
"250 125 LINE",
"250 250 LINE",
"250 375 LINE",
"313 375 LINE",
"375 375 LINE",
"375 313 LINE",
"375 250 LINE",
"438 250 LINE",
"500 250 LINE",
"500 188 LINE",
"500 125 LINE",
"688 125 LINE",
"875 125 LINE",
"875 188 LINE",
"875 250 LINE",
"813 250 LINE",
"750 250 LINE",
"750 313 LINE",
"750 375 LINE",
"688 375 LINE",
"625 375 LINE",
"625 438 LINE",
"625 500 LINE",
"688 500 LINE",
"750 500 LINE",
"750 563 LINE",
"750 625 LINE",
"813 625 LINE",
"875 625 LINE",
"875 688 LINE",
"875 750 LINE",
"688 750 LINE",
"500 750 LINE",
"500 688 LINE",
"500 625 LINE",
"375 625 LINE",
"250 625 LINE",
"250 813 LINE",
"250 1000 LINE",
"125 1000 LINE",
"0 1000 LINE",
"0 563 LINE",
"0 125 LINE"
);
}
);
width = 1000;
}
);
unicode = 006B;
},
{
color = 4;
glyphname = kcommaaccent;
layers = (
{
background = {
paths = (
{
closed = 1;
nodes = (
"0 250 LINE",
"125 250 LINE",
"250 250 LINE",
"250 375 LINE",
"250 500 LINE",
"375 500 LINE",
"500 500 LINE",
"500 438 LINE",
"500 375 LINE",
"563 375 LINE",
"625 375 LINE",
"625 313 LINE",
"625 250 LINE",
"750 250 LINE",
"875 250 LINE",
"875 313 LINE",
"875 375 LINE",
"813 375 LINE",
"750 375 LINE",
"750 438 LINE",
"750 500 LINE",
"688 500 LINE",
"625 500 LINE",
"625 563 LINE",
"625 625 LINE",
"688 625 LINE",
"750 625 LINE",
"750 688 LINE",
"750 750 LINE",
"813 750 LINE",
"875 750 LINE",
"875 813 LINE",
"875 875 LINE",
"750 875 LINE",
"625 875 LINE",
"625 813 LINE",
"625 750 LINE",
"563 750 LINE",
"500 750 LINE",
"500 688 LINE",
"500 625 LINE",
"375 625 LINE",
"250 625 LINE",
"250 875 LINE",
"250 1000 LINE",
"125 1000 LINE",
"0 1000 LINE",
"0 563 LINE"
);
}
);
};
layerId = UUID0;
paths = (
{
closed = 1;
nodes = (
"125 250 LINE",
"250 250 LINE",
"250 375 LINE",
"250 500 LINE",
"375 500 LINE",
"500 500 LINE",
"500 438 LINE",
"500 375 LINE",
"563 375 LINE",
"625 375 LINE",
"625 313 LINE",
"625 250 LINE",
"750 250 LINE",
"875 250 LINE",
"875 313 LINE",
"875 375 LINE",
"813 375 LINE",
"750 375 LINE",
"750 438 LINE",
"750 500 LINE",
"688 500 LINE",
"625 500 LINE",
"625 563 LINE",
"625 625 LINE",
"688 625 LINE",
"750 625 LINE",
"750 688 LINE",
"750 750 LINE",
"813 750 LINE",
"875 750 LINE",
"875 813 LINE",
"875 875 LINE",
"750 875 LINE",
"625 875 LINE",
"625 813 LINE",
"625 750 LINE",
"563 750 LINE",
"500 750 LINE",
"500 688 LINE",
"500 625 LINE",
"375 625 LINE",
"250 625 LINE",
"250 875 LINE",
"250 1000 LINE",
"125 1000 LINE",
"0 1000 LINE",
"0 563 LINE",
"0 250 LINE"
);
},
{
closed = 1;
nodes = (
"250 0 LINE",
"375 0 LINE",
"375 63 LINE",
"375 125 LINE",
"438 125 LINE",
"500 125 LINE",
"500 188 LINE",
"500 250 LINE",
"250 250 LINE",
"250 188 LINE",
"250 125 LINE",
"188 125 LINE",
"125 125 LINE",
"125 63 LINE",
"125 0 LINE"
);
}
);
width = 1000;
},
{
associatedMasterId = UUID0;
layerId = "F7DDE832-9737-4470-964C-92B26FD19085";
name = "Sep 5 16, 22:22";
paths = (
{
closed = 1;
nodes = (
"250 0 LINE",
"375 0 LINE",
"375 63 LINE",
"375 125 LINE",
"438 125 LINE",
"500 125 LINE",
"500 188 LINE",
"500 250 LINE",
"688 250 LINE",
"875 250 LINE",
"875 313 LINE",
"875 375 LINE",
"813 375 LINE",
"750 375 LINE",
"750 438 LINE",
"750 500 LINE",
"688 500 LINE",
"625 500 LINE",
"625 563 LINE",
"625 625 LINE",
"688 625 LINE",
"750 625 LINE",
"750 688 LINE",
"750 750 LINE",
"813 750 LINE",
"875 750 LINE",
"875 813 LINE",
"875 875 LINE",
"688 875 LINE",
"500 875 LINE",
"500 813 LINE",
"500 750 LINE",
"375 750 LINE",
"250 750 LINE",
"250 875 LINE",
"250 1000 LINE",
"125 1000 LINE",
"0 1000 LINE",
"0 625 LINE",
"0 250 LINE",
"125 250 LINE",
"250 250 LINE",
"250 188 LINE",
"250 125 LINE",
"188 125 LINE",
"125 125 LINE",
"125 63 LINE",
"125 0 LINE"
);
},
{
closed = 1;
nodes = (
"250 375 LINE",
"250 500 LINE",
"313 500 LINE",
"375 500 LINE",
"375 438 LINE",
"375 375 LINE",
"438 375 LINE",
"500 375 LINE",
"500 313 LINE",
"500 250 LINE",
"375 250 LINE",
"250 250 LINE"
);
}
);
width = 1000;
}
);
unicode = 0137;
},
{
color = 4;
glyphname = kgreenlandic;
layers = (
{
layerId = UUID0;
paths = (
{
closed = 1;
nodes = (
"125 125 LINE",
"250 125 LINE",
"250 250 LINE",
"250 375 LINE",
"375 375 LINE",
"500 375 LINE",
"500 313 LINE",
"500 250 LINE",
"563 250 LINE",
"625 250 LINE",
"625 188 LINE",
"625 125 LINE",
"750 125 LINE",
"875 125 LINE",
"875 188 LINE",
"875 250 LINE",
"813 250 LINE",
"750 250 LINE",
"750 313 LINE",
"750 375 LINE",
"688 375 LINE",
"625 375 LINE",
"625 438 LINE",
"625 500 LINE",
"688 500 LINE",
"750 500 LINE",
"750 563 LINE",
"750 625 LINE",
"813 625 LINE",
"875 625 LINE",
"875 688 LINE",
"875 750 LINE",
"750 750 LINE",
"625 750 LINE",
"625 688 LINE",
"625 625 LINE",
"563 625 LINE",
"500 625 LINE",
"500 563 LINE",
"500 500 LINE",
"375 500 LINE",
"250 500 LINE",
"250 625 LINE",
"250 750 LINE",
"125 750 LINE",
"0 750 LINE",
"0 438 LINE",
"0 125 LINE"
);
}
);
width = 1000;
}
);
unicode = 0138;
},
{
glyphname = l;
layers = (
{
layerId = UUID0;
paths = (
{
closed = 1;
nodes = (
"500 125 LINE",
"875 125 LINE",
"875 188 LINE",
"875 250 LINE",
"750 250 LINE",
"625 250 LINE",
"625 625 LINE",
"625 1000 LINE",
"438 1000 LINE",
"250 1000 LINE",
"250 938 LINE",
"250 875 LINE",
"313 875 LINE",
"375 875 LINE",
"375 563 LINE",
"375 250 LINE",
"250 250 LINE",
"125 250 LINE",
"125 188 LINE",
"125 125 LINE"
);
}
);
width = 1000;
}
);
unicode = 006C;
},
{
glyphname = lacute;
layers = (
{
layerId = UUID0;
paths = (
{
closed = 1;
nodes = (
"375 125 LINE",
"750 125 LINE",
"750 188 LINE",
"750 250 LINE",
"625 250 LINE",
"500 250 LINE",
"500 500 LINE",
"500 750 LINE",
"438 750 LINE",
"375 750 LINE",
"375 813 LINE",
"375 875 LINE",
"438 875 LINE",
"500 875 LINE",
"500 938 LINE",
"500 1000 LINE",
"438 1000 LINE",
"375 1000 LINE",
"375 938 LINE",
"375 875 LINE",
"313 875 LINE",
"250 875 LINE",
"250 813 LINE",
"250 750 LINE",
"188 750 LINE",
"125 750 LINE",
"125 688 LINE",
"125 625 LINE",
"188 625 LINE",
"250 625 LINE",
"250 438 LINE",
"250 250 LINE",
"125 250 LINE",
"0 250 LINE",
"0 188 LINE",
"0 125 LINE"
);
}
);
width = 1000;
}
);
unicode = 013A;
},
{
glyphname = lcaron;
layers = (
{
layerId = UUID0;
paths = (
{
closed = 1;
nodes = (
"375 125 LINE",
"750 125 LINE",
"750 188 LINE",
"750 250 LINE",
"625 250 LINE",
"500 250 LINE",
"500 625 LINE",
"500 1000 LINE",
"313 1000 LINE",
"125 1000 LINE",
"125 938 LINE",
"125 875 LINE",
"188 875 LINE",
"250 875 LINE",
"250 563 LINE",
"250 250 LINE",
"125 250 LINE",
"0 250 LINE",
"0 188 LINE",
"0 125 LINE"
);
},
{
closed = 1;
nodes = (
"688 625 LINE",
"750 625 LINE",
"750 688 LINE",
"750 750 LINE",
"813 750 LINE",
"875 750 LINE",
"875 875 LINE",
"875 1000 LINE",
"750 1000 LINE",
"625 1000 LINE",
"625 813 LINE",
"625 625 LINE"
);
}
);
width = 1000;
}
);
unicode = 013E;
},
{
glyphname = lcommaaccent;
layers = (
{
layerId = UUID0;
paths = (
{
closed = 1;
nodes = (
"375 0 LINE",
"500 0 LINE",
"500 63 LINE",
"500 125 LINE",
"563 125 LINE",
"625 125 LINE",
"625 188 LINE",
"625 250 LINE",
"750 250 LINE",
"875 250 LINE",
"875 313 LINE",
"875 375 LINE",
"750 375 LINE",
"625 375 LINE",
"625 688 LINE",
"625 1000 LINE",
"438 1000 LINE",
"250 1000 LINE",
"250 938 LINE",
"250 875 LINE",
"313 875 LINE",
"375 875 LINE",
"375 625 LINE",
"375 375 LINE",
"250 375 LINE",
"125 375 LINE",
"125 313 LINE",
"125 250 LINE",
"250 250 LINE",
"375 250 LINE",
"375 188 LINE",
"375 125 LINE",
"313 125 LINE",
"250 125 LINE",
"250 63 LINE",
"250 0 LINE"
);
}
);
width = 1000;
}
);
unicode = 013C;
},
{
glyphname = ldot;
layers = (
{
layerId = UUID0;
paths = (
{
closed = 1;
nodes = (
"375 125 LINE",
"750 125 LINE",
"750 188 LINE",
"750 250 LINE",
"625 250 LINE",
"500 250 LINE",
"500 625 LINE",
"500 1000 LINE",
"313 1000 LINE",
"125 1000 LINE",
"125 938 LINE",
"125 875 LINE",
"188 875 LINE",
"250 875 LINE",
"250 563 LINE",
"250 250 LINE",
"125 250 LINE",
"0 250 LINE",
"0 188 LINE",
"0 125 LINE"
);
},
{
closed = 1;
nodes = (
"750 500 LINE",
"875 500 LINE",
"875 625 LINE",
"875 750 LINE",
"750 750 LINE",
"625 750 LINE",
"625 625 LINE",
"625 500 LINE"
);
}
);
width = 1000;
}
);
unicode = 0140;
},
{
glyphname = lslash;
layers = (
{
layerId = UUID0;
paths = (
{
closed = 1;
nodes = (
"500 125 LINE",
"875 125 LINE",
"875 188 LINE",
"875 250 LINE",
"750 250 LINE",
"625 250 LINE",
"625 438 LINE",
"625 625 LINE",
"688 625 LINE",
"750 625 LINE",
"750 688 LINE",
"750 750 LINE",
"688 750 LINE",
"625 750 LINE",
"625 875 LINE",
"625 1000 LINE",
"438 1000 LINE",
"250 1000 LINE",
"250 938 LINE",
"250 875 LINE",
"313 875 LINE",
"375 875 LINE",
"375 750 LINE",
"375 625 LINE",
"313 625 LINE",
"250 625 LINE",
"250 563 LINE",
"250 500 LINE",
"313 500 LINE",
"375 500 LINE",
"375 375 LINE",
"375 250 LINE",
"250 250 LINE",
"125 250 LINE",
"125 188 LINE",
"125 125 LINE"
);
}
);
width = 1000;
}
);
unicode = 0142;
},
{
glyphname = m;
layers = (
{
layerId = UUID0;
paths = (
{
closed = 1;
nodes = (
"63 125 LINE",
"125 125 LINE",
"125 375 LINE",
"125 625 LINE",
"188 625 LINE",
"250 625 LINE",
"250 375 LINE",
"250 125 LINE",
"375 125 LINE",
"500 125 LINE",
"500 375 LINE",
"500 625 LINE",
"563 625 LINE",
"625 625 LINE",
"625 375 LINE",
"625 125 LINE",
"750 125 LINE",
"875 125 LINE",
"875 375 LINE",
"875 625 LINE",
"813 625 LINE",
"750 625 LINE",
"750 688 LINE",
"750 750 LINE",
"375 750 LINE",
"0 750 LINE",
"0 438 LINE",
"0 125 LINE"
);
}
);
width = 1000;
}
);
unicode = 006D;
},
{
glyphname = n;
layers = (
{
layerId = UUID0;
paths = (
{
closed = 1;
nodes = (
"125 125 LINE",
"250 125 LINE",
"250 375 LINE",
"250 625 LINE",
"438 625 LINE",
"625 625 LINE",
"625 375 LINE",
"625 125 LINE",
"750 125 LINE",
"875 125 LINE",
"875 375 LINE",
"875 625 LINE",
"813 625 LINE",
"750 625 LINE",
"750 688 LINE",
"750 750 LINE",
"375 750 LINE",
"0 750 LINE",
"0 438 LINE",
"0 125 LINE"
);
}
);
width = 1000;
}
);
unicode = 006E;
},
{
color = 8;
glyphname = nacute;
layers = (
{
layerId = UUID0;
paths = (
{
closed = 1;
nodes = (
"125 125 LINE",
"250 125 LINE",
"250 375 LINE",
"250 625 LINE",
"438 625 LINE",
"625 625 LINE",
"625 375 LINE",
"625 125 LINE",
"750 125 LINE",
"875 125 LINE",
"875 375 LINE",
"875 625 LINE",
"813 625 LINE",
"750 625 LINE",
"750 688 LINE",
"750 750 LINE",
"625 750 LINE",
"500 750 LINE",
"500 813 LINE",
"500 875 LINE",
"563 875 LINE",
"625 875 LINE",
"625 938 LINE",
"625 1000 LINE",
"563 1000 LINE",
"500 1000 LINE",
"500 938 LINE",
"500 875 LINE",
"438 875 LINE",
"375 875 LINE",
"375 813 LINE",
"375 750 LINE",
"188 750 LINE",
"0 750 LINE",
"0 438 LINE",
"0 125 LINE"
);
}
);
width = 1000;
}
);
unicode = 0144;
},
{
color = 8;
glyphname = ncaron;
layers = (
{
layerId = UUID0;
paths = (
{
closed = 1;
nodes = (
"125 125 LINE",
"250 125 LINE",
"250 375 LINE",
"250 625 LINE",
"438 625 LINE",
"625 625 LINE",
"625 375 LINE",
"625 125 LINE",
"750 125 LINE",
"875 125 LINE",
"875 375 LINE",
"875 625 LINE",
"813 625 LINE",
"750 625 LINE",
"750 688 LINE",
"750 750 LINE",
"688 750 LINE",
"625 750 LINE",
"625 813 LINE",
"625 875 LINE",
"688 875 LINE",
"750 875 LINE",
"750 938 LINE",
"750 1000 LINE",
"625 1000 LINE",
"500 1000 LINE",
"500 938 LINE",
"500 875 LINE",
"438 875 LINE",
"375 875 LINE",
"375 938 LINE",
"375 1000 LINE",
"250 1000 LINE",
"125 1000 LINE",
"125 938 LINE",
"125 875 LINE",
"188 875 LINE",
"250 875 LINE",
"250 813 LINE",
"250 750 LINE",
"125 750 LINE",
"0 750 LINE",
"0 438 LINE",
"0 125 LINE"
);
}
);
width = 1000;
}
);
unicode = 0148;
},
{
glyphname = ncommaaccent;
layers = (
{
layerId = UUID0;
paths = (
{
closed = 1;
nodes = (
"375 0 LINE",
"500 0 LINE",
"500 63 LINE",
"500 125 LINE",
"563 125 LINE",
"625 125 LINE",
"625 188 LINE",
"625 250 LINE",
"750 250 LINE",
"875 250 LINE",
"875 500 LINE",
"875 750 LINE",
"813 750 LINE",
"750 750 LINE",
"750 813 LINE",
"750 875 LINE",
"375 875 LINE",
"0 875 LINE",
"0 563 LINE",
"0 250 LINE",
"125 250 LINE",
"250 250 LINE",
"250 500 LINE",
"250 750 LINE",
"438 750 LINE",
"625 750 LINE",
"625 500 LINE",
"625 250 LINE",
"500 250 LINE",
"375 250 LINE",
"375 188 LINE",
"375 125 LINE",
"313 125 LINE",
"250 125 LINE",
"250 63 LINE",
"250 0 LINE"
);
}
);
width = 1000;
}
);
unicode = 0146;
},
{
glyphname = eng;
layers = (
{
layerId = UUID0;
paths = (
{
closed = 1;
nodes = (
"500 0 LINE",
"750 0 LINE",
"750 63 LINE",
"750 125 LINE",
"813 125 LINE",
"875 125 LINE",
"875 438 LINE",
"875 750 LINE",
"813 750 LINE",
"750 750 LINE",
"750 813 LINE",
"750 875 LINE",
"375 875 LINE",
"0 875 LINE",
"0 563 LINE",
"0 250 LINE",
"125 250 LINE",
"250 250 LINE",
"250 500 LINE",
"250 750 LINE",
"438 750 LINE",
"625 750 LINE",
"625 438 LINE",
"625 125 LINE",
"438 125 LINE",
"250 125 LINE",
"250 63 LINE",
"250 0 LINE"
);
}
);
width = 1000;
}
);
unicode = 014B;
},
{
color = 8;
glyphname = ntilde;
layers = (
{
layerId = UUID0;
paths = (
{
closed = 1;
nodes = (
"125 125 LINE",
"250 125 LINE",
"250 375 LINE",
"250 625 LINE",
"438 625 LINE",
"625 625 LINE",
"625 375 LINE",
"625 125 LINE",
"750 125 LINE",
"875 125 LINE",
"875 375 LINE",
"875 625 LINE",
"813 625 LINE",
"750 625 LINE",
"750 688 LINE",
"750 750 LINE",
"688 750 LINE",
"625 750 LINE",
"625 813 LINE",
"625 875 LINE",
"688 875 LINE",
"750 875 LINE",
"750 938 LINE",
"750 1000 LINE",
"688 1000 LINE",
"625 1000 LINE",
"625 938 LINE",
"625 875 LINE",
"563 875 LINE",
"500 875 LINE",
"500 938 LINE",
"500 1000 LINE",
"375 1000 LINE",
"250 1000 LINE",
"250 938 LINE",
"250 875 LINE",
"188 875 LINE",
"125 875 LINE",
"125 813 LINE",
"125 750 LINE",
"63 750 LINE",
"0 750 LINE",
"0 438 LINE",
"0 125 LINE"
);
},
{
closed = 1;
nodes = (
"250 813 LINE",
"250 875 LINE",
"313 875 LINE",
"375 875 LINE",
"375 813 LINE",
"375 750 LINE",
"313 750 LINE",
"250 750 LINE"
);
}
);
width = 1000;
}
);
unicode = 00F1;
},
{
glyphname = o;
layers = (
{
layerId = UUID0;
paths = (
{
closed = 1;
nodes = (
"438 125 LINE",
"750 125 LINE",
"750 188 LINE",
"750 250 LINE",
"813 250 LINE",
"875 250 LINE",
"875 438 LINE",
"875 625 LINE",
"813 625 LINE",
"750 625 LINE",
"750 688 LINE",
"750 750 LINE",
"438 750 LINE",
"125 750 LINE",
"125 688 LINE",
"125 625 LINE",
"63 625 LINE",
"0 625 LINE",
"0 438 LINE",
"0 250 LINE",
"63 250 LINE",
"125 250 LINE",
"125 188 LINE",
"125 125 LINE"
);
},
{
closed = 1;
nodes = (
"250 438 LINE",
"250 625 LINE",
"438 625 LINE",
"625 625 LINE",
"625 438 LINE",
"625 250 LINE",
"438 250 LINE",
"250 250 LINE"
);
}
);
width = 1000;
}
);
unicode = 006F;
},
{
color = 8;
glyphname = oacute;
layers = (
{
layerId = UUID0;
paths = (
{
closed = 1;
nodes = (
"438 125 LINE",
"750 125 LINE",
"750 188 LINE",
"750 250 LINE",
"813 250 LINE",
"875 250 LINE",
"875 438 LINE",
"875 625 LINE",
"813 625 LINE",
"750 625 LINE",
"750 688 LINE",
"750 750 LINE",
"625 750 LINE",
"500 750 LINE",
"500 813 LINE",
"500 875 LINE",
"563 875 LINE",
"625 875 LINE",
"625 938 LINE",
"625 1000 LINE",
"563 1000 LINE",
"500 1000 LINE",
"500 938 LINE",
"500 875 LINE",
"438 875 LINE",
"375 875 LINE",
"375 813 LINE",
"375 750 LINE",
"250 750 LINE",
"125 750 LINE",
"125 688 LINE",
"125 625 LINE",
"63 625 LINE",
"0 625 LINE",
"0 438 LINE",
"0 250 LINE",
"63 250 LINE",
"125 250 LINE",
"125 188 LINE",
"125 125 LINE"
);
},
{
closed = 1;
nodes = (
"250 438 LINE",
"250 625 LINE",
"438 625 LINE",
"625 625 LINE",
"625 438 LINE",
"625 250 LINE",
"438 250 LINE",
"250 250 LINE"
);
}
);
width = 1000;
}
);
unicode = 00F3;
},
{
color = 8;
glyphname = obreve;
layers = (
{
layerId = UUID0;
paths = (
{
closed = 1;
nodes = (
"438 125 LINE",
"750 125 LINE",
"750 188 LINE",
"750 250 LINE",
"813 250 LINE",
"875 250 LINE",
"875 438 LINE",
"875 625 LINE",
"813 625 LINE",
"750 625 LINE",
"750 688 LINE",
"750 750 LINE",
"688 750 LINE",
"625 750 LINE",
"625 813 LINE",
"625 875 LINE",
"688 875 LINE",
"750 875 LINE",
"750 938 LINE",
"750 1000 LINE",
"688 1000 LINE",
"625 1000 LINE",
"625 938 LINE",
"625 875 LINE",
"438 875 LINE",
"250 875 LINE",
"250 938 LINE",
"250 1000 LINE",
"188 1000 LINE",
"125 1000 LINE",
"125 938 LINE",
"125 875 LINE",
"188 875 LINE",
"250 875 LINE",
"250 813 LINE",
"250 750 LINE",
"188 750 LINE",
"125 750 LINE",
"125 688 LINE",
"125 625 LINE",
"63 625 LINE",
"0 625 LINE",
"0 438 LINE",
"0 250 LINE",
"63 250 LINE",
"125 250 LINE",
"125 188 LINE",
"125 125 LINE"
);
},
{
closed = 1;
nodes = (
"250 438 LINE",
"250 625 LINE",
"438 625 LINE",
"625 625 LINE",
"625 438 LINE",
"625 250 LINE",
"438 250 LINE",
"250 250 LINE"
);
}
);
width = 1000;
}
);
unicode = 014F;
},
{
color = 8;
glyphname = ocircumflex;
layers = (
{
layerId = UUID0;
paths = (
{
closed = 1;
nodes = (
"438 125 LINE",
"750 125 LINE",
"750 188 LINE",
"750 250 LINE",
"813 250 LINE",
"875 250 LINE",
"875 438 LINE",
"875 625 LINE",
"813 625 LINE",
"750 625 LINE",
"750 750 LINE",
"750 875 LINE",
"688 875 LINE",
"625 875 LINE",
"625 938 LINE",
"625 1000 LINE",
"438 1000 LINE",
"250 1000 LINE",
"250 938 LINE",
"250 875 LINE",
"188 875 LINE",
"125 875 LINE",
"125 750 LINE",
"125 625 LINE",
"63 625 LINE",
"0 625 LINE",
"0 438 LINE",
"0 250 LINE",
"63 250 LINE",
"125 250 LINE",
"125 188 LINE",
"125 125 LINE"
);
},
{
closed = 1;
nodes = (
"250 438 LINE",
"250 625 LINE",
"438 625 LINE",
"625 625 LINE",
"625 438 LINE",
"625 250 LINE",
"438 250 LINE",
"250 250 LINE"
);
},
{
closed = 1;
nodes = (
"375 813 LINE",
"375 875 LINE",
"438 875 LINE",
"500 875 LINE",
"500 813 LINE",
"500 750 LINE",
"438 750 LINE",
"375 750 LINE"
);
}
);
width = 1000;
}
);
unicode = 00F4;
},
{
glyphname = odieresis;
layers = (
{
layerId = UUID0;
paths = (
{
closed = 1;
nodes = (
"438 125 LINE",
"750 125 LINE",
"750 188 LINE",
"750 250 LINE",
"813 250 LINE",
"875 250 LINE",
"875 438 LINE",
"875 625 LINE",
"813 625 LINE",
"750 625 LINE",
"750 688 LINE",
"750 750 LINE",
"438 750 LINE",
"125 750 LINE",
"125 688 LINE",
"125 625 LINE",
"63 625 LINE",
"0 625 LINE",
"0 438 LINE",
"0 250 LINE",
"63 250 LINE",
"125 250 LINE",
"125 188 LINE",
"125 125 LINE"
);
},
{
closed = 1;
nodes = (
"250 438 LINE",
"250 625 LINE",
"438 625 LINE",
"625 625 LINE",
"625 438 LINE",
"625 250 LINE",
"438 250 LINE",
"250 250 LINE"
);
},
{
closed = 1;
nodes = (
"250 875 LINE",
"375 875 LINE",
"375 938 LINE",
"375 1000 LINE",
"250 1000 LINE",
"125 1000 LINE",
"125 938 LINE",
"125 875 LINE"
);
},
{
closed = 1;
nodes = (
"625 875 LINE",
"750 875 LINE",
"750 938 LINE",
"750 1000 LINE",
"625 1000 LINE",
"500 1000 LINE",
"500 938 LINE",
"500 875 LINE"
);
}
);
width = 1000;
}
);
unicode = 00F6;
},
{
color = 8;
glyphname = ograve;
layers = (
{
layerId = UUID0;
paths = (
{
closed = 1;
nodes = (
"438 125 LINE",
"750 125 LINE",
"750 188 LINE",
"750 250 LINE",
"813 250 LINE",
"875 250 LINE",
"875 438 LINE",
"875 625 LINE",
"813 625 LINE",
"750 625 LINE",
"750 688 LINE",
"750 750 LINE",
"625 750 LINE",
"500 750 LINE",
"500 813 LINE",
"500 875 LINE",
"438 875 LINE",
"375 875 LINE",
"375 938 LINE",
"375 1000 LINE",
"313 1000 LINE",
"250 1000 LINE",
"250 938 LINE",
"250 875 LINE",
"313 875 LINE",
"375 875 LINE",
"375 813 LINE",
"375 750 LINE",
"250 750 LINE",
"125 750 LINE",
"125 688 LINE",
"125 625 LINE",
"63 625 LINE",
"0 625 LINE",
"0 438 LINE",
"0 250 LINE",
"63 250 LINE",
"125 250 LINE",
"125 188 LINE",
"125 125 LINE"
);
},
{
closed = 1;
nodes = (
"250 438 LINE",
"250 625 LINE",
"438 625 LINE",
"625 625 LINE",
"625 438 LINE",
"625 250 LINE",
"438 250 LINE",
"250 250 LINE"
);
}
);
width = 1000;
}
);
unicode = 00F2;
},
{
color = 8;
glyphname = ohungarumlaut;
layers = (
{
layerId = UUID0;
paths = (
{
closed = 1;
nodes = (
"438 125 LINE",
"750 125 LINE",
"750 188 LINE",
"750 250 LINE",
"813 250 LINE",
"875 250 LINE",
"875 438 LINE",
"875 625 LINE",
"813 625 LINE",
"750 625 LINE",
"750 688 LINE",
"750 750 LINE",
"688 750 LINE",
"625 750 LINE",
"625 813 LINE",
"625 875 LINE",
"688 875 LINE",
"750 875 LINE",
"750 938 LINE",
"750 1000 LINE",
"688 1000 LINE",
"625 1000 LINE",
"625 938 LINE",
"625 875 LINE",
"563 875 LINE",
"500 875 LINE",
"500 813 LINE",
"500 750 LINE",
"375 750 LINE",
"250 750 LINE",
"250 813 LINE",
"250 875 LINE",
"313 875 LINE",
"375 875 LINE",
"375 938 LINE",
"375 1000 LINE",
"313 1000 LINE",
"250 1000 LINE",
"250 938 LINE",
"250 875 LINE",
"188 875 LINE",
"125 875 LINE",
"125 750 LINE",
"125 625 LINE",
"63 625 LINE",
"0 625 LINE",
"0 438 LINE",
"0 250 LINE",
"63 250 LINE",
"125 250 LINE",
"125 188 LINE",
"125 125 LINE"
);
},
{
closed = 1;
nodes = (
"250 438 LINE",
"250 625 LINE",
"438 625 LINE",
"625 625 LINE",
"625 438 LINE",
"625 250 LINE",
"438 250 LINE",
"250 250 LINE"
);
}
);
width = 1000;
}
);
unicode = 0151;
},
{
glyphname = omacron;
layers = (
{
layerId = UUID0;
paths = (
{
closed = 1;
nodes = (
"438 125 LINE",
"750 125 LINE",
"750 188 LINE",
"750 250 LINE",
"813 250 LINE",
"875 250 LINE",
"875 438 LINE",
"875 625 LINE",
"813 625 LINE",
"750 625 LINE",
"750 688 LINE",
"750 750 LINE",
"438 750 LINE",
"125 750 LINE",
"125 688 LINE",
"125 625 LINE",
"63 625 LINE",
"0 625 LINE",
"0 438 LINE",
"0 250 LINE",
"63 250 LINE",
"125 250 LINE",
"125 188 LINE",
"125 125 LINE"
);
},
{
closed = 1;
nodes = (
"250 438 LINE",
"250 625 LINE",
"438 625 LINE",
"625 625 LINE",
"625 438 LINE",
"625 250 LINE",
"438 250 LINE",
"250 250 LINE"
);
},
{
closed = 1;
nodes = (
"438 875 LINE",
"750 875 LINE",
"750 938 LINE",
"750 1000 LINE",
"438 1000 LINE",
"125 1000 LINE",
"125 938 LINE",
"125 875 LINE"
);
}
);
width = 1000;
}
);
unicode = 014D;
},
{
glyphname = oslash;
layers = (
{
layerId = UUID0;
paths = (
{
closed = 1;
nodes = (
"438 125 LINE",
"750 125 LINE",
"750 188 LINE",
"750 250 LINE",
"813 250 LINE",
"875 250 LINE",
"875 438 LINE",
"875 625 LINE",
"813 625 LINE",
"750 625 LINE",
"750 688 LINE",
"750 750 LINE",
"438 750 LINE",
"125 750 LINE",
"125 688 LINE",
"125 625 LINE",
"63 625 LINE",
"0 625 LINE",
"0 438 LINE",
"0 250 LINE",
"63 250 LINE",
"125 250 LINE",
"125 188 LINE",
"125 125 LINE"
);
},
{
closed = 1;
nodes = (
"375 313 LINE",
"375 375 LINE",
"313 375 LINE",
"250 375 LINE",
"250 500 LINE",
"250 625 LINE",
"375 625 LINE",
"500 625 LINE",
"500 563 LINE",
"500 500 LINE",
"563 500 LINE",
"625 500 LINE",
"625 375 LINE",
"625 250 LINE",
"500 250 LINE",
"375 250 LINE"
);
},
{
closed = 1;
nodes = (
"438 375 LINE",
"500 375 LINE",
"500 438 LINE",
"500 500 LINE",
"438 500 LINE",
"375 500 LINE",
"375 438 LINE",
"375 375 LINE"
);
}
);
width = 1000;
}
);
unicode = 00F8;
},
{
color = 8;
glyphname = otilde;
layers = (
{
layerId = UUID0;
paths = (
{
closed = 1;
nodes = (
"438 125 LINE",
"750 125 LINE",
"750 188 LINE",
"750 250 LINE",
"813 250 LINE",
"875 250 LINE",
"875 438 LINE",
"875 625 LINE",
"813 625 LINE",
"750 625 LINE",
"750 688 LINE",
"750 750 LINE",
"688 750 LINE",
"625 750 LINE",
"625 813 LINE",
"625 875 LINE",
"688 875 LINE",
"750 875 LINE",
"750 938 LINE",
"750 1000 LINE",
"688 1000 LINE",
"625 1000 LINE",
"625 938 LINE",
"625 875 LINE",
"563 875 LINE",
"500 875 LINE",
"500 938 LINE",
"500 1000 LINE",
"375 1000 LINE",
"250 1000 LINE",
"250 938 LINE",
"250 875 LINE",
"188 875 LINE",
"125 875 LINE",
"125 750 LINE",
"125 625 LINE",
"63 625 LINE",
"0 625 LINE",
"0 438 LINE",
"0 250 LINE",
"63 250 LINE",
"125 250 LINE",
"125 188 LINE",
"125 125 LINE"
);
},
{
closed = 1;
nodes = (
"250 438 LINE",
"250 625 LINE",
"438 625 LINE",
"625 625 LINE",
"625 438 LINE",
"625 250 LINE",
"438 250 LINE",
"250 250 LINE"
);
},
{
closed = 1;
nodes = (
"250 813 LINE",
"250 875 LINE",
"313 875 LINE",
"375 875 LINE",
"375 813 LINE",
"375 750 LINE",
"313 750 LINE",
"250 750 LINE"
);
}
);
width = 1000;
}
);
unicode = 00F5;
},
{
glyphname = oe;
layers = (
{
layerId = UUID0;
paths = (
{
closed = 1;
nodes = (
"438 125 LINE",
"750 125 LINE",
"750 188 LINE",
"750 250 LINE",
"625 250 LINE",
"500 250 LINE",
"500 313 LINE",
"500 375 LINE",
"688 375 LINE",
"875 375 LINE",
"875 500 LINE",
"875 625 LINE",
"813 625 LINE",
"750 625 LINE",
"750 688 LINE",
"750 750 LINE",
"438 750 LINE",
"125 750 LINE",
"125 688 LINE",
"125 625 LINE",
"63 625 LINE",
"0 625 LINE",
"0 438 LINE",
"0 250 LINE",
"63 250 LINE",
"125 250 LINE",
"125 188 LINE",
"125 125 LINE"
);
},
{
closed = 1;
nodes = (
"250 438 LINE",
"250 625 LINE",
"313 625 LINE",
"375 625 LINE",
"375 438 LINE",
"375 250 LINE",
"313 250 LINE",
"250 250 LINE"
);
},
{
closed = 1;
nodes = (
"500 563 LINE",
"500 625 LINE",
"563 625 LINE",
"625 625 LINE",
"625 563 LINE",
"625 500 LINE",
"563 500 LINE",
"500 500 LINE"
);
}
);
width = 1000;
}
);
unicode = 0153;
},
{
glyphname = p;
layers = (
{
layerId = UUID0;
paths = (
{
closed = 1;
nodes = (
"125 0 LINE",
"250 0 LINE",
"250 125 LINE",
"250 250 LINE",
"500 250 LINE",
"750 250 LINE",
"750 313 LINE",
"750 375 LINE",
"813 375 LINE",
"875 375 LINE",
"875 500 LINE",
"875 625 LINE",
"813 625 LINE",
"750 625 LINE",
"750 688 LINE",
"750 750 LINE",
"375 750 LINE",
"0 750 LINE",
"0 375 LINE",
"0 0 LINE"
);
},
{
closed = 1;
nodes = (
"250 500 LINE",
"250 625 LINE",
"438 625 LINE",
"625 625 LINE",
"625 500 LINE",
"625 375 LINE",
"438 375 LINE",
"250 375 LINE"
);
}
);
width = 1000;
}
);
unicode = 0070;
},
{
glyphname = thorn;
layers = (
{
layerId = UUID0;
paths = (
{
closed = 1;
nodes = (
"125 0 LINE",
"250 0 LINE",
"250 125 LINE",
"250 250 LINE",
"500 250 LINE",
"750 250 LINE",
"750 313 LINE",
"750 375 LINE",
"813 375 LINE",
"875 375 LINE",
"875 500 LINE",
"875 625 LINE",
"813 625 LINE",
"750 625 LINE",
"750 688 LINE",
"750 750 LINE",
"500 750 LINE",
"250 750 LINE",
"250 875 LINE",
"250 1000 LINE",
"125 1000 LINE",
"0 1000 LINE",
"0 500 LINE",
"0 0 LINE"
);
},
{
closed = 1;
nodes = (
"250 500 LINE",
"250 625 LINE",
"438 625 LINE",
"625 625 LINE",
"625 500 LINE",
"625 375 LINE",
"438 375 LINE",
"250 375 LINE"
);
}
);
width = 1000;
}
);
unicode = 00FE;
},
{
glyphname = q;
layers = (
{
layerId = UUID0;
paths = (
{
closed = 1;
nodes = (
"750 0 LINE",
"875 0 LINE",
"875 375 LINE",
"875 750 LINE",
"500 750 LINE",
"125 750 LINE",
"125 688 LINE",
"125 625 LINE",
"63 625 LINE",
"0 625 LINE",
"0 500 LINE",
"0 375 LINE",
"63 375 LINE",
"125 375 LINE",
"125 313 LINE",
"125 250 LINE",
"375 250 LINE",
"625 250 LINE",
"625 125 LINE",
"625 0 LINE"
);
},
{
closed = 1;
nodes = (
"250 500 LINE",
"250 625 LINE",
"438 625 LINE",
"625 625 LINE",
"625 500 LINE",
"625 375 LINE",
"438 375 LINE",
"250 375 LINE"
);
}
);
width = 1000;
}
);
unicode = 0071;
},
{
glyphname = r;
layers = (
{
layerId = UUID0;
paths = (
{
closed = 1;
nodes = (
"250 125 LINE",
"375 125 LINE",
"375 313 LINE",
"375 500 LINE",
"438 500 LINE",
"500 500 LINE",
"500 563 LINE",
"500 625 LINE",
"688 625 LINE",
"875 625 LINE",
"875 688 LINE",
"875 750 LINE",
"688 750 LINE",
"500 750 LINE",
"500 688 LINE",
"500 625 LINE",
"438 625 LINE",
"375 625 LINE",
"375 688 LINE",
"375 750 LINE",
"250 750 LINE",
"125 750 LINE",
"125 438 LINE",
"125 125 LINE"
);
}
);
width = 1000;
}
);
unicode = 0072;
},
{
color = 8;
glyphname = racute;
layers = (
{
layerId = UUID0;
paths = (
{
closed = 1;
nodes = (
"250 125 LINE",
"375 125 LINE",
"375 313 LINE",
"375 500 LINE",
"438 500 LINE",
"500 500 LINE",
"500 563 LINE",
"500 625 LINE",
"688 625 LINE",
"875 625 LINE",
"875 688 LINE",
"875 750 LINE",
"688 750 LINE",
"500 750 LINE",
"500 813 LINE",
"500 875 LINE",
"563 875 LINE",
"625 875 LINE",
"625 938 LINE",
"625 1000 LINE",
"563 1000 LINE",
"500 1000 LINE",
"500 938 LINE",
"500 875 LINE",
"438 875 LINE",
"375 875 LINE",
"375 813 LINE",
"375 750 LINE",
"250 750 LINE",
"125 750 LINE",
"125 438 LINE",
"125 125 LINE"
);
},
{
closed = 1;
nodes = (
"375 688 LINE",
"375 750 LINE",
"438 750 LINE",
"500 750 LINE",
"500 688 LINE",
"500 625 LINE",
"438 625 LINE",
"375 625 LINE"
);
}
);
width = 1000;
}
);
unicode = 0155;
},
{
color = 8;
glyphname = rcaron;
layers = (
{
layerId = UUID0;
paths = (
{
closed = 1;
nodes = (
"250 125 LINE",
"375 125 LINE",
"375 313 LINE",
"375 500 LINE",
"438 500 LINE",
"500 500 LINE",
"500 563 LINE",
"500 625 LINE",
"688 625 LINE",
"875 625 LINE",
"875 688 LINE",
"875 750 LINE",
"813 750 LINE",
"750 750 LINE",
"750 813 LINE",
"750 875 LINE",
"813 875 LINE",
"875 875 LINE",
"875 938 LINE",
"875 1000 LINE",
"750 1000 LINE",
"625 1000 LINE",
"625 938 LINE",
"625 875 LINE",
"563 875 LINE",
"500 875 LINE",
"500 938 LINE",
"500 1000 LINE",
"375 1000 LINE",
"250 1000 LINE",
"250 938 LINE",
"250 875 LINE",
"313 875 LINE",
"375 875 LINE",
"375 813 LINE",
"375 750 LINE",
"250 750 LINE",
"125 750 LINE",
"125 438 LINE",
"125 125 LINE"
);
},
{
closed = 1;
nodes = (
"375 688 LINE",
"375 750 LINE",
"438 750 LINE",
"500 750 LINE",
"500 688 LINE",
"500 625 LINE",
"438 625 LINE",
"375 625 LINE"
);
}
);
width = 1000;
}
);
unicode = 0159;
},
{
glyphname = rcommaaccent;
layers = (
{
layerId = UUID0;
paths = (
{
closed = 1;
nodes = (
"250 0 LINE",
"375 0 LINE",
"375 63 LINE",
"375 125 LINE",
"438 125 LINE",
"500 125 LINE",
"500 188 LINE",
"500 250 LINE",
"438 250 LINE",
"375 250 LINE",
"375 438 LINE",
"375 625 LINE",
"438 625 LINE",
"500 625 LINE",
"500 688 LINE",
"500 750 LINE",
"688 750 LINE",
"875 750 LINE",
"875 813 LINE",
"875 875 LINE",
"688 875 LINE",
"500 875 LINE",
"500 813 LINE",
"500 750 LINE",
"438 750 LINE",
"375 750 LINE",
"375 813 LINE",
"375 875 LINE",
"250 875 LINE",
"125 875 LINE",
"125 563 LINE",
"125 250 LINE",
"188 250 LINE",
"250 250 LINE",
"250 188 LINE",
"250 125 LINE",
"188 125 LINE",
"125 125 LINE",
"125 63 LINE",
"125 0 LINE"
);
}
);
width = 1000;
}
);
unicode = 0157;
},
{
glyphname = s;
layers = (
{
layerId = UUID0;
paths = (
{
closed = 1;
nodes = (
"375 125 LINE",
"750 125 LINE",
"750 188 LINE",
"750 250 LINE",
"813 250 LINE",
"875 250 LINE",
"875 313 LINE",
"875 375 LINE",
"813 375 LINE",
"750 375 LINE",
"750 438 LINE",
"750 500 LINE",
"500 500 LINE",
"250 500 LINE",
"250 563 LINE",
"250 625 LINE",
"500 625 LINE",
"750 625 LINE",
"750 688 LINE",
"750 750 LINE",
"438 750 LINE",
"125 750 LINE",
"125 688 LINE",
"125 625 LINE",
"63 625 LINE",
"0 625 LINE",
"0 563 LINE",
"0 500 LINE",
"63 500 LINE",
"125 500 LINE",
"125 438 LINE",
"125 375 LINE",
"375 375 LINE",
"625 375 LINE",
"625 313 LINE",
"625 250 LINE",
"313 250 LINE",
"0 250 LINE",
"0 188 LINE",
"0 125 LINE"
);
}
);
width = 1000;
}
);
unicode = 0073;
},
{
glyphname = sacute;
layers = (
{
layerId = UUID0;
paths = (
{
closed = 1;
nodes = (
"375 125 LINE",
"750 125 LINE",
"750 188 LINE",
"750 250 LINE",
"813 250 LINE",
"875 250 LINE",
"875 313 LINE",
"875 375 LINE",
"813 375 LINE",
"750 375 LINE",
"750 438 LINE",
"750 500 LINE",
"500 500 LINE",
"250 500 LINE",
"250 563 LINE",
"250 625 LINE",
"500 625 LINE",
"750 625 LINE",
"750 688 LINE",
"750 750 LINE",
"625 750 LINE",
"500 750 LINE",
"500 813 LINE",
"500 875 LINE",
"563 875 LINE",
"625 875 LINE",
"625 938 LINE",
"625 1000 LINE",
"563 1000 LINE",
"500 1000 LINE",
"500 938 LINE",
"500 875 LINE",
"438 875 LINE",
"375 875 LINE",
"375 813 LINE",
"375 750 LINE",
"250 750 LINE",
"125 750 LINE",
"125 688 LINE",
"125 625 LINE",
"63 625 LINE",
"0 625 LINE",
"0 563 LINE",
"0 500 LINE",
"63 500 LINE",
"125 500 LINE",
"125 438 LINE",
"125 375 LINE",
"375 375 LINE",
"625 375 LINE",
"625 313 LINE",
"625 250 LINE",
"313 250 LINE",
"0 250 LINE",
"0 188 LINE",
"0 125 LINE"
);
}
);
width = 1000;
}
);
unicode = 015B;
},
{
color = 8;
glyphname = scaron;
layers = (
{
layerId = UUID0;
paths = (
{
closed = 1;
nodes = (
"375 125 LINE",
"750 125 LINE",
"750 188 LINE",
"750 250 LINE",
"813 250 LINE",
"875 250 LINE",
"875 313 LINE",
"875 375 LINE",
"813 375 LINE",
"750 375 LINE",
"750 438 LINE",
"750 500 LINE",
"500 500 LINE",
"250 500 LINE",
"250 563 LINE",
"250 625 LINE",
"500 625 LINE",
"750 625 LINE",
"750 688 LINE",
"750 750 LINE",
"688 750 LINE",
"625 750 LINE",
"625 813 LINE",
"625 875 LINE",
"688 875 LINE",
"750 875 LINE",
"750 938 LINE",
"750 1000 LINE",
"625 1000 LINE",
"500 1000 LINE",
"500 938 LINE",
"500 875 LINE",
"438 875 LINE",
"375 875 LINE",
"375 938 LINE",
"375 1000 LINE",
"250 1000 LINE",
"125 1000 LINE",
"125 938 LINE",
"125 875 LINE",
"188 875 LINE",
"250 875 LINE",
"250 813 LINE",
"250 750 LINE",
"188 750 LINE",
"125 750 LINE",
"125 688 LINE",
"125 625 LINE",
"63 625 LINE",
"0 625 LINE",
"0 563 LINE",
"0 500 LINE",
"63 500 LINE",
"125 500 LINE",
"125 438 LINE",
"125 375 LINE",
"375 375 LINE",
"625 375 LINE",
"625 313 LINE",
"625 250 LINE",
"313 250 LINE",
"0 250 LINE",
"0 188 LINE",
"0 125 LINE"
);
}
);
width = 1000;
}
);
unicode = 0161;
},
{
glyphname = scedilla;
layers = (
{
layerId = UUID0;
paths = (
{
closed = 1;
nodes = (
"375 0 LINE",
"500 0 LINE",
"500 63 LINE",
"500 125 LINE",
"563 125 LINE",
"625 125 LINE",
"625 188 LINE",
"625 250 LINE",
"688 250 LINE",
"750 250 LINE",
"750 313 LINE",
"750 375 LINE",
"813 375 LINE",
"875 375 LINE",
"875 438 LINE",
"875 500 LINE",
"813 500 LINE",
"750 500 LINE",
"750 563 LINE",
"750 625 LINE",
"500 625 LINE",
"250 625 LINE",
"250 688 LINE",
"250 750 LINE",
"500 750 LINE",
"750 750 LINE",
"750 813 LINE",
"750 875 LINE",
"438 875 LINE",
"125 875 LINE",
"125 813 LINE",
"125 750 LINE",
"63 750 LINE",
"0 750 LINE",
"0 688 LINE",
"0 625 LINE",
"63 625 LINE",
"125 625 LINE",
"125 563 LINE",
"125 500 LINE",
"375 500 LINE",
"625 500 LINE",
"625 438 LINE",
"625 375 LINE",
"313 375 LINE",
"0 375 LINE",
"0 313 LINE",
"0 250 LINE",
"250 250 LINE",
"500 250 LINE",
"500 188 LINE",
"500 125 LINE",
"375 125 LINE",
"250 125 LINE",
"250 63 LINE",
"250 0 LINE"
);
}
);
width = 1000;
}
);
unicode = 015F;
},
